%TF.GenerationSoftware,KiCad,Pcbnew,6.0.11-2627ca5db0~126~ubuntu20.04.1*%
%TF.CreationDate,2023-12-31T19:32:31+09:00*%
%TF.ProjectId,wheel,77686565-6c2e-46b6-9963-61645f706362,rev?*%
%TF.SameCoordinates,Original*%
%TF.FileFunction,Paste,Bot*%
%TF.FilePolarity,Positive*%
%FSLAX46Y46*%
G04 Gerber Fmt 4.6, Leading zero omitted, Abs format (unit mm)*
G04 Created by KiCad (PCBNEW 6.0.11-2627ca5db0~126~ubuntu20.04.1) date 2023-12-31 19:32:31*
%MOMM*%
%LPD*%
G01*
G04 APERTURE LIST*
G04 Aperture macros list*
%AMRoundRect*
0 Rectangle with rounded corners*
0 $1 Rounding radius*
0 $2 $3 $4 $5 $6 $7 $8 $9 X,Y pos of 4 corners*
0 Add a 4 corners polygon primitive as box body*
4,1,4,$2,$3,$4,$5,$6,$7,$8,$9,$2,$3,0*
0 Add four circle primitives for the rounded corners*
1,1,$1+$1,$2,$3*
1,1,$1+$1,$4,$5*
1,1,$1+$1,$6,$7*
1,1,$1+$1,$8,$9*
0 Add four rect primitives between the rounded corners*
20,1,$1+$1,$2,$3,$4,$5,0*
20,1,$1+$1,$4,$5,$6,$7,0*
20,1,$1+$1,$6,$7,$8,$9,0*
20,1,$1+$1,$8,$9,$2,$3,0*%
G04 Aperture macros list end*
%ADD10RoundRect,0.237500X0.237500X-0.250000X0.237500X0.250000X-0.237500X0.250000X-0.237500X-0.250000X0*%
%ADD11R,0.800000X1.800000*%
%ADD12RoundRect,0.237500X-0.237500X0.250000X-0.237500X-0.250000X0.237500X-0.250000X0.237500X0.250000X0*%
G04 APERTURE END LIST*
D10*
%TO.C,R48*%
X141540000Y-95250000D03*
X141540000Y-93425000D03*
%TD*%
%TO.C,R47*%
X129540000Y-95112500D03*
X129540000Y-93287500D03*
%TD*%
D11*
%TO.C,Q9*%
X107340000Y-77700000D03*
X105440000Y-77700000D03*
X106390000Y-74400000D03*
%TD*%
D10*
%TO.C,R50*%
X85140000Y-95112500D03*
X85140000Y-93287500D03*
%TD*%
%TO.C,R53*%
X127140000Y-95112500D03*
X127140000Y-93287500D03*
%TD*%
%TO.C,R44*%
X87540000Y-95112500D03*
X87540000Y-93287500D03*
%TD*%
D11*
%TO.C,Q8*%
X93840000Y-77700000D03*
X91940000Y-77700000D03*
X92890000Y-74400000D03*
%TD*%
%TO.C,Q4*%
X112840000Y-77700000D03*
X110940000Y-77700000D03*
X111890000Y-74400000D03*
%TD*%
D12*
%TO.C,R41*%
X132140000Y-93287500D03*
X132140000Y-95112500D03*
%TD*%
D11*
%TO.C,Q12*%
X147890000Y-77550000D03*
X145990000Y-77550000D03*
X146940000Y-74250000D03*
%TD*%
%TO.C,Q1*%
X72340000Y-77700000D03*
X70440000Y-77700000D03*
X71390000Y-74400000D03*
%TD*%
D10*
%TO.C,R54*%
X139140000Y-95337500D03*
X139140000Y-93512500D03*
%TD*%
D11*
%TO.C,Q7*%
X80340000Y-77700000D03*
X78440000Y-77700000D03*
X79390000Y-74400000D03*
%TD*%
%TO.C,Q6*%
X139840000Y-77700000D03*
X137940000Y-77700000D03*
X138890000Y-74400000D03*
%TD*%
%TO.C,Q3*%
X99340000Y-77700000D03*
X97440000Y-77700000D03*
X98390000Y-74400000D03*
%TD*%
%TO.C,Q2*%
X85840000Y-77700000D03*
X83940000Y-77700000D03*
X84890000Y-74400000D03*
%TD*%
D12*
%TO.C,R45*%
X101540000Y-93287500D03*
X101540000Y-95112500D03*
%TD*%
%TO.C,R40*%
X118140000Y-93287500D03*
X118140000Y-95112500D03*
%TD*%
D10*
%TO.C,R38*%
X89740000Y-95112500D03*
X89740000Y-93287500D03*
%TD*%
%TO.C,R37*%
X76140000Y-95112500D03*
X76140000Y-93287500D03*
%TD*%
%TO.C,R42*%
X144140000Y-95250000D03*
X144140000Y-93425000D03*
%TD*%
D11*
%TO.C,Q10*%
X120840000Y-77700000D03*
X118940000Y-77700000D03*
X119890000Y-74400000D03*
%TD*%
D10*
%TO.C,R49*%
X71540000Y-95112500D03*
X71540000Y-93287500D03*
%TD*%
%TO.C,R46*%
X115540000Y-95112500D03*
X115540000Y-93287500D03*
%TD*%
%TO.C,R52*%
X112940000Y-95112500D03*
X112940000Y-93287500D03*
%TD*%
%TO.C,R51*%
X99340000Y-95112500D03*
X99340000Y-93287500D03*
%TD*%
D12*
%TO.C,R39*%
X103740000Y-93287500D03*
X103740000Y-95112500D03*
%TD*%
D11*
%TO.C,Q11*%
X134340000Y-77700000D03*
X132440000Y-77700000D03*
X133390000Y-74400000D03*
%TD*%
D12*
%TO.C,R43*%
X73740000Y-93287500D03*
X73740000Y-95112500D03*
%TD*%
D11*
%TO.C,Q5*%
X126340000Y-77700000D03*
X124440000Y-77700000D03*
X125390000Y-74400000D03*
%TD*%
M02*
