M48
; DRILL file {KiCad 6.0.11-2627ca5db0~126~ubuntu20.04.1} date 2023年12月31日 19時32分34秒
; FORMAT={-:-/ absolute / metric / decimal}
; #@! TF.CreationDate,2023-12-31T19:32:34+09:00
; #@! TF.GenerationSoftware,Kicad,Pcbnew,6.0.11-2627ca5db0~126~ubuntu20.04.1
; #@! TF.FileFunction,Plated,1,2,PTH
FMAT,2
METRIC
; #@! TA.AperFunction,Plated,PTH,ViaDrill
T1C0.400
; #@! TA.AperFunction,Plated,PTH,ComponentDrill
T2C0.762
; #@! TA.AperFunction,Plated,PTH,ComponentDrill
T3C0.800
; #@! TA.AperFunction,Plated,PTH,ComponentDrill
T4C0.900
; #@! TA.AperFunction,Plated,PTH,ComponentDrill
T5C0.950
; #@! TA.AperFunction,Plated,PTH,ComponentDrill
T6C0.990
; #@! TA.AperFunction,Plated,PTH,ComponentDrill
T7C1.000
; #@! TA.AperFunction,Plated,PTH,ComponentDrill
T8C1.020
; #@! TA.AperFunction,Plated,PTH,ComponentDrill
T9C1.200
; #@! TA.AperFunction,Plated,PTH,ComponentDrill
T10C1.300
; #@! TA.AperFunction,Plated,PTH,ComponentDrill
T11C1.650
; #@! TA.AperFunction,Plated,PTH,ComponentDrill
T12C2.700
; #@! TA.AperFunction,Plated,PTH,ComponentDrill
T13C4.500
%
G90
G05
T1
X52.5Y-67.5
X52.5Y-77.5
X52.5Y-90.0
X52.5Y-100.0
X52.5Y-107.5
X52.5Y-117.5
X52.5Y-130.0
X52.5Y-142.5
X52.5Y-155.0
X57.0Y-109.0
X57.0Y-142.0
X57.5Y-125.2
X58.0Y-110.5
X60.0Y-62.5
X60.0Y-111.5
X61.6Y-107.8
X61.775Y-120.724
X61.8Y-135.1
X62.0Y-137.5
X62.1Y-125.8
X62.1Y-133.5
X62.2Y-139.6
X62.5Y-130.5
X63.0Y-93.5
X63.2Y-128.8
X63.224Y-117.83
X63.5Y-124.0
X63.575Y-125.5
X63.6Y-121.4
X63.756Y-139.344
X64.0Y-150.0
X64.23Y-137.77
X64.593Y-121.724
X64.724Y-106.0
X64.9Y-116.5
X65.0Y-109.7
X65.0Y-156.0
X65.075Y-108.6
X65.5Y-96.5
X65.5Y-120.0
X65.7Y-121.9
X66.0Y-94.5
X66.47Y-122.63
X67.1Y-104.7
X67.2Y-116.6
X67.328Y-111.828
X67.7Y-113.7
X68.125Y-119.8
X68.188Y-123.812
X68.5Y-129.0
X69.1Y-117.0
X69.2Y-120.0
X69.275Y-113.812
X69.3Y-125.5
X69.34Y-92.28
X69.35Y-94.35
X69.5Y-109.0
X70.0Y-105.0
X70.015Y-75.8
X70.462Y-112.938
X70.5Y-126.8
X70.6Y-121.9
X70.699Y-136.397
X70.724Y-116.4
X71.0Y-129.7
X71.1Y-132.2
X71.3Y-90.3
X71.5Y-95.1
X71.6Y-128.7
X71.7Y-120.8
X71.863Y-75.895
X72.125Y-148.8
X72.485Y-90.2
X73.4Y-119.9
X73.476Y-127.307
X73.5Y-118.75
X73.5Y-154.5
X73.655Y-113.135
X73.7Y-129.3
X73.74Y-95.112
X73.75Y-139.75
X73.755Y-90.2
X74.0Y-131.75
X74.0Y-135.8
X74.5Y-119.5
X74.5Y-138.8
X74.525Y-151.525
X74.525Y-155.578
X74.75Y-148.25
X75.025Y-90.2
X75.127Y-74.1
X75.75Y-109.75
X76.0Y-105.25
X77.113Y-127.888
X77.565Y-80.9
X77.6Y-72.6
X77.89Y-87.25
X78.55Y-109.825
X78.9Y-90.2
X79.975Y-108.625
X80.0Y-62.5
X80.0Y-118.0
X80.087Y-97.8
X80.34Y-77.7
X80.5Y-89.3
X80.687Y-110.187
X80.941Y-117.6
X81.087Y-105.212
X81.665Y-131.9
X81.75Y-110.149
X81.75Y-138.75
X81.875Y-152.0
X82.0Y-142.525
X82.0Y-147.0
X82.0Y-154.5
X82.0Y-157.0
X82.5Y-97.5
X82.5Y-100.0
X82.5Y-105.0
X82.775Y-131.875
X83.3Y-146.249
X83.427Y-76.0
X83.5Y-134.875
X84.0Y-129.875
X84.25Y-141.529
X84.34Y-77.351
X84.35Y-110.275
X85.05Y-108.625
X85.14Y-93.287
X85.252Y-76.0
X85.337Y-105.212
X85.5Y-115.5
X85.5Y-127.0
X85.5Y-130.5
X85.985Y-90.2
X86.0Y-157.0
X86.175Y-150.4
X87.2Y-72.4
X87.255Y-90.2
X88.5Y-154.5
X88.525Y-90.2
X88.527Y-74.1
X88.6Y-112.05
X88.8Y-123.475
X90.0Y-62.5
X90.0Y-100.0
X90.0Y-105.0
X90.0Y-117.5
X90.0Y-135.0
X90.25Y-142.35
X90.4Y-72.4
X90.6Y-122.3
X91.0Y-111.5
X91.0Y-144.5
X91.065Y-80.9
X91.25Y-130.875
X91.5Y-146.275
X91.75Y-108.75
X91.9Y-87.26
X92.0Y-138.5
X92.3Y-90.2
X92.65Y-114.95
X93.84Y-77.7
X94.9Y-104.85
X95.0Y-97.5
X95.0Y-120.0
X95.3Y-89.6
X95.5Y-125.125
X96.0Y-122.0
X96.224Y-145.0
X96.25Y-135.0
X96.5Y-128.0
X97.0Y-135.75
X97.25Y-142.25
X97.275Y-108.6
X97.427Y-76.0
X98.0Y-145.5
X98.2Y-128.65
X98.5Y-115.5
X99.25Y-76.0
X99.4Y-95.1
X99.5Y-137.5
X99.985Y-90.2
X100.0Y-106.475
X100.0Y-141.0
X101.0Y-152.5
X101.255Y-90.2
X101.5Y-144.5
X101.54Y-95.112
X101.8Y-129.1
X102.0Y-107.0
X102.0Y-135.0
X102.027Y-74.3
X102.5Y-117.5
X102.5Y-120.0
X102.5Y-124.0
X102.5Y-143.3
X102.525Y-90.2
X102.75Y-110.599
X103.35Y-108.6
X103.5Y-103.0
X103.74Y-95.112
X103.9Y-72.45
X104.0Y-101.5
X104.5Y-154.5
X104.75Y-135.75
X105.0Y-152.5
X105.065Y-80.9
X105.07Y-148.18
X105.65Y-87.26
X106.5Y-130.625
X106.8Y-88.5
X106.85Y-156.525
X107.0Y-137.0
X107.34Y-77.7
X107.5Y-62.5
X107.5Y-117.5
X107.5Y-120.0
X107.5Y-125.5
X107.5Y-150.0
X107.75Y-128.125
X107.75Y-130.625
X108.5Y-90.0
X108.5Y-107.0
X108.5Y-116.5
X108.75Y-157.25
X110.0Y-89.0
X110.0Y-97.25
X110.0Y-105.0
X110.0Y-128.0
X110.2Y-109.425
X110.5Y-157.643
X110.815Y-133.185
X111.0Y-94.5
X111.227Y-76.2
X111.389Y-134.004
X111.4Y-120.0
X112.488Y-130.488
X112.7Y-108.6
X113.0Y-157.0
X113.052Y-76.2
X113.5Y-111.5
X113.5Y-136.5
X113.835Y-90.2
X114.0Y-96.15
X114.435Y-94.265
X115.0Y-152.5
X115.105Y-90.2
X116.087Y-74.0
X116.25Y-102.55
X116.3Y-95.2
X116.375Y-90.2
X116.45Y-110.85
X116.75Y-113.5
X117.5Y-116.5
X117.5Y-147.5
X117.5Y-157.5
X117.621Y-128.087
X117.75Y-72.55
X118.0Y-125.5
X118.1Y-95.2
X118.55Y-109.425
X118.915Y-80.9
X119.65Y-87.26
X120.25Y-129.5
X120.84Y-77.7
X120.875Y-108.6
X121.0Y-105.5
X121.0Y-107.0
X122.0Y-130.5
X122.062Y-120.875
X122.075Y-145.713
X122.5Y-62.5
X122.815Y-91.925
X123.5Y-127.0
X123.6Y-122.05
X124.0Y-149.5
X124.127Y-76.2
X124.55Y-119.0
X125.0Y-114.5
X125.1Y-90.1
X125.953Y-76.2
X126.0Y-100.0
X126.0Y-101.5
X126.0Y-105.0
X126.0Y-131.225
X126.0Y-153.5
X126.25Y-94.25
X126.435Y-90.2
X127.14Y-95.112
X127.375Y-108.525
X127.5Y-119.75
X127.705Y-90.2
X128.0Y-107.0
X128.5Y-97.0
X128.65Y-120.25
X128.975Y-90.2
X129.0Y-128.0
X129.5Y-114.5
X129.528Y-73.9
X129.54Y-93.287
X129.54Y-95.112
X130.0Y-124.5
X130.5Y-119.5
X131.0Y-97.0
X131.2Y-109.425
X131.35Y-72.45
X131.515Y-80.9
X132.13Y-87.26
X132.14Y-95.112
X132.365Y-101.288
X132.5Y-148.875
X133.25Y-147.375
X134.0Y-108.0
X134.0Y-130.875
X134.34Y-77.7
X135.0Y-62.5
X135.0Y-154.0
X135.3Y-118.85
X135.5Y-125.0
X135.6Y-112.15
X136.5Y-107.0
X137.0Y-109.0
X137.827Y-76.1
X138.25Y-125.25
X139.653Y-76.1
X140.235Y-90.25
X141.505Y-90.25
X141.54Y-93.425
X142.5Y-107.5
X142.5Y-114.0
X142.5Y-157.5
X142.775Y-90.25
X142.8Y-94.4
X142.838Y-74.0
X144.2Y-95.2
X145.0Y-120.0
X145.0Y-127.5
X145.05Y-72.55
X145.315Y-80.95
X145.315Y-90.25
X145.4Y-92.2
X145.8Y-93.974
X146.35Y-139.2
X147.1Y-81.0
X147.425Y-95.1
X147.89Y-77.55
T2
X112.99Y-114.625
X112.99Y-117.165
X112.99Y-119.705
X112.99Y-122.245
X112.99Y-124.785
X133.31Y-114.625
X133.31Y-117.165
X133.31Y-119.705
X133.31Y-122.245
X133.31Y-124.785
T3
X92.63Y-121.405
X92.63Y-123.945
X92.63Y-126.485
X92.63Y-129.025
X100.25Y-121.405
X100.25Y-123.945
X100.25Y-126.485
X100.25Y-129.025
T4
X123.792Y-152.375
X123.792Y-154.875
X127.792Y-152.375
X127.792Y-154.875
X131.792Y-152.375
X131.792Y-154.875
T5
X59.95Y-99.0
X59.95Y-101.5
X59.95Y-104.0
X59.95Y-106.5
X59.95Y-109.0
X59.95Y-115.0
X59.95Y-117.5
X59.95Y-120.0
X59.95Y-122.5
X59.95Y-125.0
X59.95Y-131.0
X59.95Y-133.5
X59.95Y-136.0
X59.95Y-138.5
X59.95Y-141.0
X59.95Y-147.0
X59.95Y-149.5
X59.95Y-152.0
X59.95Y-154.5
X59.95Y-157.0
X60.0Y-67.0
X60.0Y-69.5
X60.0Y-72.0
X60.0Y-74.5
X60.0Y-77.0
X60.0Y-83.0
X60.0Y-85.5
X60.0Y-88.0
X60.0Y-90.5
X60.0Y-93.0
X71.64Y-70.0
X74.14Y-70.0
X76.64Y-70.0
X79.14Y-70.0
X85.14Y-70.0
X87.64Y-70.0
X90.14Y-70.0
X92.64Y-70.0
X98.64Y-70.0
X101.14Y-70.0
X103.64Y-70.0
X106.14Y-70.0
X112.14Y-70.0
X114.64Y-70.0
X117.14Y-70.0
X119.64Y-70.0
X125.64Y-70.0
X128.14Y-70.0
X130.64Y-70.0
X133.14Y-70.0
X139.14Y-70.0
X141.64Y-70.0
X144.14Y-70.0
X146.64Y-70.0
T6
X147.287Y-143.725
X147.287Y-148.225
T7
X66.5Y-83.18
X66.5Y-85.72
X66.5Y-88.26
X66.5Y-90.8
X88.2Y-149.305
X89.21Y-151.085
X90.22Y-149.305
X91.24Y-151.085
X92.26Y-149.305
X93.27Y-151.085
X94.29Y-149.305
X95.31Y-151.085
X109.425Y-111.775
X109.425Y-114.315
X109.525Y-119.515
X109.525Y-122.055
X148.0Y-153.25
X148.0Y-155.79
T8
X76.5Y-111.415
X76.5Y-113.955
X76.5Y-116.495
X76.5Y-119.035
X76.5Y-121.575
X76.5Y-124.115
X76.5Y-126.655
X76.5Y-129.195
X76.5Y-131.735
X76.5Y-134.275
X76.5Y-136.815
X76.5Y-139.355
X76.5Y-141.895
X76.5Y-144.435
X76.5Y-146.975
X76.5Y-149.515
X76.5Y-152.055
X76.5Y-154.595
X76.5Y-157.135
X79.04Y-111.415
X79.04Y-113.955
X79.04Y-116.495
X79.04Y-119.035
X79.04Y-121.575
X79.04Y-124.115
X79.04Y-126.655
X79.04Y-129.195
X79.04Y-131.735
X79.04Y-134.275
X79.04Y-136.815
X79.04Y-139.355
X79.04Y-141.895
X79.04Y-144.435
X79.04Y-146.975
X79.04Y-149.515
X79.04Y-152.055
X79.04Y-154.595
X79.04Y-157.135
X82.775Y-111.225
X82.775Y-113.225
X82.775Y-115.225
X82.775Y-117.225
X82.775Y-119.225
X82.775Y-121.225
X82.775Y-123.225
X82.775Y-125.225
X82.775Y-127.225
X82.775Y-129.225
X104.775Y-111.225
X104.775Y-113.225
X104.775Y-115.225
X104.775Y-117.225
X104.775Y-119.225
X104.775Y-121.225
X104.775Y-123.225
X104.775Y-125.225
X104.775Y-127.225
X104.775Y-129.225
X137.46Y-111.415
X137.46Y-113.955
X137.46Y-116.495
X137.46Y-119.035
X137.46Y-121.575
X137.46Y-124.115
X137.46Y-126.655
X137.46Y-129.195
X137.46Y-131.735
X137.46Y-134.275
X137.46Y-136.815
X137.46Y-139.355
X137.46Y-141.895
X137.46Y-144.435
X137.46Y-146.975
X137.46Y-149.515
X137.46Y-152.055
X137.46Y-154.595
X137.46Y-157.135
X140.0Y-111.415
X140.0Y-113.955
X140.0Y-116.495
X140.0Y-119.035
X140.0Y-121.575
X140.0Y-124.115
X140.0Y-126.655
X140.0Y-129.195
X140.0Y-131.735
X140.0Y-134.275
X140.0Y-136.815
X140.0Y-139.355
X140.0Y-141.895
X140.0Y-144.435
X140.0Y-146.975
X140.0Y-149.515
X140.0Y-152.055
X140.0Y-154.595
X140.0Y-157.135
T9
X121.792Y-150.625
X121.792Y-156.625
X133.792Y-150.625
X133.792Y-156.625
T10
X144.797Y-142.475
X144.797Y-149.485
T11
X83.65Y-150.195
X99.85Y-150.195
T12
X65.8Y-62.9
T13
X122.9Y-134.625
X130.1Y-134.625
X137.65Y-100.75
X144.85Y-100.75
T0
M30
