M48
; DRILL file {KiCad 8.0.0} date 2024-03-07T02:07:13+0900
; FORMAT={-:-/ absolute / inch / decimal}
; #@! TF.CreationDate,2024-03-07T02:07:13+09:00
; #@! TF.GenerationSoftware,Kicad,Pcbnew,8.0.0
; #@! TF.FileFunction,Plated,1,2,PTH
FMAT,2
INCH
; #@! TA.AperFunction,Plated,PTH,ViaDrill
T1C0.0157
; #@! TA.AperFunction,Plated,PTH,ComponentDrill
T2C0.0300
; #@! TA.AperFunction,Plated,PTH,ComponentDrill
T3C0.0315
; #@! TA.AperFunction,Plated,PTH,ComponentDrill
T4C0.0354
; #@! TA.AperFunction,Plated,PTH,ComponentDrill
T5C0.0374
; #@! TA.AperFunction,Plated,PTH,ComponentDrill
T6C0.0390
; #@! TA.AperFunction,Plated,PTH,ComponentDrill
T7C0.0394
; #@! TA.AperFunction,Plated,PTH,ComponentDrill
T8C0.0402
; #@! TA.AperFunction,Plated,PTH,ComponentDrill
T9C0.0472
; #@! TA.AperFunction,Plated,PTH,ComponentDrill
T10C0.0512
; #@! TA.AperFunction,Plated,PTH,ComponentDrill
T11C0.0650
; #@! TA.AperFunction,Plated,PTH,ComponentDrill
T12C0.0866
; #@! TA.AperFunction,Plated,PTH,ComponentDrill
T13C0.1063
; #@! TA.AperFunction,Plated,PTH,ComponentDrill
T14C0.1772
%
G90
G05
T1
X2.0669Y-2.6575
X2.0669Y-3.0512
X2.0669Y-3.5433
X2.0669Y-3.937
X2.0669Y-4.2323
X2.0669Y-4.626
X2.0669Y-5.1181
X2.0669Y-5.6102
X2.0669Y-6.1024
X2.2441Y-4.2913
X2.2441Y-5.5906
X2.2638Y-4.9291
X2.2835Y-4.3504
X2.3622Y-2.4606
X2.3622Y-4.3898
X2.4252Y-4.2441
X2.4321Y-4.7529
X2.4331Y-5.3189
X2.4409Y-5.4134
X2.4449Y-4.9528
X2.4449Y-5.2559
X2.4488Y-5.4961
X2.4606Y-5.1378
X2.4803Y-3.6811
X2.4882Y-5.0709
X2.4892Y-4.639
X2.5Y-4.8819
X2.503Y-4.9409
X2.5039Y-4.7795
X2.5101Y-5.486
X2.5197Y-5.9055
X2.5288Y-5.424
X2.543Y-4.7923
X2.5482Y-4.1732
X2.5551Y-4.5866
X2.5591Y-4.3189
X2.5591Y-6.1417
X2.562Y-4.2756
X2.5787Y-3.7992
X2.5787Y-4.7244
X2.5866Y-4.7992
X2.5984Y-3.7205
X2.6169Y-4.828
X2.6417Y-4.122
X2.6457Y-4.5906
X2.6507Y-4.4027
X2.6654Y-4.4764
X2.6821Y-4.7165
X2.6846Y-4.8745
X2.6929Y-5.2323
X2.6969Y-5.0787
X2.7205Y-4.6063
X2.7244Y-4.7244
X2.7274Y-4.4808
X2.7283Y-4.9409
X2.7299Y-3.6331
X2.7303Y-3.7146
X2.7362Y-4.2913
X2.7559Y-4.1339
X2.7565Y-2.9843
X2.7741Y-4.4464
X2.7756Y-4.9921
X2.7795Y-4.7992
X2.7834Y-5.37
X2.7844Y-4.5827
X2.7953Y-5.1063
X2.7992Y-5.2047
X2.8071Y-3.5551
X2.815Y-3.7441
X2.8189Y-5.0669
X2.8228Y-2.8465
X2.8228Y-4.7559
X2.8292Y-2.988
X2.8396Y-5.8583
X2.8537Y-3.5512
X2.8898Y-4.7205
X2.8927Y-5.0121
X2.8937Y-4.6752
X2.8937Y-6.0827
X2.8998Y-4.4541
X2.9016Y-5.0906
X2.9031Y-3.7446
X2.9035Y-5.502
X2.9037Y-3.5512
X2.9134Y-5.187
X2.9134Y-5.3465
X2.9331Y-4.7047
X2.9331Y-5.4646
X2.9341Y-5.9656
X2.9341Y-6.1251
X2.9429Y-5.8366
X2.9537Y-3.5512
X2.9578Y-2.9173
X2.9606Y-5.1457
X2.9823Y-4.3209
X2.9921Y-4.1437
X3.036Y-5.035
X3.0537Y-3.185
X3.0551Y-2.8583
X3.0665Y-3.435
X3.0833Y-4.2756
X3.1063Y-3.5512
X3.1434Y-5.5299
X3.1486Y-4.2766
X3.1496Y-2.4606
X3.1531Y-3.8504
X3.163Y-3.0591
X3.1693Y-3.5157
X3.1767Y-4.3381
X3.1811Y-4.4094
X3.1811Y-5.7638
X3.189Y-4.5236
X3.189Y-4.7913
X3.189Y-4.8819
X3.189Y-4.9488
X3.1924Y-4.1422
X3.2234Y-5.9843
X3.2283Y-6.0827
X3.2283Y-6.1811
X3.2323Y-5.689
X3.2362Y-5.5984
X3.248Y-3.8386
X3.248Y-3.937
X3.248Y-4.1339
X3.249Y-4.5
X3.252Y-4.3661
X3.2845Y-2.9921
X3.2874Y-5.7992
X3.3031Y-4.9488
X3.315Y-5.0748
X3.3205Y-3.0453
X3.3268Y-5.2677
X3.3386Y-5.685
X3.3465Y-4.3864
X3.352Y-3.6727
X3.3564Y-2.9921
X3.3583Y-2.8504
X3.3597Y-4.1422
X3.3819Y-5.7441
X3.3852Y-3.5512
X3.3858Y-6.1811
X3.4016Y-5.8622
X3.4252Y-4.7756
X3.4331Y-2.8504
X3.4352Y-3.5512
X3.4685Y-4.9094
X3.4843Y-6.0827
X3.4852Y-3.5512
X3.4853Y-2.9173
X3.5Y-5.122
X3.5118Y-5.6457
X3.5236Y-5.7598
X3.5394Y-5.5709
X3.5433Y-2.4606
X3.5433Y-3.937
X3.5433Y-4.1339
X3.5591Y-2.8504
X3.5591Y-4.3366
X3.5852Y-3.185
X3.6024Y-5.2992
X3.6079Y-4.2772
X3.6181Y-3.4354
X3.626Y-5.7008
X3.6339Y-3.5512
X3.6693Y-5.7677
X3.6837Y-5.4252
X3.6945Y-3.0591
X3.7205Y-6.0827
X3.7244Y-4.7717
X3.7323Y-4.937
X3.7362Y-4.128
X3.7402Y-3.8386
X3.752Y-3.5276
X3.7559Y-5.4724
X3.7628Y-5.2362
X3.7638Y-5.3228
X3.7677Y-5.7008
X3.8169Y-5.4272
X3.8297Y-4.2756
X3.8357Y-2.9921
X3.8583Y-5.9409
X3.8819Y-5.5709
X3.9075Y-2.9921
X3.9094Y-2.8504
X3.9134Y-3.7441
X3.9213Y-4.8858
X3.9291Y-4.7638
X3.9331Y-5.6299
X3.9364Y-3.5512
X3.9715Y-4.0502
X3.9724Y-5.7008
X3.9764Y-6.0039
X3.9864Y-3.5512
X3.9976Y-3.7446
X4.0079Y-4.3081
X4.0157Y-5.5591
X4.0168Y-2.9252
X4.0364Y-3.5512
X4.0748Y-4.0551
X4.0843Y-3.7446
X4.0906Y-2.8524
X4.0945Y-3.9961
X4.1142Y-6.0827
X4.1339Y-6.0039
X4.1364Y-3.185
X4.1422Y-5.8735
X4.1594Y-3.4354
X4.2047Y-3.4843
X4.2067Y-6.1624
X4.2087Y-4.1299
X4.2126Y-5.3937
X4.2205Y-4.6496
X4.226Y-3.0591
X4.2323Y-2.4606
X4.2323Y-5.9055
X4.248Y-4.9173
X4.2559Y-4.9764
X4.2717Y-3.5433
X4.2717Y-4.2126
X4.2815Y-6.1909
X4.3307Y-3.5039
X4.3307Y-3.8287
X4.3307Y-4.1339
X4.3504Y-6.2064
X4.3583Y-4.9567
X4.3701Y-3.7205
X4.379Y-3.0
X4.4291Y-3.1772
X4.437Y-3.4843
X4.437Y-4.2756
X4.4488Y-4.9921
X4.4488Y-6.1811
X4.4509Y-3.0
X4.4685Y-5.374
X4.4817Y-3.5512
X4.4882Y-3.7855
X4.5053Y-3.7112
X4.5276Y-6.0039
X4.5317Y-3.5512
X4.5704Y-2.9134
X4.5768Y-4.0374
X4.5787Y-3.748
X4.5817Y-3.5512
X4.626Y-5.8071
X4.626Y-6.2008
X4.6358Y-2.8563
X4.6496Y-3.748
X4.6817Y-3.185
X4.6929Y-4.3081
X4.7106Y-3.4354
X4.7575Y-3.0591
X4.7589Y-4.2756
X4.7638Y-4.1535
X4.7638Y-4.2126
X4.7677Y-4.7402
X4.7717Y-4.5827
X4.8223Y-4.8268
X4.8228Y-2.4606
X4.8352Y-3.6191
X4.8869Y-3.0
X4.9252Y-3.5472
X4.9341Y-4.4567
X4.9449Y-5.0236
X4.9567Y-6.1496
X4.9588Y-3.0
X4.9606Y-3.937
X4.9606Y-3.9961
X4.9606Y-4.1339
X4.9685Y-4.9921
X4.9705Y-3.7106
X4.9764Y-4.7717
X4.9778Y-3.5512
X4.9803Y-5.2047
X4.9921Y-5.0669
X4.9946Y-4.503
X5.0055Y-3.7446
X5.0148Y-4.2726
X5.0278Y-3.5512
X5.0394Y-4.2126
X5.0433Y-5.9213
X5.0591Y-3.8189
X5.0778Y-3.5512
X5.0995Y-2.9094
X5.1Y-3.6727
X5.1Y-3.7446
X5.122Y-4.4567
X5.122Y-5.0984
X5.122Y-5.8022
X5.1575Y-3.8189
X5.1644Y-5.624
X5.1713Y-2.8524
X5.1778Y-3.185
X5.202Y-3.4354
X5.2024Y-3.7446
X5.2112Y-3.9877
X5.2165Y-5.1663
X5.2362Y-5.7835
X5.2559Y-4.6457
X5.2756Y-4.252
X5.2756Y-5.1526
X5.289Y-3.0591
X5.315Y-2.4606
X5.315Y-4.3081
X5.315Y-6.063
X5.3346Y-4.9213
X5.3346Y-5.1929
X5.3701Y-5.5354
X5.374Y-4.2126
X5.4263Y-2.9961
X5.4429Y-4.9311
X5.4981Y-2.9961
X5.5118Y-2.8465
X5.5211Y-3.5531
X5.5551Y-5.8307
X5.5591Y-5.9409
X5.5711Y-3.5531
X5.5724Y-3.6781
X5.6024Y-4.5197
X5.6102Y-4.2323
X5.6102Y-6.2008
X5.6211Y-3.5531
X5.622Y-3.7165
X5.6235Y-2.9134
X5.6496Y-5.9961
X5.6614Y-5.8189
X5.6654Y-5.6772
X5.6772Y-3.748
X5.7047Y-5.4055
X5.7087Y-4.7244
X5.7087Y-5.0197
X5.7106Y-2.8563
X5.7211Y-3.187
X5.7211Y-3.5531
X5.7244Y-3.6299
X5.7283Y-5.4803
X5.7283Y-5.7559
X5.7362Y-5.3504
X5.7402Y-3.6998
X5.7795Y-5.5669
X5.7913Y-3.189
X5.7953Y-4.1732
X5.8041Y-3.7441
X5.8224Y-3.0531
T2
X3.3087Y-4.4772
X3.3087Y-4.5772
X3.3087Y-4.6772
X3.3087Y-4.7772
X3.3087Y-4.8772
X4.1087Y-4.4772
X4.1087Y-4.5772
X4.1087Y-4.6772
X4.1087Y-4.7772
X4.1087Y-4.8772
T3
X3.3465Y-5.1882
X3.3465Y-5.4882
X3.4465Y-5.1882
X3.4465Y-5.4882
X3.5465Y-5.1882
X3.5465Y-5.4882
X3.6465Y-5.1882
X3.6465Y-5.4882
T4
X4.8737Y-5.999
X4.8737Y-6.0974
X5.0312Y-5.999
X5.0312Y-6.0974
X5.1887Y-5.999
X5.1887Y-6.0974
T5
X2.3602Y-3.8976
X2.3602Y-3.9961
X2.3602Y-4.0945
X2.3602Y-4.1929
X2.3602Y-4.2913
X2.3602Y-4.5276
X2.3602Y-4.626
X2.3602Y-4.7244
X2.3602Y-4.8228
X2.3602Y-4.9213
X2.3602Y-5.1575
X2.3602Y-5.2559
X2.3602Y-5.3543
X2.3602Y-5.4528
X2.3602Y-5.5512
X2.3602Y-5.7874
X2.3602Y-5.8858
X2.3602Y-5.9843
X2.3602Y-6.0827
X2.3602Y-6.1811
X2.3622Y-2.6378
X2.3622Y-2.7362
X2.3622Y-2.8346
X2.3622Y-2.9331
X2.3622Y-3.0315
X2.3622Y-3.2677
X2.3622Y-3.3661
X2.3622Y-3.4646
X2.3622Y-3.563
X2.3622Y-3.6614
X2.8205Y-2.7559
X2.9189Y-2.7559
X3.0173Y-2.7559
X3.1157Y-2.7559
X3.352Y-2.7559
X3.4504Y-2.7559
X3.5488Y-2.7559
X3.6472Y-2.7559
X3.8835Y-2.7559
X3.9819Y-2.7559
X4.0803Y-2.7559
X4.1787Y-2.7559
X4.415Y-2.7559
X4.5134Y-2.7559
X4.6118Y-2.7559
X4.7102Y-2.7559
X4.9465Y-2.7559
X5.0449Y-2.7559
X5.1433Y-2.7559
X5.2417Y-2.7559
X5.478Y-2.7559
X5.5764Y-2.7559
X5.6748Y-2.7559
X5.7732Y-2.7559
T6
X5.7869Y-5.6585
X5.7869Y-5.8356
T7
X2.6181Y-3.2748
X2.6181Y-3.3748
X2.6181Y-3.4748
X2.6181Y-3.5748
X3.4724Y-5.8781
X3.5122Y-5.9482
X3.552Y-5.8781
X3.5921Y-5.9482
X3.6323Y-5.8781
X3.672Y-5.9482
X3.7122Y-5.8781
X3.7524Y-5.9482
X4.4094Y-4.585
X4.4094Y-4.685
X4.6624Y-4.4941
X4.6624Y-4.5941
X4.6624Y-4.6941
X4.6624Y-4.7941
X4.6624Y-4.8941
X5.8268Y-6.0187
X5.8268Y-6.1187
X5.8268Y-6.2187
T8
X3.0118Y-4.3864
X3.0118Y-4.4864
X3.0118Y-4.5864
X3.0118Y-4.6864
X3.0118Y-4.7864
X3.0118Y-4.8864
X3.0118Y-4.9864
X3.0118Y-5.0864
X3.0118Y-5.1864
X3.0118Y-5.2864
X3.0118Y-5.3864
X3.0118Y-5.4864
X3.0118Y-5.5864
X3.0118Y-5.6864
X3.0118Y-5.7864
X3.0118Y-5.8864
X3.0118Y-5.9864
X3.0118Y-6.0864
X3.0118Y-6.1864
X3.1118Y-4.3864
X3.1118Y-4.4864
X3.1118Y-4.5864
X3.1118Y-4.6864
X3.1118Y-4.7864
X3.1118Y-4.8864
X3.1118Y-4.9864
X3.1118Y-5.0864
X3.1118Y-5.1864
X3.1118Y-5.2864
X3.1118Y-5.3864
X3.1118Y-5.4864
X3.1118Y-5.5864
X3.1118Y-5.6864
X3.1118Y-5.7864
X3.1118Y-5.8864
X3.1118Y-5.9864
X3.1118Y-6.0864
X3.1118Y-6.1864
X5.4118Y-4.3864
X5.4118Y-4.4864
X5.4118Y-4.5864
X5.4118Y-4.6864
X5.4118Y-4.7864
X5.4118Y-4.8864
X5.4118Y-4.9864
X5.4118Y-5.0864
X5.4118Y-5.1864
X5.4118Y-5.2864
X5.4118Y-5.3864
X5.4118Y-5.4864
X5.4118Y-5.5864
X5.4118Y-5.6864
X5.4118Y-5.7864
X5.4118Y-5.8864
X5.4118Y-5.9864
X5.4118Y-6.0864
X5.4118Y-6.1864
X5.5118Y-4.3864
X5.5118Y-4.4864
X5.5118Y-4.5864
X5.5118Y-4.6864
X5.5118Y-4.7864
X5.5118Y-4.8864
X5.5118Y-4.9864
X5.5118Y-5.0864
X5.5118Y-5.1864
X5.5118Y-5.2864
X5.5118Y-5.3864
X5.5118Y-5.4864
X5.5118Y-5.5864
X5.5118Y-5.6864
X5.5118Y-5.7864
X5.5118Y-5.8864
X5.5118Y-5.9864
X5.5118Y-6.0864
X5.5118Y-6.1864
T9
X4.795Y-5.9301
X4.795Y-6.1663
X5.2674Y-5.9301
X5.2674Y-6.1663
T10
X5.6889Y-5.6093
X5.6889Y-5.8852
T11
X3.2933Y-5.9132
X3.9311Y-5.9132
T12
X5.2559Y-4.7835
T13
X2.5906Y-2.4764
T14
X4.8386Y-5.3002
X5.122Y-5.3002
X5.4193Y-3.9665
X5.7028Y-3.9665
M30
