%TF.GenerationSoftware,KiCad,Pcbnew,6.0.11-2627ca5db0~126~ubuntu20.04.1*%
%TF.CreationDate,2023-12-31T19:32:31+09:00*%
%TF.ProjectId,wheel,77686565-6c2e-46b6-9963-61645f706362,rev?*%
%TF.SameCoordinates,Original*%
%TF.FileFunction,Legend,Bot*%
%TF.FilePolarity,Positive*%
%FSLAX46Y46*%
G04 Gerber Fmt 4.6, Leading zero omitted, Abs format (unit mm)*
G04 Created by KiCad (PCBNEW 6.0.11-2627ca5db0~126~ubuntu20.04.1) date 2023-12-31 19:32:31*
%MOMM*%
%LPD*%
G01*
G04 APERTURE LIST*
%ADD10C,0.150000*%
%ADD11C,0.100000*%
%ADD12C,0.120000*%
%ADD13C,3.300000*%
G04 APERTURE END LIST*
D10*
X84000000Y-99000000D02*
X91000000Y-99000000D01*
X91000000Y-99000000D02*
X91000000Y-92000000D01*
X91000000Y-92000000D02*
X84000000Y-92000000D01*
X84000000Y-92000000D02*
X84000000Y-99000000D01*
X112000000Y-99000000D02*
X119000000Y-99000000D01*
X119000000Y-99000000D02*
X119000000Y-92000000D01*
X119000000Y-92000000D02*
X112000000Y-92000000D01*
X112000000Y-92000000D02*
X112000000Y-99000000D01*
X136000000Y-97000000D02*
X147000000Y-97000000D01*
X147000000Y-97000000D02*
X147000000Y-91000000D01*
X147000000Y-91000000D02*
X136000000Y-91000000D01*
X136000000Y-91000000D02*
X136000000Y-97000000D01*
X126000000Y-99000000D02*
X133000000Y-99000000D01*
X133000000Y-99000000D02*
X133000000Y-92000000D01*
X133000000Y-92000000D02*
X126000000Y-92000000D01*
X126000000Y-92000000D02*
X126000000Y-99000000D01*
X98000000Y-99000000D02*
X105000000Y-99000000D01*
X105000000Y-99000000D02*
X105000000Y-92000000D01*
X105000000Y-92000000D02*
X98000000Y-92000000D01*
X98000000Y-92000000D02*
X98000000Y-99000000D01*
X70000000Y-99000000D02*
X77000000Y-99000000D01*
X77000000Y-99000000D02*
X77000000Y-92000000D01*
X77000000Y-92000000D02*
X70000000Y-92000000D01*
X70000000Y-92000000D02*
X70000000Y-99000000D01*
X148452380Y-93404761D02*
X148452380Y-92833333D01*
X148452380Y-93119047D02*
X147452380Y-93119047D01*
X147595238Y-93023809D01*
X147690476Y-92928571D01*
X147738095Y-92833333D01*
X147452380Y-94023809D02*
X147452380Y-94119047D01*
X147500000Y-94214285D01*
X147547619Y-94261904D01*
X147642857Y-94309523D01*
X147833333Y-94357142D01*
X148071428Y-94357142D01*
X148261904Y-94309523D01*
X148357142Y-94261904D01*
X148404761Y-94214285D01*
X148452380Y-94119047D01*
X148452380Y-94023809D01*
X148404761Y-93928571D01*
X148357142Y-93880952D01*
X148261904Y-93833333D01*
X148071428Y-93785714D01*
X147833333Y-93785714D01*
X147642857Y-93833333D01*
X147547619Y-93880952D01*
X147500000Y-93928571D01*
X147452380Y-94023809D01*
X148452380Y-94785714D02*
X147452380Y-94785714D01*
X148071428Y-94880952D02*
X148452380Y-95166666D01*
X147785714Y-95166666D02*
X148166666Y-94785714D01*
X83452380Y-94904761D02*
X83452380Y-94333333D01*
X83452380Y-94619047D02*
X82452380Y-94619047D01*
X82595238Y-94523809D01*
X82690476Y-94428571D01*
X82738095Y-94333333D01*
X82452380Y-95523809D02*
X82452380Y-95619047D01*
X82500000Y-95714285D01*
X82547619Y-95761904D01*
X82642857Y-95809523D01*
X82833333Y-95857142D01*
X83071428Y-95857142D01*
X83261904Y-95809523D01*
X83357142Y-95761904D01*
X83404761Y-95714285D01*
X83452380Y-95619047D01*
X83452380Y-95523809D01*
X83404761Y-95428571D01*
X83357142Y-95380952D01*
X83261904Y-95333333D01*
X83071428Y-95285714D01*
X82833333Y-95285714D01*
X82642857Y-95333333D01*
X82547619Y-95380952D01*
X82500000Y-95428571D01*
X82452380Y-95523809D01*
X83452380Y-96285714D02*
X82452380Y-96285714D01*
X83071428Y-96380952D02*
X83452380Y-96666666D01*
X82785714Y-96666666D02*
X83166666Y-96285714D01*
X69452380Y-94404761D02*
X69452380Y-93833333D01*
X69452380Y-94119047D02*
X68452380Y-94119047D01*
X68595238Y-94023809D01*
X68690476Y-93928571D01*
X68738095Y-93833333D01*
X68452380Y-95023809D02*
X68452380Y-95119047D01*
X68500000Y-95214285D01*
X68547619Y-95261904D01*
X68642857Y-95309523D01*
X68833333Y-95357142D01*
X69071428Y-95357142D01*
X69261904Y-95309523D01*
X69357142Y-95261904D01*
X69404761Y-95214285D01*
X69452380Y-95119047D01*
X69452380Y-95023809D01*
X69404761Y-94928571D01*
X69357142Y-94880952D01*
X69261904Y-94833333D01*
X69071428Y-94785714D01*
X68833333Y-94785714D01*
X68642857Y-94833333D01*
X68547619Y-94880952D01*
X68500000Y-94928571D01*
X68452380Y-95023809D01*
X69452380Y-95785714D02*
X68452380Y-95785714D01*
X69071428Y-95880952D02*
X69452380Y-96166666D01*
X68785714Y-96166666D02*
X69166666Y-95785714D01*
X125452380Y-94904761D02*
X125452380Y-94333333D01*
X125452380Y-94619047D02*
X124452380Y-94619047D01*
X124595238Y-94523809D01*
X124690476Y-94428571D01*
X124738095Y-94333333D01*
X124452380Y-95523809D02*
X124452380Y-95619047D01*
X124500000Y-95714285D01*
X124547619Y-95761904D01*
X124642857Y-95809523D01*
X124833333Y-95857142D01*
X125071428Y-95857142D01*
X125261904Y-95809523D01*
X125357142Y-95761904D01*
X125404761Y-95714285D01*
X125452380Y-95619047D01*
X125452380Y-95523809D01*
X125404761Y-95428571D01*
X125357142Y-95380952D01*
X125261904Y-95333333D01*
X125071428Y-95285714D01*
X124833333Y-95285714D01*
X124642857Y-95333333D01*
X124547619Y-95380952D01*
X124500000Y-95428571D01*
X124452380Y-95523809D01*
X125452380Y-96285714D02*
X124452380Y-96285714D01*
X125071428Y-96380952D02*
X125452380Y-96666666D01*
X124785714Y-96666666D02*
X125166666Y-96285714D01*
X97452380Y-95404761D02*
X97452380Y-94833333D01*
X97452380Y-95119047D02*
X96452380Y-95119047D01*
X96595238Y-95023809D01*
X96690476Y-94928571D01*
X96738095Y-94833333D01*
X96452380Y-96023809D02*
X96452380Y-96119047D01*
X96500000Y-96214285D01*
X96547619Y-96261904D01*
X96642857Y-96309523D01*
X96833333Y-96357142D01*
X97071428Y-96357142D01*
X97261904Y-96309523D01*
X97357142Y-96261904D01*
X97404761Y-96214285D01*
X97452380Y-96119047D01*
X97452380Y-96023809D01*
X97404761Y-95928571D01*
X97357142Y-95880952D01*
X97261904Y-95833333D01*
X97071428Y-95785714D01*
X96833333Y-95785714D01*
X96642857Y-95833333D01*
X96547619Y-95880952D01*
X96500000Y-95928571D01*
X96452380Y-96023809D01*
X97452380Y-96785714D02*
X96452380Y-96785714D01*
X97071428Y-96880952D02*
X97452380Y-97166666D01*
X96785714Y-97166666D02*
X97166666Y-96785714D01*
X111452380Y-95404761D02*
X111452380Y-94833333D01*
X111452380Y-95119047D02*
X110452380Y-95119047D01*
X110595238Y-95023809D01*
X110690476Y-94928571D01*
X110738095Y-94833333D01*
X110452380Y-96023809D02*
X110452380Y-96119047D01*
X110500000Y-96214285D01*
X110547619Y-96261904D01*
X110642857Y-96309523D01*
X110833333Y-96357142D01*
X111071428Y-96357142D01*
X111261904Y-96309523D01*
X111357142Y-96261904D01*
X111404761Y-96214285D01*
X111452380Y-96119047D01*
X111452380Y-96023809D01*
X111404761Y-95928571D01*
X111357142Y-95880952D01*
X111261904Y-95833333D01*
X111071428Y-95785714D01*
X110833333Y-95785714D01*
X110642857Y-95833333D01*
X110547619Y-95880952D01*
X110500000Y-95928571D01*
X110452380Y-96023809D01*
X111452380Y-96785714D02*
X110452380Y-96785714D01*
X111071428Y-96880952D02*
X111452380Y-97166666D01*
X110785714Y-97166666D02*
X111166666Y-96785714D01*
D11*
X117785714Y-151506428D02*
X117714285Y-151435000D01*
X117571428Y-151363571D01*
X117214285Y-151363571D01*
X117071428Y-151435000D01*
X117000000Y-151506428D01*
X116928571Y-151649285D01*
X116928571Y-151792142D01*
X117000000Y-152006428D01*
X117857142Y-152863571D01*
X116928571Y-152863571D01*
X116000000Y-151363571D02*
X115857142Y-151363571D01*
X115714285Y-151435000D01*
X115642857Y-151506428D01*
X115571428Y-151649285D01*
X115500000Y-151935000D01*
X115500000Y-152292142D01*
X115571428Y-152577857D01*
X115642857Y-152720714D01*
X115714285Y-152792142D01*
X115857142Y-152863571D01*
X116000000Y-152863571D01*
X116142857Y-152792142D01*
X116214285Y-152720714D01*
X116285714Y-152577857D01*
X116357142Y-152292142D01*
X116357142Y-151935000D01*
X116285714Y-151649285D01*
X116214285Y-151506428D01*
X116142857Y-151435000D01*
X116000000Y-151363571D01*
X114928571Y-151506428D02*
X114857142Y-151435000D01*
X114714285Y-151363571D01*
X114357142Y-151363571D01*
X114214285Y-151435000D01*
X114142857Y-151506428D01*
X114071428Y-151649285D01*
X114071428Y-151792142D01*
X114142857Y-152006428D01*
X115000000Y-152863571D01*
X114071428Y-152863571D01*
X113571428Y-151363571D02*
X112642857Y-151363571D01*
X113142857Y-151935000D01*
X112928571Y-151935000D01*
X112785714Y-152006428D01*
X112714285Y-152077857D01*
X112642857Y-152220714D01*
X112642857Y-152577857D01*
X112714285Y-152720714D01*
X112785714Y-152792142D01*
X112928571Y-152863571D01*
X113357142Y-152863571D01*
X113500000Y-152792142D01*
X113571428Y-152720714D01*
X110642857Y-151649285D02*
X110000000Y-151649285D01*
X110000000Y-152149285D02*
X108785714Y-152149285D01*
X110285714Y-151149285D02*
X110285714Y-152863571D01*
X110357142Y-151577857D02*
X110142857Y-152006428D01*
X109142857Y-152006428D02*
X108928571Y-152077857D01*
X109857142Y-152363571D02*
X109500000Y-152506428D01*
X109000000Y-152363571D02*
X109285714Y-152720714D01*
X109642857Y-152863571D01*
X110285714Y-151506428D02*
X110571428Y-152363571D01*
X109785714Y-152149285D02*
X110000000Y-152792142D01*
X109785714Y-151220714D02*
X109928571Y-151506428D01*
X109785714Y-151649285D01*
X109571428Y-151435000D02*
X109928571Y-151935000D01*
X109571428Y-151863571D01*
X109642857Y-151792142D02*
X109571428Y-151935000D01*
X109071428Y-151220714D02*
X109214285Y-151506428D01*
X109071428Y-151649285D01*
X108928571Y-151435000D02*
X109214285Y-151935000D01*
X108928571Y-151863571D01*
X108928571Y-151792142D02*
X108857142Y-151935000D01*
X109357142Y-151149285D02*
X109357142Y-151863571D01*
X109214285Y-152720714D01*
X109000000Y-152863571D01*
X108785714Y-152863571D01*
X108714285Y-152649285D01*
X107714285Y-151363571D02*
X106642857Y-151363571D01*
X107642857Y-151577857D02*
X106642857Y-151577857D01*
X108428571Y-151577857D02*
X107785714Y-151577857D01*
X107714285Y-151792142D02*
X106571428Y-151792142D01*
X107642857Y-152292142D02*
X106714285Y-152292142D01*
X107785714Y-152577857D02*
X106571428Y-152577857D01*
X107000000Y-152863571D02*
X106714285Y-152863571D01*
X108071428Y-151149285D02*
X108071428Y-152863571D01*
X107642857Y-152077857D02*
X107642857Y-152863571D01*
X107428571Y-151149285D02*
X107428571Y-151792142D01*
X107214285Y-151792142D02*
X107214285Y-152506428D01*
X106928571Y-151149285D02*
X106928571Y-151792142D01*
X107642857Y-152077857D02*
X106714285Y-152077857D01*
X106714285Y-152863571D01*
X108071428Y-151863571D02*
X107857142Y-152077857D01*
X108071428Y-151506428D02*
X108285714Y-152363571D01*
X106142857Y-151435000D02*
X104428571Y-151435000D01*
X105714285Y-151649285D02*
X104785714Y-151649285D01*
X105714285Y-151935000D02*
X104785714Y-151935000D01*
X106214285Y-152149285D02*
X104357142Y-152149285D01*
X105785714Y-152506428D02*
X104785714Y-152506428D01*
X106071428Y-152863571D02*
X104500000Y-152863571D01*
X105285714Y-152292142D02*
X105285714Y-152863571D01*
X105714285Y-151149285D02*
X105714285Y-152149285D01*
X106071428Y-152577857D01*
X104785714Y-151149285D02*
X104785714Y-152149285D01*
X104642857Y-152435000D01*
X104285714Y-152577857D01*
X103142857Y-151292142D02*
X102214285Y-151292142D01*
X103928571Y-151577857D02*
X103285714Y-151577857D01*
X103571428Y-151149285D02*
X103571428Y-152863571D01*
X103571428Y-151863571D02*
X103285714Y-152149285D01*
X103000000Y-151792142D02*
X102714285Y-152435000D01*
X102357142Y-152720714D01*
X102142857Y-152863571D01*
X103642857Y-151649285D02*
X104000000Y-152435000D01*
X103142857Y-151792142D02*
X102214285Y-151792142D01*
X102500000Y-152363571D01*
X102785714Y-152720714D01*
X103071428Y-152863571D01*
X103142857Y-151292142D02*
X103142857Y-152149285D01*
X103214285Y-152720714D01*
X115285714Y-155278571D02*
X116142857Y-155278571D01*
X115714285Y-155278571D02*
X115714285Y-153778571D01*
X115857142Y-153992857D01*
X116000000Y-154135714D01*
X116142857Y-154207142D01*
X114714285Y-153921428D02*
X114642857Y-153850000D01*
X114500000Y-153778571D01*
X114142857Y-153778571D01*
X114000000Y-153850000D01*
X113928571Y-153921428D01*
X113857142Y-154064285D01*
X113857142Y-154207142D01*
X113928571Y-154421428D01*
X114785714Y-155278571D01*
X113857142Y-155278571D01*
X112142857Y-153707142D02*
X113428571Y-155635714D01*
X111785714Y-153778571D02*
X110857142Y-153778571D01*
X111357142Y-154350000D01*
X111142857Y-154350000D01*
X111000000Y-154421428D01*
X110928571Y-154492857D01*
X110857142Y-154635714D01*
X110857142Y-154992857D01*
X110928571Y-155135714D01*
X111000000Y-155207142D01*
X111142857Y-155278571D01*
X111571428Y-155278571D01*
X111714285Y-155207142D01*
X111785714Y-155135714D01*
X109928571Y-153778571D02*
X109785714Y-153778571D01*
X109642857Y-153850000D01*
X109571428Y-153921428D01*
X109500000Y-154064285D01*
X109428571Y-154350000D01*
X109428571Y-154707142D01*
X109500000Y-154992857D01*
X109571428Y-155135714D01*
X109642857Y-155207142D01*
X109785714Y-155278571D01*
X109928571Y-155278571D01*
X110071428Y-155207142D01*
X110142857Y-155135714D01*
X110214285Y-154992857D01*
X110285714Y-154707142D01*
X110285714Y-154350000D01*
X110214285Y-154064285D01*
X110142857Y-153921428D01*
X110071428Y-153850000D01*
X109928571Y-153778571D01*
X107142857Y-154064285D02*
X106000000Y-154064285D01*
X107857142Y-154064285D02*
X107285714Y-154064285D01*
X106928571Y-154635714D02*
X106000000Y-154635714D01*
X106928571Y-155207142D02*
X106000000Y-155207142D01*
X107571428Y-153635714D02*
X107571428Y-154778571D01*
X106928571Y-154778571D02*
X106928571Y-155278571D01*
X106928571Y-154278571D02*
X106928571Y-154635714D01*
X106500000Y-154135714D02*
X106500000Y-155207142D01*
X106000000Y-154278571D02*
X106000000Y-154635714D01*
X107142857Y-153635714D02*
X106000000Y-153635714D01*
X106000000Y-154064285D01*
X106000000Y-154778571D02*
X106000000Y-155278571D01*
X107285714Y-154707142D02*
X107857142Y-154850000D01*
X107142857Y-153635714D02*
X107142857Y-154564285D01*
X107214285Y-155064285D01*
X105571428Y-154064285D02*
X104714285Y-154064285D01*
X105571428Y-154350000D02*
X104714285Y-154350000D01*
X105571428Y-154707142D02*
X104714285Y-154707142D01*
X104571428Y-155278571D02*
X104285714Y-155278571D01*
X105571428Y-153707142D02*
X105571428Y-154350000D01*
X105142857Y-153707142D02*
X105142857Y-155135714D01*
X105571428Y-153707142D02*
X104714285Y-153707142D01*
X104714285Y-154350000D01*
X104214285Y-154350000D02*
X104214285Y-155278571D01*
X104357142Y-153992857D02*
X104000000Y-154278571D01*
X104571428Y-153707142D02*
X103857142Y-153707142D01*
X104214285Y-154064285D01*
X104642857Y-154350000D02*
X103785714Y-154350000D01*
X104000000Y-154707142D01*
X104714285Y-155064285D02*
X105642857Y-155207142D01*
X112535714Y-156693571D02*
X112178571Y-157693571D01*
X111821428Y-156693571D01*
X110678571Y-157622142D02*
X110821428Y-157693571D01*
X111107142Y-157693571D01*
X111250000Y-157622142D01*
X111321428Y-157479285D01*
X111321428Y-156907857D01*
X111250000Y-156765000D01*
X111107142Y-156693571D01*
X110821428Y-156693571D01*
X110678571Y-156765000D01*
X110607142Y-156907857D01*
X110607142Y-157050714D01*
X111321428Y-157193571D01*
X109964285Y-157693571D02*
X109964285Y-156693571D01*
X109964285Y-156979285D02*
X109892857Y-156836428D01*
X109821428Y-156765000D01*
X109678571Y-156693571D01*
X109535714Y-156693571D01*
X109035714Y-157550714D02*
X108964285Y-157622142D01*
X109035714Y-157693571D01*
X109107142Y-157622142D01*
X109035714Y-157550714D01*
X109035714Y-157693571D01*
X107535714Y-157693571D02*
X108392857Y-157693571D01*
X107964285Y-157693571D02*
X107964285Y-156193571D01*
X108107142Y-156407857D01*
X108250000Y-156550714D01*
X108392857Y-156622142D01*
D10*
%TO.C,R48*%
X142242857Y-92452380D02*
X142576190Y-91976190D01*
X142814285Y-92452380D02*
X142814285Y-91452380D01*
X142433333Y-91452380D01*
X142338095Y-91500000D01*
X142290476Y-91547619D01*
X142242857Y-91642857D01*
X142242857Y-91785714D01*
X142290476Y-91880952D01*
X142338095Y-91928571D01*
X142433333Y-91976190D01*
X142814285Y-91976190D01*
X141385714Y-91785714D02*
X141385714Y-92452380D01*
X141623809Y-91404761D02*
X141861904Y-92119047D01*
X141242857Y-92119047D01*
X140719047Y-91880952D02*
X140814285Y-91833333D01*
X140861904Y-91785714D01*
X140909523Y-91690476D01*
X140909523Y-91642857D01*
X140861904Y-91547619D01*
X140814285Y-91500000D01*
X140719047Y-91452380D01*
X140528571Y-91452380D01*
X140433333Y-91500000D01*
X140385714Y-91547619D01*
X140338095Y-91642857D01*
X140338095Y-91690476D01*
X140385714Y-91785714D01*
X140433333Y-91833333D01*
X140528571Y-91880952D01*
X140719047Y-91880952D01*
X140814285Y-91928571D01*
X140861904Y-91976190D01*
X140909523Y-92071428D01*
X140909523Y-92261904D01*
X140861904Y-92357142D01*
X140814285Y-92404761D01*
X140719047Y-92452380D01*
X140528571Y-92452380D01*
X140433333Y-92404761D01*
X140385714Y-92357142D01*
X140338095Y-92261904D01*
X140338095Y-92071428D01*
X140385714Y-91976190D01*
X140433333Y-91928571D01*
X140528571Y-91880952D01*
%TO.C,R47*%
X130052380Y-96657142D02*
X129576190Y-96323809D01*
X130052380Y-96085714D02*
X129052380Y-96085714D01*
X129052380Y-96466666D01*
X129100000Y-96561904D01*
X129147619Y-96609523D01*
X129242857Y-96657142D01*
X129385714Y-96657142D01*
X129480952Y-96609523D01*
X129528571Y-96561904D01*
X129576190Y-96466666D01*
X129576190Y-96085714D01*
X129385714Y-97514285D02*
X130052380Y-97514285D01*
X129004761Y-97276190D02*
X129719047Y-97038095D01*
X129719047Y-97657142D01*
X129052380Y-97942857D02*
X129052380Y-98609523D01*
X130052380Y-98180952D01*
%TO.C,Q9*%
X109437619Y-75954761D02*
X109390000Y-75859523D01*
X109294761Y-75764285D01*
X109151904Y-75621428D01*
X109104285Y-75526190D01*
X109104285Y-75430952D01*
X109342380Y-75478571D02*
X109294761Y-75383333D01*
X109199523Y-75288095D01*
X109009047Y-75240476D01*
X108675714Y-75240476D01*
X108485238Y-75288095D01*
X108390000Y-75383333D01*
X108342380Y-75478571D01*
X108342380Y-75669047D01*
X108390000Y-75764285D01*
X108485238Y-75859523D01*
X108675714Y-75907142D01*
X109009047Y-75907142D01*
X109199523Y-75859523D01*
X109294761Y-75764285D01*
X109342380Y-75669047D01*
X109342380Y-75478571D01*
X109342380Y-76383333D02*
X109342380Y-76573809D01*
X109294761Y-76669047D01*
X109247142Y-76716666D01*
X109104285Y-76811904D01*
X108913809Y-76859523D01*
X108532857Y-76859523D01*
X108437619Y-76811904D01*
X108390000Y-76764285D01*
X108342380Y-76669047D01*
X108342380Y-76478571D01*
X108390000Y-76383333D01*
X108437619Y-76335714D01*
X108532857Y-76288095D01*
X108770952Y-76288095D01*
X108866190Y-76335714D01*
X108913809Y-76383333D01*
X108961428Y-76478571D01*
X108961428Y-76669047D01*
X108913809Y-76764285D01*
X108866190Y-76811904D01*
X108770952Y-76859523D01*
%TO.C,R50*%
X85652380Y-96757142D02*
X85176190Y-96423809D01*
X85652380Y-96185714D02*
X84652380Y-96185714D01*
X84652380Y-96566666D01*
X84700000Y-96661904D01*
X84747619Y-96709523D01*
X84842857Y-96757142D01*
X84985714Y-96757142D01*
X85080952Y-96709523D01*
X85128571Y-96661904D01*
X85176190Y-96566666D01*
X85176190Y-96185714D01*
X84652380Y-97661904D02*
X84652380Y-97185714D01*
X85128571Y-97138095D01*
X85080952Y-97185714D01*
X85033333Y-97280952D01*
X85033333Y-97519047D01*
X85080952Y-97614285D01*
X85128571Y-97661904D01*
X85223809Y-97709523D01*
X85461904Y-97709523D01*
X85557142Y-97661904D01*
X85604761Y-97614285D01*
X85652380Y-97519047D01*
X85652380Y-97280952D01*
X85604761Y-97185714D01*
X85557142Y-97138095D01*
X84652380Y-98328571D02*
X84652380Y-98423809D01*
X84700000Y-98519047D01*
X84747619Y-98566666D01*
X84842857Y-98614285D01*
X85033333Y-98661904D01*
X85271428Y-98661904D01*
X85461904Y-98614285D01*
X85557142Y-98566666D01*
X85604761Y-98519047D01*
X85652380Y-98423809D01*
X85652380Y-98328571D01*
X85604761Y-98233333D01*
X85557142Y-98185714D01*
X85461904Y-98138095D01*
X85271428Y-98090476D01*
X85033333Y-98090476D01*
X84842857Y-98138095D01*
X84747619Y-98185714D01*
X84700000Y-98233333D01*
X84652380Y-98328571D01*
%TO.C,R53*%
X127752380Y-96657142D02*
X127276190Y-96323809D01*
X127752380Y-96085714D02*
X126752380Y-96085714D01*
X126752380Y-96466666D01*
X126800000Y-96561904D01*
X126847619Y-96609523D01*
X126942857Y-96657142D01*
X127085714Y-96657142D01*
X127180952Y-96609523D01*
X127228571Y-96561904D01*
X127276190Y-96466666D01*
X127276190Y-96085714D01*
X126752380Y-97561904D02*
X126752380Y-97085714D01*
X127228571Y-97038095D01*
X127180952Y-97085714D01*
X127133333Y-97180952D01*
X127133333Y-97419047D01*
X127180952Y-97514285D01*
X127228571Y-97561904D01*
X127323809Y-97609523D01*
X127561904Y-97609523D01*
X127657142Y-97561904D01*
X127704761Y-97514285D01*
X127752380Y-97419047D01*
X127752380Y-97180952D01*
X127704761Y-97085714D01*
X127657142Y-97038095D01*
X126752380Y-97942857D02*
X126752380Y-98561904D01*
X127133333Y-98228571D01*
X127133333Y-98371428D01*
X127180952Y-98466666D01*
X127228571Y-98514285D01*
X127323809Y-98561904D01*
X127561904Y-98561904D01*
X127657142Y-98514285D01*
X127704761Y-98466666D01*
X127752380Y-98371428D01*
X127752380Y-98085714D01*
X127704761Y-97990476D01*
X127657142Y-97942857D01*
%TO.C,R44*%
X88052380Y-96657142D02*
X87576190Y-96323809D01*
X88052380Y-96085714D02*
X87052380Y-96085714D01*
X87052380Y-96466666D01*
X87100000Y-96561904D01*
X87147619Y-96609523D01*
X87242857Y-96657142D01*
X87385714Y-96657142D01*
X87480952Y-96609523D01*
X87528571Y-96561904D01*
X87576190Y-96466666D01*
X87576190Y-96085714D01*
X87385714Y-97514285D02*
X88052380Y-97514285D01*
X87004761Y-97276190D02*
X87719047Y-97038095D01*
X87719047Y-97657142D01*
X87385714Y-98466666D02*
X88052380Y-98466666D01*
X87004761Y-98228571D02*
X87719047Y-97990476D01*
X87719047Y-98609523D01*
%TO.C,Q8*%
X95937619Y-75954761D02*
X95890000Y-75859523D01*
X95794761Y-75764285D01*
X95651904Y-75621428D01*
X95604285Y-75526190D01*
X95604285Y-75430952D01*
X95842380Y-75478571D02*
X95794761Y-75383333D01*
X95699523Y-75288095D01*
X95509047Y-75240476D01*
X95175714Y-75240476D01*
X94985238Y-75288095D01*
X94890000Y-75383333D01*
X94842380Y-75478571D01*
X94842380Y-75669047D01*
X94890000Y-75764285D01*
X94985238Y-75859523D01*
X95175714Y-75907142D01*
X95509047Y-75907142D01*
X95699523Y-75859523D01*
X95794761Y-75764285D01*
X95842380Y-75669047D01*
X95842380Y-75478571D01*
X95270952Y-76478571D02*
X95223333Y-76383333D01*
X95175714Y-76335714D01*
X95080476Y-76288095D01*
X95032857Y-76288095D01*
X94937619Y-76335714D01*
X94890000Y-76383333D01*
X94842380Y-76478571D01*
X94842380Y-76669047D01*
X94890000Y-76764285D01*
X94937619Y-76811904D01*
X95032857Y-76859523D01*
X95080476Y-76859523D01*
X95175714Y-76811904D01*
X95223333Y-76764285D01*
X95270952Y-76669047D01*
X95270952Y-76478571D01*
X95318571Y-76383333D01*
X95366190Y-76335714D01*
X95461428Y-76288095D01*
X95651904Y-76288095D01*
X95747142Y-76335714D01*
X95794761Y-76383333D01*
X95842380Y-76478571D01*
X95842380Y-76669047D01*
X95794761Y-76764285D01*
X95747142Y-76811904D01*
X95651904Y-76859523D01*
X95461428Y-76859523D01*
X95366190Y-76811904D01*
X95318571Y-76764285D01*
X95270952Y-76669047D01*
%TO.C,Q4*%
X114937619Y-75954761D02*
X114890000Y-75859523D01*
X114794761Y-75764285D01*
X114651904Y-75621428D01*
X114604285Y-75526190D01*
X114604285Y-75430952D01*
X114842380Y-75478571D02*
X114794761Y-75383333D01*
X114699523Y-75288095D01*
X114509047Y-75240476D01*
X114175714Y-75240476D01*
X113985238Y-75288095D01*
X113890000Y-75383333D01*
X113842380Y-75478571D01*
X113842380Y-75669047D01*
X113890000Y-75764285D01*
X113985238Y-75859523D01*
X114175714Y-75907142D01*
X114509047Y-75907142D01*
X114699523Y-75859523D01*
X114794761Y-75764285D01*
X114842380Y-75669047D01*
X114842380Y-75478571D01*
X114175714Y-76764285D02*
X114842380Y-76764285D01*
X113794761Y-76526190D02*
X114509047Y-76288095D01*
X114509047Y-76907142D01*
%TO.C,R41*%
X132452380Y-96757142D02*
X131976190Y-96423809D01*
X132452380Y-96185714D02*
X131452380Y-96185714D01*
X131452380Y-96566666D01*
X131500000Y-96661904D01*
X131547619Y-96709523D01*
X131642857Y-96757142D01*
X131785714Y-96757142D01*
X131880952Y-96709523D01*
X131928571Y-96661904D01*
X131976190Y-96566666D01*
X131976190Y-96185714D01*
X131785714Y-97614285D02*
X132452380Y-97614285D01*
X131404761Y-97376190D02*
X132119047Y-97138095D01*
X132119047Y-97757142D01*
X132452380Y-98661904D02*
X132452380Y-98090476D01*
X132452380Y-98376190D02*
X131452380Y-98376190D01*
X131595238Y-98280952D01*
X131690476Y-98185714D01*
X131738095Y-98090476D01*
%TO.C,Q12*%
X149987619Y-75328571D02*
X149940000Y-75233333D01*
X149844761Y-75138095D01*
X149701904Y-74995238D01*
X149654285Y-74900000D01*
X149654285Y-74804761D01*
X149892380Y-74852380D02*
X149844761Y-74757142D01*
X149749523Y-74661904D01*
X149559047Y-74614285D01*
X149225714Y-74614285D01*
X149035238Y-74661904D01*
X148940000Y-74757142D01*
X148892380Y-74852380D01*
X148892380Y-75042857D01*
X148940000Y-75138095D01*
X149035238Y-75233333D01*
X149225714Y-75280952D01*
X149559047Y-75280952D01*
X149749523Y-75233333D01*
X149844761Y-75138095D01*
X149892380Y-75042857D01*
X149892380Y-74852380D01*
X149892380Y-76233333D02*
X149892380Y-75661904D01*
X149892380Y-75947619D02*
X148892380Y-75947619D01*
X149035238Y-75852380D01*
X149130476Y-75757142D01*
X149178095Y-75661904D01*
X148987619Y-76614285D02*
X148940000Y-76661904D01*
X148892380Y-76757142D01*
X148892380Y-76995238D01*
X148940000Y-77090476D01*
X148987619Y-77138095D01*
X149082857Y-77185714D01*
X149178095Y-77185714D01*
X149320952Y-77138095D01*
X149892380Y-76566666D01*
X149892380Y-77185714D01*
%TO.C,Q1*%
X74437619Y-75954761D02*
X74390000Y-75859523D01*
X74294761Y-75764285D01*
X74151904Y-75621428D01*
X74104285Y-75526190D01*
X74104285Y-75430952D01*
X74342380Y-75478571D02*
X74294761Y-75383333D01*
X74199523Y-75288095D01*
X74009047Y-75240476D01*
X73675714Y-75240476D01*
X73485238Y-75288095D01*
X73390000Y-75383333D01*
X73342380Y-75478571D01*
X73342380Y-75669047D01*
X73390000Y-75764285D01*
X73485238Y-75859523D01*
X73675714Y-75907142D01*
X74009047Y-75907142D01*
X74199523Y-75859523D01*
X74294761Y-75764285D01*
X74342380Y-75669047D01*
X74342380Y-75478571D01*
X74342380Y-76859523D02*
X74342380Y-76288095D01*
X74342380Y-76573809D02*
X73342380Y-76573809D01*
X73485238Y-76478571D01*
X73580476Y-76383333D01*
X73628095Y-76288095D01*
%TO.C,R54*%
X138052380Y-93757142D02*
X137576190Y-93423809D01*
X138052380Y-93185714D02*
X137052380Y-93185714D01*
X137052380Y-93566666D01*
X137100000Y-93661904D01*
X137147619Y-93709523D01*
X137242857Y-93757142D01*
X137385714Y-93757142D01*
X137480952Y-93709523D01*
X137528571Y-93661904D01*
X137576190Y-93566666D01*
X137576190Y-93185714D01*
X137052380Y-94661904D02*
X137052380Y-94185714D01*
X137528571Y-94138095D01*
X137480952Y-94185714D01*
X137433333Y-94280952D01*
X137433333Y-94519047D01*
X137480952Y-94614285D01*
X137528571Y-94661904D01*
X137623809Y-94709523D01*
X137861904Y-94709523D01*
X137957142Y-94661904D01*
X138004761Y-94614285D01*
X138052380Y-94519047D01*
X138052380Y-94280952D01*
X138004761Y-94185714D01*
X137957142Y-94138095D01*
X137385714Y-95566666D02*
X138052380Y-95566666D01*
X137004761Y-95328571D02*
X137719047Y-95090476D01*
X137719047Y-95709523D01*
%TO.C,Q7*%
X82437619Y-75954761D02*
X82390000Y-75859523D01*
X82294761Y-75764285D01*
X82151904Y-75621428D01*
X82104285Y-75526190D01*
X82104285Y-75430952D01*
X82342380Y-75478571D02*
X82294761Y-75383333D01*
X82199523Y-75288095D01*
X82009047Y-75240476D01*
X81675714Y-75240476D01*
X81485238Y-75288095D01*
X81390000Y-75383333D01*
X81342380Y-75478571D01*
X81342380Y-75669047D01*
X81390000Y-75764285D01*
X81485238Y-75859523D01*
X81675714Y-75907142D01*
X82009047Y-75907142D01*
X82199523Y-75859523D01*
X82294761Y-75764285D01*
X82342380Y-75669047D01*
X82342380Y-75478571D01*
X81342380Y-76240476D02*
X81342380Y-76907142D01*
X82342380Y-76478571D01*
%TO.C,Q6*%
X141937619Y-75954761D02*
X141890000Y-75859523D01*
X141794761Y-75764285D01*
X141651904Y-75621428D01*
X141604285Y-75526190D01*
X141604285Y-75430952D01*
X141842380Y-75478571D02*
X141794761Y-75383333D01*
X141699523Y-75288095D01*
X141509047Y-75240476D01*
X141175714Y-75240476D01*
X140985238Y-75288095D01*
X140890000Y-75383333D01*
X140842380Y-75478571D01*
X140842380Y-75669047D01*
X140890000Y-75764285D01*
X140985238Y-75859523D01*
X141175714Y-75907142D01*
X141509047Y-75907142D01*
X141699523Y-75859523D01*
X141794761Y-75764285D01*
X141842380Y-75669047D01*
X141842380Y-75478571D01*
X140842380Y-76764285D02*
X140842380Y-76573809D01*
X140890000Y-76478571D01*
X140937619Y-76430952D01*
X141080476Y-76335714D01*
X141270952Y-76288095D01*
X141651904Y-76288095D01*
X141747142Y-76335714D01*
X141794761Y-76383333D01*
X141842380Y-76478571D01*
X141842380Y-76669047D01*
X141794761Y-76764285D01*
X141747142Y-76811904D01*
X141651904Y-76859523D01*
X141413809Y-76859523D01*
X141318571Y-76811904D01*
X141270952Y-76764285D01*
X141223333Y-76669047D01*
X141223333Y-76478571D01*
X141270952Y-76383333D01*
X141318571Y-76335714D01*
X141413809Y-76288095D01*
%TO.C,Q3*%
X101437619Y-75954761D02*
X101390000Y-75859523D01*
X101294761Y-75764285D01*
X101151904Y-75621428D01*
X101104285Y-75526190D01*
X101104285Y-75430952D01*
X101342380Y-75478571D02*
X101294761Y-75383333D01*
X101199523Y-75288095D01*
X101009047Y-75240476D01*
X100675714Y-75240476D01*
X100485238Y-75288095D01*
X100390000Y-75383333D01*
X100342380Y-75478571D01*
X100342380Y-75669047D01*
X100390000Y-75764285D01*
X100485238Y-75859523D01*
X100675714Y-75907142D01*
X101009047Y-75907142D01*
X101199523Y-75859523D01*
X101294761Y-75764285D01*
X101342380Y-75669047D01*
X101342380Y-75478571D01*
X100342380Y-76240476D02*
X100342380Y-76859523D01*
X100723333Y-76526190D01*
X100723333Y-76669047D01*
X100770952Y-76764285D01*
X100818571Y-76811904D01*
X100913809Y-76859523D01*
X101151904Y-76859523D01*
X101247142Y-76811904D01*
X101294761Y-76764285D01*
X101342380Y-76669047D01*
X101342380Y-76383333D01*
X101294761Y-76288095D01*
X101247142Y-76240476D01*
%TO.C,Q2*%
X87937619Y-75954761D02*
X87890000Y-75859523D01*
X87794761Y-75764285D01*
X87651904Y-75621428D01*
X87604285Y-75526190D01*
X87604285Y-75430952D01*
X87842380Y-75478571D02*
X87794761Y-75383333D01*
X87699523Y-75288095D01*
X87509047Y-75240476D01*
X87175714Y-75240476D01*
X86985238Y-75288095D01*
X86890000Y-75383333D01*
X86842380Y-75478571D01*
X86842380Y-75669047D01*
X86890000Y-75764285D01*
X86985238Y-75859523D01*
X87175714Y-75907142D01*
X87509047Y-75907142D01*
X87699523Y-75859523D01*
X87794761Y-75764285D01*
X87842380Y-75669047D01*
X87842380Y-75478571D01*
X86937619Y-76288095D02*
X86890000Y-76335714D01*
X86842380Y-76430952D01*
X86842380Y-76669047D01*
X86890000Y-76764285D01*
X86937619Y-76811904D01*
X87032857Y-76859523D01*
X87128095Y-76859523D01*
X87270952Y-76811904D01*
X87842380Y-76240476D01*
X87842380Y-76859523D01*
%TO.C,R45*%
X102052380Y-96757142D02*
X101576190Y-96423809D01*
X102052380Y-96185714D02*
X101052380Y-96185714D01*
X101052380Y-96566666D01*
X101100000Y-96661904D01*
X101147619Y-96709523D01*
X101242857Y-96757142D01*
X101385714Y-96757142D01*
X101480952Y-96709523D01*
X101528571Y-96661904D01*
X101576190Y-96566666D01*
X101576190Y-96185714D01*
X101385714Y-97614285D02*
X102052380Y-97614285D01*
X101004761Y-97376190D02*
X101719047Y-97138095D01*
X101719047Y-97757142D01*
X101052380Y-98614285D02*
X101052380Y-98138095D01*
X101528571Y-98090476D01*
X101480952Y-98138095D01*
X101433333Y-98233333D01*
X101433333Y-98471428D01*
X101480952Y-98566666D01*
X101528571Y-98614285D01*
X101623809Y-98661904D01*
X101861904Y-98661904D01*
X101957142Y-98614285D01*
X102004761Y-98566666D01*
X102052380Y-98471428D01*
X102052380Y-98233333D01*
X102004761Y-98138095D01*
X101957142Y-98090476D01*
%TO.C,R40*%
X118752380Y-96757142D02*
X118276190Y-96423809D01*
X118752380Y-96185714D02*
X117752380Y-96185714D01*
X117752380Y-96566666D01*
X117800000Y-96661904D01*
X117847619Y-96709523D01*
X117942857Y-96757142D01*
X118085714Y-96757142D01*
X118180952Y-96709523D01*
X118228571Y-96661904D01*
X118276190Y-96566666D01*
X118276190Y-96185714D01*
X118085714Y-97614285D02*
X118752380Y-97614285D01*
X117704761Y-97376190D02*
X118419047Y-97138095D01*
X118419047Y-97757142D01*
X117752380Y-98328571D02*
X117752380Y-98423809D01*
X117800000Y-98519047D01*
X117847619Y-98566666D01*
X117942857Y-98614285D01*
X118133333Y-98661904D01*
X118371428Y-98661904D01*
X118561904Y-98614285D01*
X118657142Y-98566666D01*
X118704761Y-98519047D01*
X118752380Y-98423809D01*
X118752380Y-98328571D01*
X118704761Y-98233333D01*
X118657142Y-98185714D01*
X118561904Y-98138095D01*
X118371428Y-98090476D01*
X118133333Y-98090476D01*
X117942857Y-98138095D01*
X117847619Y-98185714D01*
X117800000Y-98233333D01*
X117752380Y-98328571D01*
%TO.C,R38*%
X90252380Y-96757142D02*
X89776190Y-96423809D01*
X90252380Y-96185714D02*
X89252380Y-96185714D01*
X89252380Y-96566666D01*
X89300000Y-96661904D01*
X89347619Y-96709523D01*
X89442857Y-96757142D01*
X89585714Y-96757142D01*
X89680952Y-96709523D01*
X89728571Y-96661904D01*
X89776190Y-96566666D01*
X89776190Y-96185714D01*
X89252380Y-97090476D02*
X89252380Y-97709523D01*
X89633333Y-97376190D01*
X89633333Y-97519047D01*
X89680952Y-97614285D01*
X89728571Y-97661904D01*
X89823809Y-97709523D01*
X90061904Y-97709523D01*
X90157142Y-97661904D01*
X90204761Y-97614285D01*
X90252380Y-97519047D01*
X90252380Y-97233333D01*
X90204761Y-97138095D01*
X90157142Y-97090476D01*
X89680952Y-98280952D02*
X89633333Y-98185714D01*
X89585714Y-98138095D01*
X89490476Y-98090476D01*
X89442857Y-98090476D01*
X89347619Y-98138095D01*
X89300000Y-98185714D01*
X89252380Y-98280952D01*
X89252380Y-98471428D01*
X89300000Y-98566666D01*
X89347619Y-98614285D01*
X89442857Y-98661904D01*
X89490476Y-98661904D01*
X89585714Y-98614285D01*
X89633333Y-98566666D01*
X89680952Y-98471428D01*
X89680952Y-98280952D01*
X89728571Y-98185714D01*
X89776190Y-98138095D01*
X89871428Y-98090476D01*
X90061904Y-98090476D01*
X90157142Y-98138095D01*
X90204761Y-98185714D01*
X90252380Y-98280952D01*
X90252380Y-98471428D01*
X90204761Y-98566666D01*
X90157142Y-98614285D01*
X90061904Y-98661904D01*
X89871428Y-98661904D01*
X89776190Y-98614285D01*
X89728571Y-98566666D01*
X89680952Y-98471428D01*
%TO.C,R37*%
X76652380Y-96657142D02*
X76176190Y-96323809D01*
X76652380Y-96085714D02*
X75652380Y-96085714D01*
X75652380Y-96466666D01*
X75700000Y-96561904D01*
X75747619Y-96609523D01*
X75842857Y-96657142D01*
X75985714Y-96657142D01*
X76080952Y-96609523D01*
X76128571Y-96561904D01*
X76176190Y-96466666D01*
X76176190Y-96085714D01*
X75652380Y-96990476D02*
X75652380Y-97609523D01*
X76033333Y-97276190D01*
X76033333Y-97419047D01*
X76080952Y-97514285D01*
X76128571Y-97561904D01*
X76223809Y-97609523D01*
X76461904Y-97609523D01*
X76557142Y-97561904D01*
X76604761Y-97514285D01*
X76652380Y-97419047D01*
X76652380Y-97133333D01*
X76604761Y-97038095D01*
X76557142Y-96990476D01*
X75652380Y-97942857D02*
X75652380Y-98609523D01*
X76652380Y-98180952D01*
%TO.C,R42*%
X146022380Y-93694642D02*
X145546190Y-93361309D01*
X146022380Y-93123214D02*
X145022380Y-93123214D01*
X145022380Y-93504166D01*
X145070000Y-93599404D01*
X145117619Y-93647023D01*
X145212857Y-93694642D01*
X145355714Y-93694642D01*
X145450952Y-93647023D01*
X145498571Y-93599404D01*
X145546190Y-93504166D01*
X145546190Y-93123214D01*
X145355714Y-94551785D02*
X146022380Y-94551785D01*
X144974761Y-94313690D02*
X145689047Y-94075595D01*
X145689047Y-94694642D01*
X145117619Y-95027976D02*
X145070000Y-95075595D01*
X145022380Y-95170833D01*
X145022380Y-95408928D01*
X145070000Y-95504166D01*
X145117619Y-95551785D01*
X145212857Y-95599404D01*
X145308095Y-95599404D01*
X145450952Y-95551785D01*
X146022380Y-94980357D01*
X146022380Y-95599404D01*
%TO.C,Q10*%
X122937619Y-75478571D02*
X122890000Y-75383333D01*
X122794761Y-75288095D01*
X122651904Y-75145238D01*
X122604285Y-75050000D01*
X122604285Y-74954761D01*
X122842380Y-75002380D02*
X122794761Y-74907142D01*
X122699523Y-74811904D01*
X122509047Y-74764285D01*
X122175714Y-74764285D01*
X121985238Y-74811904D01*
X121890000Y-74907142D01*
X121842380Y-75002380D01*
X121842380Y-75192857D01*
X121890000Y-75288095D01*
X121985238Y-75383333D01*
X122175714Y-75430952D01*
X122509047Y-75430952D01*
X122699523Y-75383333D01*
X122794761Y-75288095D01*
X122842380Y-75192857D01*
X122842380Y-75002380D01*
X122842380Y-76383333D02*
X122842380Y-75811904D01*
X122842380Y-76097619D02*
X121842380Y-76097619D01*
X121985238Y-76002380D01*
X122080476Y-75907142D01*
X122128095Y-75811904D01*
X121842380Y-77002380D02*
X121842380Y-77097619D01*
X121890000Y-77192857D01*
X121937619Y-77240476D01*
X122032857Y-77288095D01*
X122223333Y-77335714D01*
X122461428Y-77335714D01*
X122651904Y-77288095D01*
X122747142Y-77240476D01*
X122794761Y-77192857D01*
X122842380Y-77097619D01*
X122842380Y-77002380D01*
X122794761Y-76907142D01*
X122747142Y-76859523D01*
X122651904Y-76811904D01*
X122461428Y-76764285D01*
X122223333Y-76764285D01*
X122032857Y-76811904D01*
X121937619Y-76859523D01*
X121890000Y-76907142D01*
X121842380Y-77002380D01*
%TO.C,R49*%
X74352380Y-96657142D02*
X73876190Y-96323809D01*
X74352380Y-96085714D02*
X73352380Y-96085714D01*
X73352380Y-96466666D01*
X73400000Y-96561904D01*
X73447619Y-96609523D01*
X73542857Y-96657142D01*
X73685714Y-96657142D01*
X73780952Y-96609523D01*
X73828571Y-96561904D01*
X73876190Y-96466666D01*
X73876190Y-96085714D01*
X73685714Y-97514285D02*
X74352380Y-97514285D01*
X73304761Y-97276190D02*
X74019047Y-97038095D01*
X74019047Y-97657142D01*
X74352380Y-98085714D02*
X74352380Y-98276190D01*
X74304761Y-98371428D01*
X74257142Y-98419047D01*
X74114285Y-98514285D01*
X73923809Y-98561904D01*
X73542857Y-98561904D01*
X73447619Y-98514285D01*
X73400000Y-98466666D01*
X73352380Y-98371428D01*
X73352380Y-98180952D01*
X73400000Y-98085714D01*
X73447619Y-98038095D01*
X73542857Y-97990476D01*
X73780952Y-97990476D01*
X73876190Y-98038095D01*
X73923809Y-98085714D01*
X73971428Y-98180952D01*
X73971428Y-98371428D01*
X73923809Y-98466666D01*
X73876190Y-98514285D01*
X73780952Y-98561904D01*
%TO.C,R46*%
X116152380Y-96657142D02*
X115676190Y-96323809D01*
X116152380Y-96085714D02*
X115152380Y-96085714D01*
X115152380Y-96466666D01*
X115200000Y-96561904D01*
X115247619Y-96609523D01*
X115342857Y-96657142D01*
X115485714Y-96657142D01*
X115580952Y-96609523D01*
X115628571Y-96561904D01*
X115676190Y-96466666D01*
X115676190Y-96085714D01*
X115485714Y-97514285D02*
X116152380Y-97514285D01*
X115104761Y-97276190D02*
X115819047Y-97038095D01*
X115819047Y-97657142D01*
X115152380Y-98466666D02*
X115152380Y-98276190D01*
X115200000Y-98180952D01*
X115247619Y-98133333D01*
X115390476Y-98038095D01*
X115580952Y-97990476D01*
X115961904Y-97990476D01*
X116057142Y-98038095D01*
X116104761Y-98085714D01*
X116152380Y-98180952D01*
X116152380Y-98371428D01*
X116104761Y-98466666D01*
X116057142Y-98514285D01*
X115961904Y-98561904D01*
X115723809Y-98561904D01*
X115628571Y-98514285D01*
X115580952Y-98466666D01*
X115533333Y-98371428D01*
X115533333Y-98180952D01*
X115580952Y-98085714D01*
X115628571Y-98038095D01*
X115723809Y-97990476D01*
%TO.C,R52*%
X113452380Y-96657142D02*
X112976190Y-96323809D01*
X113452380Y-96085714D02*
X112452380Y-96085714D01*
X112452380Y-96466666D01*
X112500000Y-96561904D01*
X112547619Y-96609523D01*
X112642857Y-96657142D01*
X112785714Y-96657142D01*
X112880952Y-96609523D01*
X112928571Y-96561904D01*
X112976190Y-96466666D01*
X112976190Y-96085714D01*
X112452380Y-97561904D02*
X112452380Y-97085714D01*
X112928571Y-97038095D01*
X112880952Y-97085714D01*
X112833333Y-97180952D01*
X112833333Y-97419047D01*
X112880952Y-97514285D01*
X112928571Y-97561904D01*
X113023809Y-97609523D01*
X113261904Y-97609523D01*
X113357142Y-97561904D01*
X113404761Y-97514285D01*
X113452380Y-97419047D01*
X113452380Y-97180952D01*
X113404761Y-97085714D01*
X113357142Y-97038095D01*
X112547619Y-97990476D02*
X112500000Y-98038095D01*
X112452380Y-98133333D01*
X112452380Y-98371428D01*
X112500000Y-98466666D01*
X112547619Y-98514285D01*
X112642857Y-98561904D01*
X112738095Y-98561904D01*
X112880952Y-98514285D01*
X113452380Y-97942857D01*
X113452380Y-98561904D01*
%TO.C,R51*%
X99852380Y-96857142D02*
X99376190Y-96523809D01*
X99852380Y-96285714D02*
X98852380Y-96285714D01*
X98852380Y-96666666D01*
X98900000Y-96761904D01*
X98947619Y-96809523D01*
X99042857Y-96857142D01*
X99185714Y-96857142D01*
X99280952Y-96809523D01*
X99328571Y-96761904D01*
X99376190Y-96666666D01*
X99376190Y-96285714D01*
X98852380Y-97761904D02*
X98852380Y-97285714D01*
X99328571Y-97238095D01*
X99280952Y-97285714D01*
X99233333Y-97380952D01*
X99233333Y-97619047D01*
X99280952Y-97714285D01*
X99328571Y-97761904D01*
X99423809Y-97809523D01*
X99661904Y-97809523D01*
X99757142Y-97761904D01*
X99804761Y-97714285D01*
X99852380Y-97619047D01*
X99852380Y-97380952D01*
X99804761Y-97285714D01*
X99757142Y-97238095D01*
X99852380Y-98761904D02*
X99852380Y-98190476D01*
X99852380Y-98476190D02*
X98852380Y-98476190D01*
X98995238Y-98380952D01*
X99090476Y-98285714D01*
X99138095Y-98190476D01*
%TO.C,R39*%
X104252380Y-96757142D02*
X103776190Y-96423809D01*
X104252380Y-96185714D02*
X103252380Y-96185714D01*
X103252380Y-96566666D01*
X103300000Y-96661904D01*
X103347619Y-96709523D01*
X103442857Y-96757142D01*
X103585714Y-96757142D01*
X103680952Y-96709523D01*
X103728571Y-96661904D01*
X103776190Y-96566666D01*
X103776190Y-96185714D01*
X103252380Y-97090476D02*
X103252380Y-97709523D01*
X103633333Y-97376190D01*
X103633333Y-97519047D01*
X103680952Y-97614285D01*
X103728571Y-97661904D01*
X103823809Y-97709523D01*
X104061904Y-97709523D01*
X104157142Y-97661904D01*
X104204761Y-97614285D01*
X104252380Y-97519047D01*
X104252380Y-97233333D01*
X104204761Y-97138095D01*
X104157142Y-97090476D01*
X104252380Y-98185714D02*
X104252380Y-98376190D01*
X104204761Y-98471428D01*
X104157142Y-98519047D01*
X104014285Y-98614285D01*
X103823809Y-98661904D01*
X103442857Y-98661904D01*
X103347619Y-98614285D01*
X103300000Y-98566666D01*
X103252380Y-98471428D01*
X103252380Y-98280952D01*
X103300000Y-98185714D01*
X103347619Y-98138095D01*
X103442857Y-98090476D01*
X103680952Y-98090476D01*
X103776190Y-98138095D01*
X103823809Y-98185714D01*
X103871428Y-98280952D01*
X103871428Y-98471428D01*
X103823809Y-98566666D01*
X103776190Y-98614285D01*
X103680952Y-98661904D01*
%TO.C,Q11*%
X136437619Y-75478571D02*
X136390000Y-75383333D01*
X136294761Y-75288095D01*
X136151904Y-75145238D01*
X136104285Y-75050000D01*
X136104285Y-74954761D01*
X136342380Y-75002380D02*
X136294761Y-74907142D01*
X136199523Y-74811904D01*
X136009047Y-74764285D01*
X135675714Y-74764285D01*
X135485238Y-74811904D01*
X135390000Y-74907142D01*
X135342380Y-75002380D01*
X135342380Y-75192857D01*
X135390000Y-75288095D01*
X135485238Y-75383333D01*
X135675714Y-75430952D01*
X136009047Y-75430952D01*
X136199523Y-75383333D01*
X136294761Y-75288095D01*
X136342380Y-75192857D01*
X136342380Y-75002380D01*
X136342380Y-76383333D02*
X136342380Y-75811904D01*
X136342380Y-76097619D02*
X135342380Y-76097619D01*
X135485238Y-76002380D01*
X135580476Y-75907142D01*
X135628095Y-75811904D01*
X136342380Y-77335714D02*
X136342380Y-76764285D01*
X136342380Y-77050000D02*
X135342380Y-77050000D01*
X135485238Y-76954761D01*
X135580476Y-76859523D01*
X135628095Y-76764285D01*
%TO.C,R43*%
X72052380Y-96657142D02*
X71576190Y-96323809D01*
X72052380Y-96085714D02*
X71052380Y-96085714D01*
X71052380Y-96466666D01*
X71100000Y-96561904D01*
X71147619Y-96609523D01*
X71242857Y-96657142D01*
X71385714Y-96657142D01*
X71480952Y-96609523D01*
X71528571Y-96561904D01*
X71576190Y-96466666D01*
X71576190Y-96085714D01*
X71385714Y-97514285D02*
X72052380Y-97514285D01*
X71004761Y-97276190D02*
X71719047Y-97038095D01*
X71719047Y-97657142D01*
X71052380Y-97942857D02*
X71052380Y-98561904D01*
X71433333Y-98228571D01*
X71433333Y-98371428D01*
X71480952Y-98466666D01*
X71528571Y-98514285D01*
X71623809Y-98561904D01*
X71861904Y-98561904D01*
X71957142Y-98514285D01*
X72004761Y-98466666D01*
X72052380Y-98371428D01*
X72052380Y-98085714D01*
X72004761Y-97990476D01*
X71957142Y-97942857D01*
%TO.C,Q5*%
X128437619Y-75954761D02*
X128390000Y-75859523D01*
X128294761Y-75764285D01*
X128151904Y-75621428D01*
X128104285Y-75526190D01*
X128104285Y-75430952D01*
X128342380Y-75478571D02*
X128294761Y-75383333D01*
X128199523Y-75288095D01*
X128009047Y-75240476D01*
X127675714Y-75240476D01*
X127485238Y-75288095D01*
X127390000Y-75383333D01*
X127342380Y-75478571D01*
X127342380Y-75669047D01*
X127390000Y-75764285D01*
X127485238Y-75859523D01*
X127675714Y-75907142D01*
X128009047Y-75907142D01*
X128199523Y-75859523D01*
X128294761Y-75764285D01*
X128342380Y-75669047D01*
X128342380Y-75478571D01*
X127342380Y-76811904D02*
X127342380Y-76335714D01*
X127818571Y-76288095D01*
X127770952Y-76335714D01*
X127723333Y-76430952D01*
X127723333Y-76669047D01*
X127770952Y-76764285D01*
X127818571Y-76811904D01*
X127913809Y-76859523D01*
X128151904Y-76859523D01*
X128247142Y-76811904D01*
X128294761Y-76764285D01*
X128342380Y-76669047D01*
X128342380Y-76430952D01*
X128294761Y-76335714D01*
X128247142Y-76288095D01*
D12*
%TO.C,R48*%
X141017500Y-94592224D02*
X141017500Y-94082776D01*
X142062500Y-94592224D02*
X142062500Y-94082776D01*
%TO.C,R47*%
X129017500Y-94454724D02*
X129017500Y-93945276D01*
X130062500Y-94454724D02*
X130062500Y-93945276D01*
%TO.C,Q9*%
X108040000Y-75100000D02*
X106990000Y-75100000D01*
X104740000Y-76900000D02*
X104740000Y-75100000D01*
X108040000Y-77500000D02*
X108040000Y-75100000D01*
X104740000Y-75100000D02*
X105790000Y-75100000D01*
%TO.C,R50*%
X85662500Y-94454724D02*
X85662500Y-93945276D01*
X84617500Y-94454724D02*
X84617500Y-93945276D01*
%TO.C,R53*%
X127662500Y-94454724D02*
X127662500Y-93945276D01*
X126617500Y-94454724D02*
X126617500Y-93945276D01*
%TO.C,R44*%
X87017500Y-94454724D02*
X87017500Y-93945276D01*
X88062500Y-94454724D02*
X88062500Y-93945276D01*
%TO.C,Q8*%
X94540000Y-75100000D02*
X93490000Y-75100000D01*
X94540000Y-77500000D02*
X94540000Y-75100000D01*
X91240000Y-76900000D02*
X91240000Y-75100000D01*
X91240000Y-75100000D02*
X92290000Y-75100000D01*
%TO.C,Q4*%
X113540000Y-77500000D02*
X113540000Y-75100000D01*
X113540000Y-75100000D02*
X112490000Y-75100000D01*
X110240000Y-75100000D02*
X111290000Y-75100000D01*
X110240000Y-76900000D02*
X110240000Y-75100000D01*
%TO.C,R41*%
X132662500Y-93945276D02*
X132662500Y-94454724D01*
X131617500Y-93945276D02*
X131617500Y-94454724D01*
%TO.C,Q12*%
X148590000Y-77350000D02*
X148590000Y-74950000D01*
X145290000Y-76750000D02*
X145290000Y-74950000D01*
X148590000Y-74950000D02*
X147540000Y-74950000D01*
X145290000Y-74950000D02*
X146340000Y-74950000D01*
%TO.C,Q1*%
X73040000Y-75100000D02*
X71990000Y-75100000D01*
X73040000Y-77500000D02*
X73040000Y-75100000D01*
X69740000Y-75100000D02*
X70790000Y-75100000D01*
X69740000Y-76900000D02*
X69740000Y-75100000D01*
%TO.C,R54*%
X139662500Y-94679724D02*
X139662500Y-94170276D01*
X138617500Y-94679724D02*
X138617500Y-94170276D01*
%TO.C,Q7*%
X81040000Y-77500000D02*
X81040000Y-75100000D01*
X77740000Y-75100000D02*
X78790000Y-75100000D01*
X77740000Y-76900000D02*
X77740000Y-75100000D01*
X81040000Y-75100000D02*
X79990000Y-75100000D01*
%TO.C,Q6*%
X140540000Y-77500000D02*
X140540000Y-75100000D01*
X137240000Y-75100000D02*
X138290000Y-75100000D01*
X137240000Y-76900000D02*
X137240000Y-75100000D01*
X140540000Y-75100000D02*
X139490000Y-75100000D01*
%TO.C,Q3*%
X96740000Y-75100000D02*
X97790000Y-75100000D01*
X96740000Y-76900000D02*
X96740000Y-75100000D01*
X100040000Y-75100000D02*
X98990000Y-75100000D01*
X100040000Y-77500000D02*
X100040000Y-75100000D01*
%TO.C,Q2*%
X86540000Y-77500000D02*
X86540000Y-75100000D01*
X83240000Y-76900000D02*
X83240000Y-75100000D01*
X83240000Y-75100000D02*
X84290000Y-75100000D01*
X86540000Y-75100000D02*
X85490000Y-75100000D01*
%TO.C,R45*%
X102062500Y-93945276D02*
X102062500Y-94454724D01*
X101017500Y-93945276D02*
X101017500Y-94454724D01*
%TO.C,G\u002A\u002A\u002A*%
G36*
X91240030Y-142997150D02*
G01*
X91240030Y-143057889D01*
X90541249Y-143062808D01*
X90395076Y-143063497D01*
X90239488Y-143063397D01*
X90102670Y-143062391D01*
X89988370Y-143060542D01*
X89900338Y-143057914D01*
X89842321Y-143054569D01*
X89818070Y-143050572D01*
X89803950Y-143029431D01*
X89799310Y-142987677D01*
X89804949Y-142941936D01*
X90522490Y-142939173D01*
X91240031Y-142936411D01*
X91240030Y-142997150D01*
G37*
G36*
X109286411Y-143431039D02*
G01*
X109234823Y-143437387D01*
X109198149Y-143440883D01*
X109177455Y-143440669D01*
X109177053Y-143438682D01*
X109175776Y-143409116D01*
X109174564Y-143347283D01*
X109173454Y-143257198D01*
X109172482Y-143142872D01*
X109171683Y-143008318D01*
X109171094Y-142857549D01*
X109170750Y-142694577D01*
X109169826Y-141951551D01*
X108993628Y-141951551D01*
X108949380Y-141951823D01*
X108881537Y-141953492D01*
X108834823Y-141956346D01*
X108817430Y-141959992D01*
X108823889Y-141976573D01*
X108844470Y-142019851D01*
X108875358Y-142081812D01*
X108912614Y-142154815D01*
X108952299Y-142231221D01*
X108990476Y-142303391D01*
X109023207Y-142363684D01*
X109046552Y-142404460D01*
X109088176Y-142472805D01*
X108944799Y-142610812D01*
X108886407Y-142669883D01*
X108814084Y-142757962D01*
X108773355Y-142834104D01*
X108762896Y-142901158D01*
X108781380Y-142961972D01*
X108793006Y-142979578D01*
X108850997Y-143029946D01*
X108930258Y-143064333D01*
X109019092Y-143077076D01*
X109064212Y-143077571D01*
X109091602Y-143083659D01*
X109093473Y-143102967D01*
X109076471Y-143143147D01*
X109065713Y-143164385D01*
X109047471Y-143181739D01*
X109015922Y-143185500D01*
X108959226Y-143179319D01*
X108899932Y-143168771D01*
X108796432Y-143132195D01*
X108723947Y-143075618D01*
X108681310Y-142997917D01*
X108667356Y-142897969D01*
X108667999Y-142872607D01*
X108679937Y-142798637D01*
X108710330Y-142729090D01*
X108763589Y-142655799D01*
X108844126Y-142570593D01*
X108961685Y-142455196D01*
X108842883Y-142246991D01*
X108838799Y-142239825D01*
X108793137Y-142158463D01*
X108754324Y-142087152D01*
X108726351Y-142033358D01*
X108713213Y-142004548D01*
X108704313Y-141985687D01*
X108684851Y-141970311D01*
X108675404Y-141966660D01*
X108667655Y-141941911D01*
X108674387Y-141907015D01*
X108694038Y-141877724D01*
X108718687Y-141868964D01*
X108780668Y-141860511D01*
X108876315Y-141854265D01*
X109003566Y-141850407D01*
X109286411Y-141845235D01*
X109286411Y-143431039D01*
G37*
G36*
X89532936Y-142424290D02*
G01*
X89531824Y-142443446D01*
X89518741Y-142476014D01*
X89486339Y-142493732D01*
X89428896Y-142498637D01*
X89340688Y-142492768D01*
X89315921Y-142490519D01*
X89224360Y-142484486D01*
X89119540Y-142480025D01*
X89019589Y-142477970D01*
X88834525Y-142476810D01*
X88847082Y-142584675D01*
X88869419Y-142716715D01*
X88922923Y-142885386D01*
X89000847Y-143028399D01*
X89102184Y-143144031D01*
X89225924Y-143230562D01*
X89274194Y-143258238D01*
X89302220Y-143283001D01*
X89298722Y-143302269D01*
X89265621Y-143320391D01*
X89234880Y-143330959D01*
X89181149Y-143335601D01*
X89127565Y-143316126D01*
X89062682Y-143269674D01*
X89043318Y-143253340D01*
X88942920Y-143152591D01*
X88859244Y-143041748D01*
X88801432Y-142932608D01*
X88787199Y-142895578D01*
X88760635Y-142818005D01*
X88739477Y-142745458D01*
X88726492Y-142687902D01*
X88724448Y-142655305D01*
X88725267Y-142647596D01*
X88723417Y-142608648D01*
X88716853Y-142554284D01*
X88704474Y-142471739D01*
X88389644Y-142485060D01*
X88334185Y-142487359D01*
X88232904Y-142490995D01*
X88161263Y-142492183D01*
X88113830Y-142490610D01*
X88085173Y-142485963D01*
X88069860Y-142477928D01*
X88062461Y-142466194D01*
X88057757Y-142447298D01*
X88059688Y-142403820D01*
X88062367Y-142398840D01*
X88072333Y-142392056D01*
X88092303Y-142386595D01*
X88125716Y-142382316D01*
X88176012Y-142379080D01*
X88246629Y-142376746D01*
X88341007Y-142375174D01*
X88462585Y-142374225D01*
X88614802Y-142373759D01*
X88801099Y-142373634D01*
X89532932Y-142373634D01*
X89532936Y-142424290D01*
G37*
G36*
X107147243Y-135986135D02*
G01*
X107282726Y-135986606D01*
X107404053Y-135987640D01*
X107506553Y-135989154D01*
X107585552Y-135991066D01*
X107636378Y-135993292D01*
X107654358Y-135995750D01*
X107651453Y-136005723D01*
X107635609Y-136038454D01*
X107614379Y-136075285D01*
X107597461Y-136098671D01*
X107577389Y-136121465D01*
X107546532Y-136162670D01*
X107513234Y-136211019D01*
X107483673Y-136257179D01*
X107464028Y-136291814D01*
X107460478Y-136305593D01*
X107463161Y-136309957D01*
X107443316Y-136325284D01*
X107424740Y-136339035D01*
X107410488Y-136360995D01*
X107407894Y-136368136D01*
X107388003Y-136401192D01*
X107352769Y-136452603D01*
X107307312Y-136514735D01*
X107284102Y-136545926D01*
X107243073Y-136603009D01*
X107214720Y-136645192D01*
X107204136Y-136665053D01*
X107202665Y-136669290D01*
X107185036Y-136698137D01*
X107151673Y-136746084D01*
X107107889Y-136805380D01*
X107095177Y-136822415D01*
X107049421Y-136887733D01*
X107013221Y-136945404D01*
X106993499Y-136984587D01*
X106976741Y-137020973D01*
X106961149Y-137036633D01*
X106956827Y-137038713D01*
X106934090Y-137062368D01*
X106900525Y-137104918D01*
X106862805Y-137156955D01*
X106827602Y-137209074D01*
X106801587Y-137251866D01*
X106791433Y-137275924D01*
X106788592Y-137292554D01*
X106759396Y-137332074D01*
X106706620Y-137362708D01*
X106640246Y-137377735D01*
X106615625Y-137378776D01*
X106551915Y-137379843D01*
X106461267Y-137380342D01*
X106349989Y-137380264D01*
X106224392Y-137379604D01*
X106090786Y-137378353D01*
X105624629Y-137373028D01*
X105654920Y-137331455D01*
X105678266Y-137296176D01*
X105708155Y-137242984D01*
X105727699Y-137207262D01*
X105750077Y-137174716D01*
X105750635Y-137174084D01*
X105775036Y-137143742D01*
X105806573Y-137101639D01*
X105807292Y-137100649D01*
X105845969Y-137047639D01*
X105886300Y-136992740D01*
X105892969Y-136983504D01*
X105918267Y-136943877D01*
X105928508Y-136919641D01*
X105933889Y-136902443D01*
X105955133Y-136872268D01*
X105997556Y-136822890D01*
X106007419Y-136810319D01*
X106036687Y-136769367D01*
X106077416Y-136710104D01*
X106123980Y-136640639D01*
X106143126Y-136611883D01*
X106202710Y-136523727D01*
X106262788Y-136436432D01*
X106312873Y-136365285D01*
X106321326Y-136353412D01*
X106360010Y-136296498D01*
X106387212Y-136252204D01*
X106397489Y-136229281D01*
X106397792Y-136225558D01*
X106411559Y-136211062D01*
X106412243Y-136210948D01*
X106429929Y-136193975D01*
X106460596Y-136153804D01*
X106498040Y-136098507D01*
X106570453Y-135986116D01*
X107112405Y-135986116D01*
X107147243Y-135986135D01*
G37*
G36*
X100928817Y-142614612D02*
G01*
X100964325Y-142635937D01*
X100974317Y-142644095D01*
X100983708Y-142659431D01*
X100977445Y-142680444D01*
X100952261Y-142714428D01*
X100904890Y-142768680D01*
X100852534Y-142831787D01*
X100802100Y-142900383D01*
X100766594Y-142957196D01*
X100750056Y-142985109D01*
X100718797Y-143024230D01*
X100693777Y-143039587D01*
X100673231Y-143035885D01*
X100635710Y-143009012D01*
X100619646Y-142968868D01*
X100623965Y-142950479D01*
X100647845Y-142904057D01*
X100687373Y-142844408D01*
X100736546Y-142778989D01*
X100789362Y-142715256D01*
X100839816Y-142660663D01*
X100881906Y-142622666D01*
X100909630Y-142608721D01*
X100928817Y-142614612D01*
G37*
G36*
X111856426Y-137224225D02*
G01*
X108273412Y-137224225D01*
X108273412Y-135948597D01*
X111856426Y-135948597D01*
X111856426Y-137224225D01*
G37*
G36*
X90344658Y-138185221D02*
G01*
X90374976Y-138223212D01*
X90415005Y-138271646D01*
X90415277Y-138271967D01*
X90441323Y-138305059D01*
X90452142Y-138323458D01*
X90460417Y-138342074D01*
X90485204Y-138382458D01*
X90520439Y-138435135D01*
X90559954Y-138491349D01*
X90597579Y-138542345D01*
X90627147Y-138579363D01*
X90642487Y-138593649D01*
X90646366Y-138594216D01*
X90658494Y-138612633D01*
X90666205Y-138633313D01*
X90690258Y-138676109D01*
X90724836Y-138730927D01*
X90763962Y-138788936D01*
X90801657Y-138841304D01*
X90831942Y-138879202D01*
X90848838Y-138893797D01*
X90853266Y-138894583D01*
X90864845Y-138913866D01*
X90868873Y-138927156D01*
X90889273Y-138965892D01*
X90921123Y-139015732D01*
X90942517Y-139047633D01*
X90967617Y-139087994D01*
X90977401Y-139108218D01*
X90970718Y-139109595D01*
X90931828Y-139111759D01*
X90861571Y-139113730D01*
X90763787Y-139115458D01*
X90642314Y-139116890D01*
X90500989Y-139117977D01*
X90343651Y-139118666D01*
X90174137Y-139118907D01*
X89370873Y-139118907D01*
X89334661Y-139076438D01*
X89304748Y-139036514D01*
X89271830Y-138982642D01*
X89271546Y-138982096D01*
X89248303Y-138946213D01*
X89229622Y-138931315D01*
X89225963Y-138930789D01*
X89214033Y-138912541D01*
X89205718Y-138892826D01*
X89179467Y-138848357D01*
X89139455Y-138786099D01*
X89089972Y-138712198D01*
X89035307Y-138632803D01*
X88979750Y-138554059D01*
X88927591Y-138482114D01*
X88883119Y-138423114D01*
X88850624Y-138383207D01*
X88834395Y-138368538D01*
X88827848Y-138367781D01*
X88825382Y-138356992D01*
X88823214Y-138340372D01*
X88804189Y-138301078D01*
X88772057Y-138249127D01*
X88707187Y-138152807D01*
X89509317Y-138147702D01*
X90311448Y-138142597D01*
X90344658Y-138185221D01*
G37*
G36*
X89307829Y-142008984D02*
G01*
X89305888Y-142043096D01*
X89300028Y-142065670D01*
X89283644Y-142067454D01*
X89234240Y-142069008D01*
X89156887Y-142070059D01*
X89056630Y-142070566D01*
X88938518Y-142070484D01*
X88807598Y-142069774D01*
X88322969Y-142066062D01*
X88317441Y-142013496D01*
X88311912Y-141960931D01*
X88809871Y-141960523D01*
X89307829Y-141960114D01*
X89307829Y-142008984D01*
G37*
G36*
X111856426Y-140683740D02*
G01*
X111856425Y-140688680D01*
X111855851Y-140880019D01*
X111854204Y-141039447D01*
X111851515Y-141165846D01*
X111847817Y-141258096D01*
X111843143Y-141315077D01*
X111837526Y-141335670D01*
X111834539Y-141335909D01*
X111801847Y-141336549D01*
X111735783Y-141337124D01*
X111639422Y-141337636D01*
X111515838Y-141338084D01*
X111368107Y-141338470D01*
X111199302Y-141338794D01*
X111012499Y-141339057D01*
X110810772Y-141339259D01*
X110597196Y-141339402D01*
X110374845Y-141339485D01*
X110146793Y-141339510D01*
X109916117Y-141339478D01*
X109685889Y-141339388D01*
X109459185Y-141339242D01*
X109239080Y-141339040D01*
X109028647Y-141338783D01*
X108830962Y-141338472D01*
X108649100Y-141338107D01*
X108486134Y-141337689D01*
X108345140Y-141337219D01*
X108229192Y-141336697D01*
X108141365Y-141336125D01*
X108084733Y-141335502D01*
X108062371Y-141334830D01*
X108059644Y-141322092D01*
X108056566Y-141275865D01*
X108053839Y-141199948D01*
X108051556Y-141098637D01*
X108049810Y-140976229D01*
X108048694Y-140837018D01*
X108048302Y-140685303D01*
X108048302Y-140038110D01*
X111856426Y-140038110D01*
X111856426Y-140683740D01*
G37*
G36*
X103471049Y-143189661D02*
G01*
X103405392Y-143189661D01*
X103386018Y-143189493D01*
X103353995Y-143184018D01*
X103341722Y-143162667D01*
X103339734Y-143114624D01*
X103339734Y-143039587D01*
X102514328Y-143039587D01*
X102514328Y-143105244D01*
X102514320Y-143110242D01*
X102510724Y-143151614D01*
X102492677Y-143167997D01*
X102448671Y-143170901D01*
X102383014Y-143170901D01*
X102380333Y-142997379D01*
X102379537Y-142940483D01*
X102379411Y-142927031D01*
X102514328Y-142927031D01*
X103339734Y-142927031D01*
X103339734Y-142195421D01*
X102514328Y-142195421D01*
X102514328Y-142927031D01*
X102379411Y-142927031D01*
X102378199Y-142797612D01*
X102377711Y-142655442D01*
X102378017Y-142519233D01*
X102379062Y-142394243D01*
X102380792Y-142285732D01*
X102383152Y-142198960D01*
X102386088Y-142139184D01*
X102389544Y-142111665D01*
X102395009Y-142104468D01*
X102410432Y-142097442D01*
X102439274Y-142092088D01*
X102485551Y-142088193D01*
X102553279Y-142085538D01*
X102646475Y-142083910D01*
X102769155Y-142083091D01*
X102925336Y-142082866D01*
X103066942Y-142083448D01*
X103194702Y-142085135D01*
X103302301Y-142087785D01*
X103385400Y-142091260D01*
X103439659Y-142095419D01*
X103460741Y-142100123D01*
X103461459Y-142101954D01*
X103464935Y-142133590D01*
X103467777Y-142200857D01*
X103469963Y-142302169D01*
X103471476Y-142435939D01*
X103472297Y-142600581D01*
X103472406Y-142794510D01*
X103472033Y-142927031D01*
X103471783Y-143016138D01*
X103471049Y-143189661D01*
G37*
G36*
X96455096Y-143433531D02*
G01*
X96342541Y-143433531D01*
X96342028Y-143260008D01*
X96342006Y-143251609D01*
X96341921Y-143181844D01*
X96341910Y-143082310D01*
X96341971Y-142959634D01*
X96342097Y-142820443D01*
X96342284Y-142671362D01*
X96342528Y-142519018D01*
X96343542Y-141951551D01*
X95988195Y-141951551D01*
X96026707Y-142044222D01*
X96038186Y-142069912D01*
X96072571Y-142138630D01*
X96116720Y-142220249D01*
X96163927Y-142302161D01*
X96192972Y-142352219D01*
X96227202Y-142415961D01*
X96249175Y-142463169D01*
X96255098Y-142486189D01*
X96248537Y-142495208D01*
X96217843Y-142523476D01*
X96172436Y-142558242D01*
X96129522Y-142593350D01*
X96066538Y-142658553D01*
X96008816Y-142731979D01*
X95964386Y-142803096D01*
X95941278Y-142861374D01*
X95939887Y-142912334D01*
X95966000Y-142976988D01*
X96019740Y-143029305D01*
X96095454Y-143064329D01*
X96187485Y-143077105D01*
X96233130Y-143077509D01*
X96260167Y-143083400D01*
X96262957Y-143102535D01*
X96248771Y-143142695D01*
X96240978Y-143161367D01*
X96224691Y-143180746D01*
X96195304Y-143185392D01*
X96140905Y-143179356D01*
X96066974Y-143164453D01*
X95979811Y-143134575D01*
X95911515Y-143096802D01*
X95871408Y-143055421D01*
X95862472Y-143033865D01*
X95849365Y-142985117D01*
X95838495Y-142927467D01*
X95831529Y-142872252D01*
X95830133Y-142830810D01*
X95835975Y-142814476D01*
X95837696Y-142813907D01*
X95852174Y-142793086D01*
X95870005Y-142751588D01*
X95875672Y-142739146D01*
X95907609Y-142691084D01*
X95956750Y-142631784D01*
X96015023Y-142571282D01*
X96137301Y-142453865D01*
X96054988Y-142310574D01*
X96051006Y-142303633D01*
X96000831Y-142215011D01*
X95947945Y-142119936D01*
X95903161Y-142037835D01*
X95883533Y-142000849D01*
X95858445Y-141947494D01*
X95849503Y-141908906D01*
X95860268Y-141882601D01*
X95894304Y-141866092D01*
X95955171Y-141856895D01*
X96046432Y-141852522D01*
X96171649Y-141850490D01*
X96455096Y-141847147D01*
X96455096Y-143433531D01*
G37*
G36*
X116785634Y-136675517D02*
G01*
X116780724Y-137402438D01*
X115298745Y-137402438D01*
X115293968Y-139358088D01*
X115289192Y-141313738D01*
X114051256Y-141313738D01*
X114051256Y-137401849D01*
X112531758Y-137402903D01*
X112531758Y-135948597D01*
X116790544Y-135948597D01*
X116785634Y-136675517D01*
G37*
G36*
X100763651Y-141732951D02*
G01*
X100794802Y-141753749D01*
X100810713Y-141767999D01*
X100813483Y-141784727D01*
X100795187Y-141809134D01*
X100752103Y-141849575D01*
X100723826Y-141876634D01*
X100675897Y-141928970D01*
X100643249Y-141972937D01*
X100641203Y-141976332D01*
X100613801Y-142011939D01*
X100591214Y-142026588D01*
X100572474Y-142021427D01*
X100540558Y-141994582D01*
X100525850Y-141960849D01*
X100532773Y-141947450D01*
X100560156Y-141912971D01*
X100601269Y-141866941D01*
X100648458Y-141817347D01*
X100694069Y-141772174D01*
X100730448Y-141739409D01*
X100749941Y-141727037D01*
X100763651Y-141732951D01*
G37*
G36*
X86842361Y-142191981D02*
G01*
X86869995Y-142238640D01*
X86899701Y-142283227D01*
X86961522Y-142358148D01*
X87041985Y-142443798D01*
X87134339Y-142533676D01*
X87231833Y-142621281D01*
X87327716Y-142700113D01*
X87415237Y-142763669D01*
X87464457Y-142795715D01*
X87526794Y-142834445D01*
X87573083Y-142860937D01*
X87595842Y-142870754D01*
X87611057Y-142876067D01*
X87639764Y-142900708D01*
X87643376Y-142905168D01*
X87653856Y-142929751D01*
X87632287Y-142948759D01*
X87615402Y-142962166D01*
X87609750Y-142982713D01*
X87612779Y-142988509D01*
X87606732Y-142997679D01*
X87575879Y-142987932D01*
X87524579Y-142961815D01*
X87457192Y-142921873D01*
X87378078Y-142870655D01*
X87291596Y-142810707D01*
X87202105Y-142744576D01*
X87094240Y-142662209D01*
X87094240Y-143008788D01*
X87094208Y-143040500D01*
X87093203Y-143163913D01*
X87090604Y-143254357D01*
X87086165Y-143315550D01*
X87079642Y-143351207D01*
X87070791Y-143365045D01*
X87069044Y-143365763D01*
X87044222Y-143374371D01*
X87025215Y-143374468D01*
X87011101Y-143361911D01*
X87000959Y-143332558D01*
X86993868Y-143282265D01*
X86988906Y-143206889D01*
X86985152Y-143102286D01*
X86981684Y-142964313D01*
X86981615Y-142961342D01*
X86978828Y-142829197D01*
X86976106Y-142728104D01*
X86971521Y-142651775D01*
X86963148Y-142593922D01*
X86949057Y-142548258D01*
X86927324Y-142508495D01*
X86896019Y-142468346D01*
X86853216Y-142421523D01*
X86796987Y-142361739D01*
X86784963Y-142348568D01*
X86742220Y-142296921D01*
X86715114Y-142256076D01*
X86709070Y-142233919D01*
X86732743Y-142212148D01*
X86773636Y-142186919D01*
X86798923Y-142174775D01*
X86822185Y-142172578D01*
X86842361Y-142191981D01*
G37*
G36*
X105448455Y-141782934D02*
G01*
X105482441Y-141799383D01*
X105491233Y-141833665D01*
X105471182Y-141874000D01*
X105452369Y-141899529D01*
X105440768Y-141929579D01*
X105439839Y-141936837D01*
X105424285Y-141951551D01*
X105423320Y-141951640D01*
X105405051Y-141969148D01*
X105384491Y-142007829D01*
X105359748Y-142050266D01*
X105327612Y-142061919D01*
X105283642Y-142039990D01*
X105276496Y-142034397D01*
X105265901Y-142019056D01*
X105269362Y-141996679D01*
X105289393Y-141959386D01*
X105328507Y-141899295D01*
X105362863Y-141851017D01*
X105408984Y-141800010D01*
X105442909Y-141782718D01*
X105448455Y-141782934D01*
G37*
G36*
X101414078Y-142061917D02*
G01*
X101406047Y-142251699D01*
X102066484Y-142251699D01*
X102060605Y-142311373D01*
X102054727Y-142371047D01*
X101734128Y-142366271D01*
X101413529Y-142361496D01*
X101411626Y-142747724D01*
X101411203Y-142829045D01*
X101411245Y-142947430D01*
X101413907Y-143035728D01*
X101421064Y-143098699D01*
X101434594Y-143141104D01*
X101456371Y-143167703D01*
X101488272Y-143183257D01*
X101532172Y-143192526D01*
X101589948Y-143200271D01*
X101687945Y-143213124D01*
X101649367Y-143262360D01*
X101648807Y-143263071D01*
X101612822Y-143300653D01*
X101580251Y-143322605D01*
X101550904Y-143323639D01*
X101496197Y-143311768D01*
X101432521Y-143289890D01*
X101372836Y-143262575D01*
X101330105Y-143234395D01*
X101308157Y-143206893D01*
X101294978Y-143167994D01*
X101292475Y-143148994D01*
X101279834Y-143133383D01*
X101278621Y-143133182D01*
X101270361Y-143113796D01*
X101269744Y-143072415D01*
X101271412Y-143047048D01*
X101274666Y-142985564D01*
X101278738Y-142899843D01*
X101283269Y-142797510D01*
X101287901Y-142686190D01*
X101301003Y-142360932D01*
X101152606Y-142364614D01*
X101129915Y-142365112D01*
X101032796Y-142366370D01*
X100923385Y-142366790D01*
X100821308Y-142366276D01*
X100638405Y-142364254D01*
X100638405Y-142251699D01*
X101294978Y-142251699D01*
X101294978Y-142179223D01*
X101294076Y-142152353D01*
X101287322Y-142080630D01*
X101276129Y-142007353D01*
X101269354Y-141967598D01*
X101263999Y-141921320D01*
X101265200Y-141900040D01*
X101268443Y-141898189D01*
X101298659Y-141890253D01*
X101347615Y-141882127D01*
X101422109Y-141872136D01*
X101414078Y-142061917D01*
G37*
G36*
X94535288Y-141692013D02*
G01*
X94687039Y-141693306D01*
X95188848Y-141698302D01*
X95193840Y-142209491D01*
X95195095Y-142343648D01*
X95195913Y-142465881D01*
X95195813Y-142558362D01*
X95194528Y-142625238D01*
X95191792Y-142670655D01*
X95187339Y-142698761D01*
X95180902Y-142713703D01*
X95172214Y-142719627D01*
X95161011Y-142720680D01*
X95153461Y-142720321D01*
X95143683Y-142716405D01*
X95136276Y-142704663D01*
X95130909Y-142680854D01*
X95127254Y-142640736D01*
X95124984Y-142580067D01*
X95123769Y-142494605D01*
X95123281Y-142380109D01*
X95123191Y-142232336D01*
X95123191Y-141743992D01*
X94677659Y-141745220D01*
X94596997Y-141745431D01*
X94477424Y-141745700D01*
X94373285Y-141745881D01*
X94290100Y-141745966D01*
X94233391Y-141745950D01*
X94208678Y-141745824D01*
X94197759Y-141742240D01*
X94185229Y-141716755D01*
X94187244Y-141710222D01*
X94198406Y-141703157D01*
X94222942Y-141697954D01*
X94264875Y-141694427D01*
X94328229Y-141692386D01*
X94417026Y-141691644D01*
X94535288Y-141692013D01*
G37*
G36*
X106477836Y-141764044D02*
G01*
X106492582Y-141768455D01*
X106502159Y-141784296D01*
X106507800Y-141818089D01*
X106510738Y-141876357D01*
X106512209Y-141965621D01*
X106513137Y-142031456D01*
X106514802Y-142106104D01*
X106516752Y-142160512D01*
X106518731Y-142186042D01*
X106521821Y-142205025D01*
X106525947Y-142247009D01*
X106526661Y-142255529D01*
X106530451Y-142267998D01*
X106541703Y-142276934D01*
X106565427Y-142282925D01*
X106606632Y-142286561D01*
X106670328Y-142288429D01*
X106761524Y-142289119D01*
X106885229Y-142289218D01*
X107241655Y-142289218D01*
X107241655Y-142401773D01*
X106547563Y-142401773D01*
X106547563Y-142448671D01*
X106552498Y-142479522D01*
X106567429Y-142495569D01*
X106574083Y-142496935D01*
X106575940Y-142513942D01*
X106573794Y-142536561D01*
X106580579Y-142579551D01*
X106593340Y-142627713D01*
X106608273Y-142666950D01*
X106621577Y-142683161D01*
X106628768Y-142689660D01*
X106636123Y-142719636D01*
X106637505Y-142728197D01*
X106656878Y-142776374D01*
X106694028Y-142841135D01*
X106743026Y-142913559D01*
X106797943Y-142984725D01*
X106852849Y-143045713D01*
X106899327Y-143089226D01*
X106957214Y-143137729D01*
X107014038Y-143180667D01*
X107063020Y-143213239D01*
X107097380Y-143230644D01*
X107110340Y-143228080D01*
X107110944Y-143226446D01*
X107136218Y-143218623D01*
X107198147Y-143212982D01*
X107296050Y-143209568D01*
X107429247Y-143208420D01*
X107512993Y-143207850D01*
X107606740Y-143205664D01*
X107681243Y-143202127D01*
X107730411Y-143197550D01*
X107748154Y-143192241D01*
X107748025Y-143190802D01*
X107739635Y-143162809D01*
X107720725Y-143111519D01*
X107694928Y-143046857D01*
X107690937Y-143037085D01*
X107657606Y-142951094D01*
X107621313Y-142851598D01*
X107589234Y-142758198D01*
X107578481Y-142725796D01*
X107555053Y-142657157D01*
X107536598Y-142605737D01*
X107526390Y-142580779D01*
X107518685Y-142558679D01*
X107510957Y-142515391D01*
X107502940Y-142482983D01*
X107486333Y-142461447D01*
X107469879Y-142450246D01*
X107466176Y-142421905D01*
X107486112Y-142390264D01*
X107525198Y-142366314D01*
X107540095Y-142361406D01*
X107586931Y-142354320D01*
X107610412Y-142372786D01*
X107616839Y-142420532D01*
X107622055Y-142460814D01*
X107635905Y-142486379D01*
X107641873Y-142491323D01*
X107645731Y-142513110D01*
X107645157Y-142515383D01*
X107649214Y-142544818D01*
X107662283Y-142599457D01*
X107681879Y-142670857D01*
X107705516Y-142750573D01*
X107730709Y-142830160D01*
X107754973Y-142901174D01*
X107775824Y-142955170D01*
X107785347Y-142977819D01*
X107810285Y-143039116D01*
X107836420Y-143105244D01*
X107872863Y-143199040D01*
X108326387Y-143204064D01*
X108779912Y-143209087D01*
X108779912Y-143265031D01*
X108779907Y-143269941D01*
X108777605Y-143299302D01*
X108764882Y-143314502D01*
X108732707Y-143320251D01*
X108672046Y-143321256D01*
X108647137Y-143321303D01*
X108581074Y-143321382D01*
X108486274Y-143321465D01*
X108368069Y-143321549D01*
X108231794Y-143321629D01*
X108082782Y-143321703D01*
X107926367Y-143321767D01*
X107288553Y-143321996D01*
X107251034Y-143367516D01*
X107250683Y-143367941D01*
X107218726Y-143400062D01*
X107194330Y-143413904D01*
X107192636Y-143413785D01*
X107164383Y-143403059D01*
X107114862Y-143378365D01*
X107053636Y-143344425D01*
X107051557Y-143343215D01*
X106971607Y-143289239D01*
X106883417Y-143218025D01*
X106794879Y-143137181D01*
X106713884Y-143054317D01*
X106648325Y-142977041D01*
X106606095Y-142912962D01*
X106592045Y-142887544D01*
X106564505Y-142848582D01*
X106544055Y-142833235D01*
X106536814Y-142832443D01*
X106533430Y-142822357D01*
X106534189Y-142820959D01*
X106531919Y-142794383D01*
X106519442Y-142743674D01*
X106499038Y-142678377D01*
X106496959Y-142672226D01*
X106474983Y-142602139D01*
X106459188Y-142542752D01*
X106452871Y-142506353D01*
X106450406Y-142497932D01*
X106439749Y-142511176D01*
X106423702Y-142551847D01*
X106358274Y-142707720D01*
X106257119Y-142880975D01*
X106131849Y-143047274D01*
X105988901Y-143198163D01*
X105834712Y-143325190D01*
X105774458Y-143364059D01*
X105713788Y-143388592D01*
X105667089Y-143385203D01*
X105629025Y-143354656D01*
X105594270Y-143311735D01*
X105719181Y-143246028D01*
X105723237Y-143243871D01*
X105821875Y-143179860D01*
X105928205Y-143092487D01*
X106032624Y-142991049D01*
X106125532Y-142884840D01*
X106197326Y-142783156D01*
X106235706Y-142714699D01*
X106282676Y-142621564D01*
X106321830Y-142534596D01*
X106376602Y-142401773D01*
X105684638Y-142401773D01*
X105684638Y-142448671D01*
X105678821Y-142479477D01*
X105656500Y-142498383D01*
X105644909Y-142499523D01*
X105606814Y-142503073D01*
X105603705Y-142502554D01*
X105593773Y-142481649D01*
X105589034Y-142428577D01*
X105589215Y-142340805D01*
X105593162Y-142176662D01*
X104277696Y-142176662D01*
X104277696Y-142334552D01*
X104276763Y-142400804D01*
X104271214Y-142461161D01*
X104258278Y-142494034D01*
X104235267Y-142505118D01*
X104199491Y-142500105D01*
X104187593Y-142490698D01*
X104171430Y-142448247D01*
X104161265Y-142377308D01*
X104157735Y-142283383D01*
X104161479Y-142171972D01*
X104167196Y-142082866D01*
X104335002Y-142082866D01*
X104371773Y-142082600D01*
X104438972Y-142080503D01*
X104485449Y-142076772D01*
X104502807Y-142071953D01*
X104502797Y-142071745D01*
X104493442Y-142050374D01*
X104469911Y-142006377D01*
X104437150Y-141949013D01*
X104436306Y-141947573D01*
X104403624Y-141889730D01*
X104380357Y-141844742D01*
X104371492Y-141822243D01*
X104386317Y-141805129D01*
X104422578Y-141784224D01*
X104432322Y-141779934D01*
X104466552Y-141770772D01*
X104481015Y-141782999D01*
X104482361Y-141786546D01*
X104497271Y-141819295D01*
X104523564Y-141873433D01*
X104556554Y-141939269D01*
X104624742Y-142073486D01*
X105684638Y-142083450D01*
X105684638Y-142289218D01*
X106418547Y-142289218D01*
X106407383Y-142209491D01*
X106405469Y-142193999D01*
X106399707Y-142128707D01*
X106394469Y-142044970D01*
X106390696Y-141957012D01*
X106390043Y-141935578D01*
X106389272Y-141855967D01*
X106394401Y-141805685D01*
X106408318Y-141778047D01*
X106433909Y-141766367D01*
X106474060Y-141763959D01*
X106477836Y-141764044D01*
G37*
G36*
X108020826Y-141772039D02*
G01*
X108029097Y-141797816D01*
X108031209Y-141851877D01*
X108031461Y-141869691D01*
X108031391Y-141952761D01*
X108029819Y-142031278D01*
X108026761Y-142120384D01*
X108686116Y-142120384D01*
X108686116Y-142164156D01*
X108684417Y-142193016D01*
X108678298Y-142215744D01*
X108677115Y-142216115D01*
X108649944Y-142217827D01*
X108590211Y-142219396D01*
X108502019Y-142220779D01*
X108389469Y-142221930D01*
X108256662Y-142222806D01*
X108107701Y-142223364D01*
X107946687Y-142223560D01*
X107222894Y-142223560D01*
X107222895Y-142172396D01*
X107222895Y-142121231D01*
X107907607Y-142111005D01*
X107907607Y-141773339D01*
X107968575Y-141767460D01*
X107999551Y-141765319D01*
X108020826Y-141772039D01*
G37*
G36*
X93603693Y-141313738D02*
G01*
X92496898Y-141313738D01*
X92496898Y-137880798D01*
X93603693Y-137880798D01*
X93603693Y-141313738D01*
G37*
G36*
X97599410Y-142214182D02*
G01*
X97604256Y-142223970D01*
X97631266Y-142257303D01*
X97677196Y-142307325D01*
X97736568Y-142368667D01*
X97803904Y-142435960D01*
X97873724Y-142503834D01*
X97940551Y-142566919D01*
X97998906Y-142619847D01*
X98043312Y-142657247D01*
X98068289Y-142673750D01*
X98090450Y-142683868D01*
X98105909Y-142701655D01*
X98108509Y-142707528D01*
X98133447Y-142731035D01*
X98176256Y-142760368D01*
X98194600Y-142771776D01*
X98235413Y-142799327D01*
X98256204Y-142816742D01*
X98269199Y-142828338D01*
X98311027Y-142856606D01*
X98373022Y-142894462D01*
X98447336Y-142937486D01*
X98526127Y-142981259D01*
X98601547Y-143021361D01*
X98665751Y-143053373D01*
X98710894Y-143072875D01*
X98742698Y-143085417D01*
X98783883Y-143106634D01*
X98800000Y-143122690D01*
X98799213Y-143126682D01*
X98782082Y-143155143D01*
X98749593Y-143193324D01*
X98722813Y-143220403D01*
X98693476Y-143241468D01*
X98670130Y-143237158D01*
X98641221Y-143209164D01*
X98616003Y-143185528D01*
X98596105Y-143175818D01*
X98595347Y-143176008D01*
X98587445Y-143175362D01*
X98572957Y-143169163D01*
X98547785Y-143154863D01*
X98507827Y-143129908D01*
X98448984Y-143091749D01*
X98367155Y-143037834D01*
X98258239Y-142965612D01*
X98239246Y-142953003D01*
X98160027Y-142900468D01*
X98091831Y-142855334D01*
X98041400Y-142822058D01*
X98015472Y-142805096D01*
X98007072Y-142799105D01*
X97968196Y-142766694D01*
X97911306Y-142715689D01*
X97842616Y-142651970D01*
X97768338Y-142581414D01*
X97694687Y-142509901D01*
X97627876Y-142443309D01*
X97574117Y-142387517D01*
X97561006Y-142373259D01*
X97535495Y-142338894D01*
X97531529Y-142307875D01*
X97545057Y-142262818D01*
X97555617Y-142237263D01*
X97576238Y-142203605D01*
X97592690Y-142194252D01*
X97599410Y-142214182D01*
G37*
G36*
X110036780Y-143433531D02*
G01*
X110007077Y-143431807D01*
X109985151Y-143417114D01*
X109980503Y-143377253D01*
X109980503Y-143320975D01*
X109586559Y-143320975D01*
X109586559Y-143367873D01*
X109585593Y-143385668D01*
X109571841Y-143409148D01*
X109532788Y-143414771D01*
X109479018Y-143414771D01*
X109482280Y-143026791D01*
X109482330Y-143020828D01*
X109586559Y-143020828D01*
X109586559Y-143227179D01*
X109974082Y-143227179D01*
X109978256Y-143124003D01*
X109982431Y-143020828D01*
X109586559Y-143020828D01*
X109482330Y-143020828D01*
X109483119Y-142927031D01*
X109586559Y-142927031D01*
X109980503Y-142927031D01*
X109980503Y-142720680D01*
X109586559Y-142720680D01*
X109586559Y-142927031D01*
X109483119Y-142927031D01*
X109485542Y-142638810D01*
X109700194Y-142643231D01*
X109914845Y-142647652D01*
X109825739Y-142560005D01*
X109781788Y-142514385D01*
X109749118Y-142475680D01*
X109736633Y-142454116D01*
X109723648Y-142446024D01*
X109681600Y-142440359D01*
X109619387Y-142439741D01*
X109519842Y-142442534D01*
X109447418Y-142442573D01*
X109401143Y-142438639D01*
X109375240Y-142429671D01*
X109363933Y-142414609D01*
X109361448Y-142392393D01*
X109362089Y-142374705D01*
X109368992Y-142358108D01*
X109389971Y-142349404D01*
X109432840Y-142346048D01*
X109505412Y-142345495D01*
X109649376Y-142345495D01*
X109611618Y-142303287D01*
X109595921Y-142284273D01*
X109562926Y-142240106D01*
X109525743Y-142187218D01*
X109490989Y-142135335D01*
X109479743Y-142117331D01*
X109605318Y-142117331D01*
X109605330Y-142117630D01*
X109616180Y-142140561D01*
X109643440Y-142184166D01*
X109681387Y-142239266D01*
X109698792Y-142263239D01*
X109745044Y-142320740D01*
X109776408Y-142344766D01*
X109795672Y-142334667D01*
X109805624Y-142289792D01*
X109809052Y-142209491D01*
X109810254Y-142101625D01*
X109707786Y-142101625D01*
X109665996Y-142102999D01*
X109622277Y-142108703D01*
X109605318Y-142117331D01*
X109479743Y-142117331D01*
X109465283Y-142094182D01*
X109455244Y-142073486D01*
X109450750Y-142063899D01*
X109430319Y-142030336D01*
X109398966Y-141982600D01*
X109386924Y-141964614D01*
X109355642Y-141913069D01*
X109346392Y-141880903D01*
X109358787Y-141859716D01*
X109392441Y-141841109D01*
X109432715Y-141829864D01*
X109468187Y-141844381D01*
X109486320Y-141892118D01*
X109490568Y-141907791D01*
X109510149Y-141954473D01*
X109538874Y-142009617D01*
X109544441Y-142019281D01*
X109569768Y-142059215D01*
X109582649Y-142068544D01*
X109586333Y-142050037D01*
X109588848Y-142028375D01*
X109602507Y-142014755D01*
X109636092Y-142009009D01*
X109698389Y-142007829D01*
X109810220Y-142007829D01*
X109806255Y-141878016D01*
X109802290Y-141748202D01*
X109863257Y-141741088D01*
X109924225Y-141733974D01*
X109924225Y-142013488D01*
X110107127Y-142001376D01*
X110147741Y-141999077D01*
X110246486Y-141995180D01*
X110365149Y-141992047D01*
X110492257Y-141989950D01*
X110616339Y-141989167D01*
X110942649Y-141989070D01*
X110931262Y-141867135D01*
X110919876Y-141745200D01*
X111054915Y-141745200D01*
X111045128Y-141867135D01*
X111035340Y-141989070D01*
X111341600Y-141989070D01*
X111388319Y-141988902D01*
X111496624Y-141986952D01*
X111580911Y-141983026D01*
X111636685Y-141977391D01*
X111659454Y-141970311D01*
X111677082Y-141964561D01*
X111729642Y-141959096D01*
X111813633Y-141955005D01*
X111925805Y-141952440D01*
X112062912Y-141951551D01*
X112454776Y-141951551D01*
X112448820Y-141848376D01*
X112447770Y-141827968D01*
X112447976Y-141776465D01*
X112455816Y-141751544D01*
X112473242Y-141744944D01*
X112495608Y-141743172D01*
X112542429Y-141734265D01*
X112543612Y-141733949D01*
X112564297Y-141731193D01*
X112574543Y-141742272D01*
X112576678Y-141775027D01*
X112573031Y-141837301D01*
X112564824Y-141950760D01*
X112946925Y-141955846D01*
X113329025Y-141960931D01*
X113329025Y-142054727D01*
X112949151Y-142059805D01*
X112569277Y-142064884D01*
X112569277Y-142214181D01*
X113113294Y-142214181D01*
X113115033Y-142322046D01*
X113115135Y-142328869D01*
X113115726Y-142392589D01*
X113116072Y-142475821D01*
X113116096Y-142495569D01*
X113116183Y-142569061D01*
X113116070Y-142662803D01*
X113115742Y-142747543D01*
X113115505Y-142776958D01*
X113115209Y-142813775D01*
X113114481Y-142851995D01*
X113114470Y-142852243D01*
X113107473Y-142866036D01*
X113083572Y-142873645D01*
X113035944Y-142876036D01*
X112957766Y-142874175D01*
X112945808Y-142873743D01*
X112859707Y-142871899D01*
X112778891Y-142872043D01*
X112719450Y-142874175D01*
X112636750Y-142880133D01*
X112776536Y-142984903D01*
X112826808Y-143021210D01*
X112977657Y-143116630D01*
X113132332Y-143196802D01*
X113277438Y-143254516D01*
X113286417Y-143257441D01*
X113342616Y-143277656D01*
X113368425Y-143294751D01*
X113368921Y-143315152D01*
X113349182Y-143345282D01*
X113336503Y-143358595D01*
X113310797Y-143368938D01*
X113271993Y-143365530D01*
X113213256Y-143347391D01*
X113127753Y-143313541D01*
X113126522Y-143313029D01*
X113011249Y-143261746D01*
X112922817Y-143215309D01*
X112865917Y-143176181D01*
X112841886Y-143162241D01*
X112811430Y-143162583D01*
X112800034Y-143167738D01*
X112801394Y-143155982D01*
X112800860Y-143138228D01*
X112776245Y-143114954D01*
X112751063Y-143097733D01*
X112704993Y-143059684D01*
X112653784Y-143012510D01*
X112569277Y-142930378D01*
X112569277Y-143433531D01*
X112453227Y-143433531D01*
X112466991Y-143166388D01*
X112480755Y-142899246D01*
X112408793Y-142971208D01*
X112377251Y-143001030D01*
X112269167Y-143087297D01*
X112140861Y-143171728D01*
X112004231Y-143246234D01*
X111939509Y-143278149D01*
X111878478Y-143308786D01*
X111837667Y-143329886D01*
X111802005Y-143347054D01*
X111776387Y-143355362D01*
X111751079Y-143358932D01*
X111707262Y-143367674D01*
X111656737Y-143368820D01*
X111613352Y-143340531D01*
X111595589Y-143321638D01*
X111586547Y-143301940D01*
X111603386Y-143290160D01*
X111613410Y-143278558D01*
X111597661Y-143256695D01*
X111552223Y-143220715D01*
X111523966Y-143199218D01*
X111475416Y-143157591D01*
X111444092Y-143124480D01*
X111434147Y-143111484D01*
X111397929Y-143067608D01*
X111354986Y-143018554D01*
X111312982Y-142967772D01*
X111297349Y-142932385D01*
X111309162Y-142906130D01*
X111348019Y-142881120D01*
X111348948Y-142880640D01*
X111386178Y-142863815D01*
X111403575Y-142868698D01*
X111413855Y-142898682D01*
X111418455Y-142910869D01*
X111448531Y-142956914D01*
X111498166Y-143015008D01*
X111559799Y-143077325D01*
X111625867Y-143136036D01*
X111688809Y-143183312D01*
X111761353Y-143231320D01*
X111886524Y-143182946D01*
X111904377Y-143175857D01*
X112017100Y-143124118D01*
X112133654Y-143060658D01*
X112240828Y-142993119D01*
X112325407Y-142929140D01*
X112391064Y-142872279D01*
X112133124Y-142871516D01*
X111875185Y-142870754D01*
X111873622Y-142758198D01*
X111873022Y-142709958D01*
X111872329Y-142636210D01*
X111872058Y-142579986D01*
X111997120Y-142579986D01*
X111997613Y-142673782D01*
X111998105Y-142767578D01*
X112456721Y-142778112D01*
X112456721Y-142776958D01*
X112569277Y-142776958D01*
X113019498Y-142776958D01*
X113019498Y-142570606D01*
X112569277Y-142570606D01*
X112569277Y-142776958D01*
X112456721Y-142776958D01*
X112456721Y-142576083D01*
X112226921Y-142578034D01*
X111997120Y-142579986D01*
X111872058Y-142579986D01*
X111872062Y-142575455D01*
X111872306Y-142520907D01*
X111872493Y-142495569D01*
X111989889Y-142495569D01*
X113019498Y-142495569D01*
X113019498Y-142307977D01*
X112569277Y-142307977D01*
X112569277Y-142495569D01*
X112456721Y-142495569D01*
X112456721Y-142307977D01*
X111991342Y-142307977D01*
X111990615Y-142401773D01*
X111989889Y-142495569D01*
X111872493Y-142495569D01*
X111872862Y-142445547D01*
X111873622Y-142364254D01*
X111875185Y-142214181D01*
X112456721Y-142214181D01*
X112456721Y-142064107D01*
X112122182Y-142064107D01*
X112025455Y-142064604D01*
X111928594Y-142066230D01*
X111850567Y-142068782D01*
X111797601Y-142072051D01*
X111775925Y-142075824D01*
X111764144Y-142077819D01*
X111718692Y-142080204D01*
X111643393Y-142082130D01*
X111542681Y-142083540D01*
X111420990Y-142084377D01*
X111282757Y-142084584D01*
X111132416Y-142084104D01*
X111067777Y-142083827D01*
X110899233Y-142083727D01*
X110731221Y-142084440D01*
X110571137Y-142085887D01*
X110426378Y-142087990D01*
X110304342Y-142090670D01*
X110212424Y-142093849D01*
X110042417Y-142101625D01*
X109924225Y-142107031D01*
X109924225Y-142345495D01*
X110122502Y-142345495D01*
X110173850Y-142345552D01*
X110244349Y-142346516D01*
X110287239Y-142349797D01*
X110308973Y-142356811D01*
X110316003Y-142368974D01*
X110314784Y-142387704D01*
X110312082Y-142401092D01*
X110303232Y-142414944D01*
X110282661Y-142424236D01*
X110243926Y-142430421D01*
X110180583Y-142434955D01*
X110086187Y-142439291D01*
X109863584Y-142448671D01*
X109964252Y-142543495D01*
X109973382Y-142551981D01*
X110033774Y-142604187D01*
X110102792Y-142658886D01*
X110172980Y-142710733D01*
X110236886Y-142754383D01*
X110287055Y-142784493D01*
X110316032Y-142795717D01*
X110335490Y-142801623D01*
X110348733Y-142828213D01*
X110336246Y-142862196D01*
X110318730Y-142878717D01*
X110285817Y-142887242D01*
X110240733Y-142872236D01*
X110176165Y-142832334D01*
X110093058Y-142775155D01*
X110093058Y-143433531D01*
X110036780Y-143433531D01*
G37*
G36*
X97260484Y-142119209D02*
G01*
X97272319Y-142132138D01*
X97274322Y-142156484D01*
X97264517Y-142199665D01*
X97241915Y-142269711D01*
X97219808Y-142331148D01*
X97199291Y-142374972D01*
X97180389Y-142394959D01*
X97158758Y-142397798D01*
X97134218Y-142383439D01*
X97123264Y-142340967D01*
X97133438Y-142274881D01*
X97164628Y-142189177D01*
X97185796Y-142144087D01*
X97208105Y-142111527D01*
X97230580Y-142105001D01*
X97260484Y-142119209D01*
G37*
G36*
X105043691Y-141761625D02*
G01*
X105051813Y-141771461D01*
X105051082Y-141796747D01*
X105034764Y-141841396D01*
X105001035Y-141911832D01*
X104978609Y-141955843D01*
X104951452Y-142004377D01*
X104931583Y-142028202D01*
X104913478Y-142033003D01*
X104891613Y-142024468D01*
X104863282Y-142009336D01*
X104844359Y-141998231D01*
X104847405Y-141982020D01*
X104862068Y-141944845D01*
X104882615Y-141899908D01*
X104903053Y-141860271D01*
X104917391Y-141838996D01*
X104929812Y-141823105D01*
X104950880Y-141787408D01*
X104963771Y-141767259D01*
X104998695Y-141746589D01*
X105043691Y-141761625D01*
G37*
G36*
X97338880Y-143154110D02*
G01*
X97335228Y-143267162D01*
X97329396Y-143354702D01*
X97321572Y-143412741D01*
X97311946Y-143437286D01*
X97294124Y-143442051D01*
X97258248Y-143429002D01*
X97227738Y-143396977D01*
X97214845Y-143356206D01*
X97214845Y-143355875D01*
X97213613Y-143337313D01*
X97205802Y-143324663D01*
X97185225Y-143316582D01*
X97145698Y-143311728D01*
X97081033Y-143308758D01*
X96985045Y-143306329D01*
X96755244Y-143301061D01*
X96755244Y-143357916D01*
X96753736Y-143386251D01*
X96740195Y-143409598D01*
X96703656Y-143414786D01*
X96652068Y-143414800D01*
X96652068Y-142854116D01*
X96756838Y-142854116D01*
X96759420Y-143031268D01*
X96762003Y-143208420D01*
X96982627Y-143208420D01*
X97066967Y-143207313D01*
X97140061Y-143204159D01*
X97191101Y-143199451D01*
X97212358Y-143193686D01*
X97214213Y-143186965D01*
X97217614Y-143149042D01*
X97219641Y-143087183D01*
X97219904Y-143010783D01*
X97218344Y-142842615D01*
X96987591Y-142848365D01*
X96756838Y-142854116D01*
X96652068Y-142854116D01*
X96652068Y-142739497D01*
X97336780Y-142739439D01*
X97338871Y-142866064D01*
X97338893Y-142867432D01*
X97340092Y-143010783D01*
X97340165Y-143019536D01*
X97338880Y-143154110D01*
G37*
G36*
X90907709Y-142153148D02*
G01*
X90966984Y-142155700D01*
X91003707Y-142159835D01*
X91021633Y-142165716D01*
X91024519Y-142173507D01*
X91019896Y-142189925D01*
X91014919Y-142233744D01*
X91014009Y-142243686D01*
X91004540Y-142257381D01*
X90978928Y-142265891D01*
X90930049Y-142270981D01*
X90850776Y-142274418D01*
X90788546Y-142276145D01*
X90703390Y-142277475D01*
X90605760Y-142277817D01*
X90489396Y-142277157D01*
X90348043Y-142275479D01*
X90175444Y-142272769D01*
X90039439Y-142270458D01*
X90039439Y-142214181D01*
X90045817Y-142174483D01*
X90062888Y-142158013D01*
X90080041Y-142157917D01*
X90130984Y-142157488D01*
X90209806Y-142156764D01*
X90311175Y-142155795D01*
X90429759Y-142154632D01*
X90560228Y-142153323D01*
X90706472Y-142152140D01*
X90822124Y-142152016D01*
X90907709Y-142153148D01*
G37*
G36*
X85518464Y-142936411D02*
G01*
X85509085Y-142945791D01*
X85499705Y-142936411D01*
X85509085Y-142927031D01*
X85518464Y-142936411D01*
G37*
G36*
X85330872Y-138818760D02*
G01*
X85330872Y-139719203D01*
X86381389Y-139719203D01*
X86381389Y-140038110D01*
X86099468Y-140038110D01*
X86151147Y-140117836D01*
X86169809Y-140146288D01*
X86197420Y-140186946D01*
X86212380Y-140206943D01*
X86215715Y-140211084D01*
X86231076Y-140249816D01*
X86245790Y-140313540D01*
X86258608Y-140391991D01*
X86268283Y-140474905D01*
X86273566Y-140552018D01*
X86273520Y-140559892D01*
X86273212Y-140613066D01*
X86265970Y-140647785D01*
X86264912Y-140649676D01*
X86253004Y-140682647D01*
X86240489Y-140731704D01*
X86238654Y-140739456D01*
X86216428Y-140802092D01*
X86185375Y-140863019D01*
X86177148Y-140876277D01*
X86148752Y-140922360D01*
X86130401Y-140952622D01*
X86131930Y-140955916D01*
X86146863Y-140959981D01*
X86178565Y-140963497D01*
X86229111Y-140966499D01*
X86300575Y-140969021D01*
X86395032Y-140971095D01*
X86514558Y-140972757D01*
X86661227Y-140974041D01*
X86837114Y-140974980D01*
X87044294Y-140975609D01*
X87284842Y-140975961D01*
X87560833Y-140976071D01*
X89005121Y-140976071D01*
X88900760Y-140816618D01*
X88869372Y-140769765D01*
X88828022Y-140711673D01*
X88796577Y-140671908D01*
X88780105Y-140657164D01*
X88775515Y-140656342D01*
X88763811Y-140636939D01*
X88763809Y-140636814D01*
X88753192Y-140613814D01*
X88724547Y-140566063D01*
X88681721Y-140499165D01*
X88628564Y-140418728D01*
X88568925Y-140330356D01*
X88506650Y-140239656D01*
X88445591Y-140152234D01*
X88389593Y-140073695D01*
X88342507Y-140009646D01*
X88308181Y-139965693D01*
X88290462Y-139947440D01*
X88288147Y-139946197D01*
X88276071Y-139922962D01*
X88275034Y-139917490D01*
X88259280Y-139884935D01*
X88229714Y-139837042D01*
X88192997Y-139783292D01*
X88155788Y-139733163D01*
X88124749Y-139696134D01*
X88106539Y-139681684D01*
X88102222Y-139681167D01*
X88093169Y-139665051D01*
X88092437Y-139662203D01*
X88077228Y-139634757D01*
X88045002Y-139582958D01*
X87999057Y-139511705D01*
X87942695Y-139425898D01*
X87879214Y-139330434D01*
X87811916Y-139230214D01*
X87744100Y-139130137D01*
X87679065Y-139035100D01*
X87620112Y-138950004D01*
X87570541Y-138879748D01*
X87533651Y-138829230D01*
X87512743Y-138803350D01*
X87500035Y-138787993D01*
X87488184Y-138761142D01*
X87488577Y-138760414D01*
X87511962Y-138755724D01*
X87569103Y-138751666D01*
X87656717Y-138748338D01*
X87771521Y-138745840D01*
X87910233Y-138744268D01*
X88069570Y-138743723D01*
X88650957Y-138743723D01*
X88738275Y-138875037D01*
X88753159Y-138897079D01*
X88793179Y-138952887D01*
X88824587Y-138991761D01*
X88841601Y-139006352D01*
X88845479Y-139006919D01*
X88857607Y-139025336D01*
X88865319Y-139046016D01*
X88889372Y-139088812D01*
X88923950Y-139143630D01*
X88963076Y-139201639D01*
X89000771Y-139254007D01*
X89031055Y-139291905D01*
X89047952Y-139306500D01*
X89054221Y-139308476D01*
X89063959Y-139331101D01*
X89074134Y-139358824D01*
X89101477Y-139395974D01*
X89127481Y-139427455D01*
X89138996Y-139448958D01*
X89143344Y-139458635D01*
X89165244Y-139494156D01*
X89201431Y-139548293D01*
X89247208Y-139613886D01*
X89268959Y-139644673D01*
X89325458Y-139726097D01*
X89378172Y-139803857D01*
X89417997Y-139864587D01*
X89480573Y-139963073D01*
X90881702Y-139963073D01*
X91288714Y-140558678D01*
X91305001Y-140582503D01*
X91395482Y-140714532D01*
X91479449Y-140836515D01*
X91554469Y-140944959D01*
X91618110Y-141036366D01*
X91667940Y-141107242D01*
X91701526Y-141154091D01*
X91716438Y-141173418D01*
X91726290Y-141184163D01*
X91751697Y-141219994D01*
X91774290Y-141259250D01*
X91784048Y-141285344D01*
X91780681Y-141285690D01*
X91746687Y-141286493D01*
X91677315Y-141287277D01*
X91574067Y-141288039D01*
X91438446Y-141288775D01*
X91271953Y-141289485D01*
X91076092Y-141290164D01*
X90852364Y-141290810D01*
X90602271Y-141291420D01*
X90327316Y-141291991D01*
X90029001Y-141292522D01*
X89708829Y-141293008D01*
X89368301Y-141293447D01*
X89008920Y-141293837D01*
X88632188Y-141294174D01*
X88239607Y-141294456D01*
X87832680Y-141294680D01*
X87412909Y-141294844D01*
X86981795Y-141294944D01*
X86540842Y-141294978D01*
X81297637Y-141294978D01*
X81297637Y-140977049D01*
X81582415Y-140971870D01*
X81584842Y-140971826D01*
X81692919Y-140969497D01*
X81768382Y-140966691D01*
X81816044Y-140962779D01*
X81840719Y-140957131D01*
X81847218Y-140949117D01*
X81840354Y-140938106D01*
X81824898Y-140918320D01*
X81807322Y-140882006D01*
X81803700Y-140869958D01*
X81788563Y-140844934D01*
X81781783Y-140836936D01*
X81774365Y-140815707D01*
X81767912Y-140776475D01*
X81761435Y-140712752D01*
X81756133Y-140645737D01*
X82086738Y-140645737D01*
X82094574Y-140686512D01*
X82125570Y-140753913D01*
X82172560Y-140821190D01*
X82227399Y-140875067D01*
X82270648Y-140901861D01*
X82365793Y-140931364D01*
X82466282Y-140931340D01*
X82559266Y-140900794D01*
X82561193Y-140899729D01*
X82606819Y-140865658D01*
X82651824Y-140818718D01*
X82689250Y-140768240D01*
X82712138Y-140723552D01*
X82713528Y-140693985D01*
X82710818Y-140687318D01*
X82722232Y-140675924D01*
X82725509Y-140674566D01*
X82735154Y-140650184D01*
X82740807Y-140605389D01*
X82741998Y-140553489D01*
X82738255Y-140507789D01*
X82729108Y-140481595D01*
X82720689Y-140467302D01*
X82710150Y-140429497D01*
X82707887Y-140418472D01*
X82678537Y-140355955D01*
X82627900Y-140295360D01*
X82567096Y-140250595D01*
X82486059Y-140218940D01*
X82383098Y-140209789D01*
X82286288Y-140237205D01*
X82197945Y-140300872D01*
X82184286Y-140314453D01*
X82141398Y-140362924D01*
X82122026Y-140400548D01*
X82120822Y-140436743D01*
X82120970Y-140438179D01*
X82108036Y-140450813D01*
X82101891Y-140453820D01*
X82091753Y-140483680D01*
X82086770Y-140547031D01*
X82086738Y-140645737D01*
X81756133Y-140645737D01*
X81753943Y-140618052D01*
X81750864Y-140555906D01*
X81755704Y-140457605D01*
X81775654Y-140364802D01*
X81790701Y-140312882D01*
X81804156Y-140266082D01*
X81810223Y-140244461D01*
X81812259Y-140239692D01*
X81829166Y-140215214D01*
X81865206Y-140170259D01*
X81923325Y-140101089D01*
X81976856Y-140038110D01*
X82855229Y-140038110D01*
X82929795Y-140136596D01*
X83013350Y-140276761D01*
X83062490Y-140429073D01*
X83073080Y-140553489D01*
X83076069Y-140588610D01*
X83053155Y-140750737D01*
X83035474Y-140812217D01*
X83013529Y-140874314D01*
X82994600Y-140914188D01*
X82976398Y-140944521D01*
X82967209Y-140966032D01*
X82977083Y-140967400D01*
X83020683Y-140969174D01*
X83096010Y-140970814D01*
X83199721Y-140972288D01*
X83328475Y-140973566D01*
X83478932Y-140974615D01*
X83647750Y-140975403D01*
X83831589Y-140975899D01*
X84027105Y-140976071D01*
X84033416Y-140976071D01*
X84266288Y-140975745D01*
X84473697Y-140974817D01*
X84653921Y-140973317D01*
X84805238Y-140971273D01*
X84925927Y-140968715D01*
X85014265Y-140965672D01*
X85068531Y-140962172D01*
X85087002Y-140958244D01*
X85082631Y-140946535D01*
X85057182Y-140923729D01*
X85041547Y-140913072D01*
X85028228Y-140894999D01*
X85027711Y-140890715D01*
X85017894Y-140859446D01*
X84999413Y-140812269D01*
X84969595Y-140727093D01*
X84942456Y-140566070D01*
X84944866Y-140516470D01*
X85283974Y-140516470D01*
X85284923Y-140572393D01*
X85291411Y-140632523D01*
X85307119Y-140679720D01*
X85335583Y-140728511D01*
X85350700Y-140749028D01*
X85404578Y-140804292D01*
X85461460Y-140844386D01*
X85527638Y-140869980D01*
X85631503Y-140879581D01*
X85732411Y-140853310D01*
X85825180Y-140791914D01*
X85836976Y-140780023D01*
X85865663Y-140742767D01*
X85889510Y-140702530D01*
X85902552Y-140670253D01*
X85898820Y-140656877D01*
X85894848Y-140654537D01*
X85908770Y-140641051D01*
X85925395Y-140613929D01*
X85933350Y-140559892D01*
X85931098Y-140490982D01*
X85919062Y-140418149D01*
X85897663Y-140352343D01*
X85847483Y-140270185D01*
X85772145Y-140202913D01*
X85683839Y-140164067D01*
X85589298Y-140154222D01*
X85495253Y-140173952D01*
X85408438Y-140223830D01*
X85335583Y-140304429D01*
X85314605Y-140338594D01*
X85295231Y-140384723D01*
X85286199Y-140439172D01*
X85283974Y-140516470D01*
X84944866Y-140516470D01*
X84950345Y-140403677D01*
X84992672Y-140245989D01*
X85068844Y-140099077D01*
X85109445Y-140038110D01*
X82855229Y-140038110D01*
X81976856Y-140038110D01*
X81635303Y-140038110D01*
X81635303Y-139719203D01*
X82160562Y-139719203D01*
X82160562Y-138499853D01*
X85105761Y-138499853D01*
X85574742Y-138499853D01*
X85574742Y-138039979D01*
X85340252Y-138040115D01*
X85105761Y-138040252D01*
X85105761Y-138499853D01*
X82160562Y-138499853D01*
X82160562Y-137205466D01*
X83154141Y-137205466D01*
X83236191Y-137205463D01*
X83441845Y-137205393D01*
X83614101Y-137205141D01*
X83755995Y-137204597D01*
X83870564Y-137203646D01*
X83960844Y-137202177D01*
X84029872Y-137200078D01*
X84080685Y-137197236D01*
X84116319Y-137193539D01*
X84139811Y-137188873D01*
X84154198Y-137183128D01*
X84162515Y-137176190D01*
X84167799Y-137167947D01*
X84177192Y-137143989D01*
X84173149Y-137130142D01*
X84168773Y-137128545D01*
X84179251Y-137116072D01*
X84194133Y-137101118D01*
X84217223Y-137066588D01*
X84238001Y-137026789D01*
X84250313Y-136993892D01*
X84248008Y-136980068D01*
X84243782Y-136978292D01*
X84255531Y-136965741D01*
X84256502Y-136965002D01*
X84273941Y-136940427D01*
X84302857Y-136889445D01*
X84339462Y-136819049D01*
X84379964Y-136736227D01*
X84382300Y-136731315D01*
X84415414Y-136662326D01*
X84462316Y-136565418D01*
X84520453Y-136445829D01*
X84587272Y-136308798D01*
X84660217Y-136159561D01*
X84736736Y-136003356D01*
X84814276Y-135845421D01*
X84878225Y-135715255D01*
X84949367Y-135569975D01*
X85006320Y-135452580D01*
X85050453Y-135359786D01*
X85083136Y-135288310D01*
X85105739Y-135234866D01*
X85119632Y-135196171D01*
X85126185Y-135168940D01*
X85126767Y-135149890D01*
X85122748Y-135135735D01*
X85115497Y-135123191D01*
X85070574Y-135050067D01*
X85036067Y-134977203D01*
X85015349Y-134902666D01*
X85005247Y-134814591D01*
X85002585Y-134701108D01*
X85002682Y-134689989D01*
X85316613Y-134689989D01*
X85329888Y-134800629D01*
X85344894Y-134842416D01*
X85393988Y-134924669D01*
X85459812Y-134995323D01*
X85531638Y-135041569D01*
X85601119Y-135061638D01*
X85697317Y-135061357D01*
X85786421Y-135031368D01*
X85863937Y-134976257D01*
X85925371Y-134900607D01*
X85966228Y-134809002D01*
X85982014Y-134706025D01*
X85968235Y-134596260D01*
X85960159Y-134572046D01*
X85917786Y-134496444D01*
X85856578Y-134426506D01*
X85786519Y-134372290D01*
X85717595Y-134343850D01*
X85625554Y-134339718D01*
X85528474Y-134365338D01*
X85444615Y-134418388D01*
X85378402Y-134493655D01*
X85334260Y-134585927D01*
X85316613Y-134689989D01*
X85002682Y-134689989D01*
X85003364Y-134612237D01*
X85007038Y-134541638D01*
X85015334Y-134487890D01*
X85029973Y-134440230D01*
X85052676Y-134387895D01*
X85056667Y-134379552D01*
X85138034Y-134253388D01*
X85247826Y-134145047D01*
X85378792Y-134061779D01*
X85382081Y-134060168D01*
X85444446Y-134032448D01*
X85500026Y-134016334D01*
X85563559Y-134008850D01*
X85649779Y-134007017D01*
X85652075Y-134007017D01*
X85737824Y-134008968D01*
X85801146Y-134016656D01*
X85856704Y-134033019D01*
X85919161Y-134060994D01*
X85928943Y-134066025D01*
X85978737Y-134096261D01*
X86035504Y-134136135D01*
X86092972Y-134180440D01*
X86144866Y-134223965D01*
X86184912Y-134261504D01*
X86206839Y-134287846D01*
X86204370Y-134297785D01*
X86200641Y-134305733D01*
X86216618Y-134330613D01*
X86226978Y-134344181D01*
X86259706Y-134410033D01*
X86286342Y-134497026D01*
X86303618Y-134592554D01*
X86308263Y-134684011D01*
X86307551Y-134706025D01*
X86304520Y-134799659D01*
X86629032Y-134978608D01*
X86718108Y-135027687D01*
X86844756Y-135097355D01*
X86970812Y-135166589D01*
X87085528Y-135229486D01*
X87178154Y-135280143D01*
X87402762Y-135402729D01*
X87454022Y-135323927D01*
X87471538Y-135295914D01*
X87495462Y-135252690D01*
X87504510Y-135228464D01*
X87504788Y-135224346D01*
X87520818Y-135200325D01*
X87522478Y-135198994D01*
X87543273Y-135174598D01*
X87577168Y-135128860D01*
X87617702Y-135070444D01*
X87623498Y-135061933D01*
X87665976Y-135004339D01*
X87703562Y-134960761D01*
X87728707Y-134940067D01*
X87768916Y-134929824D01*
X87835733Y-134930872D01*
X87896238Y-134950126D01*
X87940216Y-134983676D01*
X87957454Y-135027612D01*
X87957583Y-135029243D01*
X87971671Y-135059318D01*
X88004454Y-135106284D01*
X88049414Y-135160709D01*
X88100599Y-135218827D01*
X88149954Y-135275764D01*
X88185130Y-135317314D01*
X88220552Y-135360185D01*
X88267539Y-135416733D01*
X88324542Y-135484977D01*
X88398643Y-135573413D01*
X88485174Y-135676588D01*
X88385838Y-135764657D01*
X88380815Y-135769129D01*
X88334462Y-135812546D01*
X88303840Y-135845126D01*
X88295356Y-135860113D01*
X88296190Y-135860532D01*
X88321631Y-135866488D01*
X88377496Y-135877182D01*
X88458023Y-135891580D01*
X88557450Y-135908649D01*
X88670015Y-135927355D01*
X88732537Y-135937719D01*
X88852889Y-135958860D01*
X88941701Y-135976666D01*
X89002946Y-135992078D01*
X89040597Y-136006039D01*
X89058629Y-136019491D01*
X89073322Y-136040074D01*
X89096148Y-136071265D01*
X89100062Y-136077015D01*
X89115851Y-136114385D01*
X89117230Y-136118361D01*
X89131235Y-136151154D01*
X89158824Y-136212856D01*
X89198282Y-136299719D01*
X89247896Y-136407998D01*
X89305950Y-136533946D01*
X89370731Y-136673816D01*
X89440524Y-136823863D01*
X89467166Y-136881085D01*
X89534633Y-137026568D01*
X89596027Y-137159785D01*
X89649707Y-137277118D01*
X89694030Y-137374950D01*
X89727355Y-137449663D01*
X89748038Y-137497640D01*
X89754437Y-137515264D01*
X89751949Y-137515793D01*
X89722841Y-137513504D01*
X89668689Y-137505928D01*
X89598597Y-137494289D01*
X89588591Y-137492534D01*
X89505824Y-137478899D01*
X89428960Y-137467569D01*
X89373486Y-137460846D01*
X89360726Y-137459562D01*
X89306605Y-137451942D01*
X89270311Y-137443543D01*
X89263212Y-137441214D01*
X89218733Y-137430684D01*
X89153875Y-137418593D01*
X89078183Y-137406332D01*
X89001204Y-137395293D01*
X88932485Y-137386868D01*
X88881572Y-137382450D01*
X88858011Y-137383429D01*
X88850882Y-137385789D01*
X88828973Y-137373497D01*
X88813811Y-137362363D01*
X88776089Y-137357221D01*
X88749256Y-137357455D01*
X88707534Y-137349590D01*
X88701816Y-137347554D01*
X88659751Y-137337768D01*
X88604358Y-137329361D01*
X88592331Y-137327970D01*
X88516726Y-137318327D01*
X88463750Y-137305946D01*
X88425597Y-137284627D01*
X88394463Y-137248167D01*
X88362544Y-137190364D01*
X88322033Y-137105016D01*
X88290170Y-137037930D01*
X88257737Y-136971783D01*
X88233673Y-136925152D01*
X88221641Y-136905318D01*
X88220016Y-136903798D01*
X88207236Y-136877179D01*
X88199696Y-136856631D01*
X88179121Y-136808533D01*
X88148884Y-136740960D01*
X88112302Y-136661448D01*
X88080807Y-136593537D01*
X88041493Y-136507979D01*
X88008249Y-136434782D01*
X87986006Y-136384749D01*
X87974747Y-136360200D01*
X87953023Y-136320636D01*
X87938683Y-136305023D01*
X87934020Y-136303417D01*
X87925535Y-136281574D01*
X87917946Y-136256887D01*
X87897097Y-136205735D01*
X87866211Y-136135805D01*
X87828511Y-136054635D01*
X87791787Y-135975882D01*
X87758008Y-135900511D01*
X87733262Y-135842015D01*
X87721230Y-135808830D01*
X87710610Y-135766515D01*
X87928892Y-135803196D01*
X88012919Y-135816451D01*
X88085139Y-135826149D01*
X88135678Y-135831012D01*
X88156914Y-135830138D01*
X88157370Y-135827697D01*
X88144422Y-135803381D01*
X88112586Y-135759448D01*
X88067116Y-135702021D01*
X88013267Y-135637222D01*
X87956294Y-135571173D01*
X87901452Y-135509999D01*
X87853997Y-135459820D01*
X87819183Y-135426760D01*
X87802266Y-135416941D01*
X87792214Y-135426702D01*
X87764571Y-135462760D01*
X87728429Y-135515437D01*
X87689819Y-135575284D01*
X87654773Y-135632847D01*
X87629322Y-135678677D01*
X87619498Y-135703322D01*
X87618674Y-135709059D01*
X87599632Y-135723486D01*
X87592847Y-135724959D01*
X87591359Y-135742246D01*
X87594411Y-135749404D01*
X87584918Y-135761005D01*
X87582777Y-135761910D01*
X87563496Y-135782838D01*
X87531123Y-135825831D01*
X87490653Y-135883383D01*
X87447080Y-135947985D01*
X87405398Y-136012131D01*
X87370600Y-136068311D01*
X87347681Y-136109020D01*
X87341634Y-136126748D01*
X87352343Y-136133082D01*
X87388900Y-136152276D01*
X87441285Y-136178674D01*
X87449603Y-136182834D01*
X87502282Y-136209950D01*
X87571433Y-136246369D01*
X87649964Y-136288259D01*
X87730783Y-136331785D01*
X87806797Y-136373115D01*
X87870916Y-136408415D01*
X87916047Y-136433852D01*
X87935099Y-136445593D01*
X87935522Y-136446338D01*
X87930249Y-136468025D01*
X87912398Y-136507252D01*
X87910074Y-136511862D01*
X87895086Y-136551823D01*
X87895382Y-136574653D01*
X87898127Y-136578390D01*
X87888103Y-136586411D01*
X87881703Y-136589207D01*
X87859757Y-136615817D01*
X87835229Y-136661448D01*
X87825433Y-136681888D01*
X87802389Y-136720969D01*
X87786119Y-136736485D01*
X87770493Y-136733140D01*
X87730108Y-136717415D01*
X87682671Y-136694893D01*
X87642178Y-136672399D01*
X87622625Y-136656758D01*
X87622434Y-136656343D01*
X87602215Y-136642689D01*
X87599629Y-136642051D01*
X87571278Y-136629086D01*
X87518369Y-136601963D01*
X87447333Y-136564039D01*
X87364598Y-136518669D01*
X87349336Y-136510262D01*
X87261536Y-136464188D01*
X87181054Y-136425509D01*
X87116249Y-136398069D01*
X87075480Y-136385711D01*
X87008761Y-136369535D01*
X86947207Y-136329661D01*
X86916259Y-136268561D01*
X86914278Y-136259003D01*
X86910414Y-136224356D01*
X86914610Y-136189152D01*
X86929455Y-136147282D01*
X86957538Y-136092642D01*
X87001448Y-136019126D01*
X87063773Y-135920628D01*
X87073691Y-135905107D01*
X87122429Y-135827729D01*
X87162460Y-135762371D01*
X87189873Y-135715515D01*
X87200757Y-135693640D01*
X87200495Y-135692776D01*
X87180949Y-135677629D01*
X87134041Y-135648004D01*
X87064749Y-135606668D01*
X86978052Y-135556386D01*
X86878927Y-135499925D01*
X86772353Y-135440048D01*
X86663308Y-135379523D01*
X86556769Y-135321115D01*
X86457716Y-135267589D01*
X86371126Y-135221711D01*
X86301978Y-135186247D01*
X86255249Y-135163962D01*
X86235917Y-135157622D01*
X86229910Y-135157898D01*
X86211516Y-135140268D01*
X86204746Y-135133613D01*
X86182439Y-135139943D01*
X86146292Y-135176769D01*
X86115799Y-135209978D01*
X86004649Y-135297374D01*
X85873988Y-135360383D01*
X85733343Y-135395203D01*
X85592238Y-135398028D01*
X85549246Y-135392855D01*
X85491532Y-135383661D01*
X85456032Y-135375082D01*
X85446785Y-135375829D01*
X85431765Y-135388657D01*
X85410895Y-135417358D01*
X85382491Y-135464945D01*
X85344865Y-135534431D01*
X85296332Y-135628829D01*
X85235204Y-135751153D01*
X85159797Y-135904415D01*
X85155635Y-135912916D01*
X85079154Y-136069112D01*
X84997971Y-136234907D01*
X84916326Y-136401643D01*
X84838458Y-136560660D01*
X84768609Y-136703299D01*
X84711019Y-136820901D01*
X84527283Y-137196086D01*
X84929077Y-137201142D01*
X85330872Y-137206197D01*
X85330872Y-137693206D01*
X85912408Y-137693206D01*
X85912408Y-138818760D01*
X85330872Y-138818760D01*
G37*
G36*
X104838576Y-142367212D02*
G01*
X104981172Y-142368594D01*
X105014350Y-142368968D01*
X105148142Y-142370650D01*
X105249773Y-142372523D01*
X105323659Y-142375006D01*
X105374212Y-142378514D01*
X105405848Y-142383465D01*
X105422980Y-142390278D01*
X105430022Y-142399368D01*
X105431389Y-142411153D01*
X105431057Y-142418114D01*
X105426701Y-142429121D01*
X105413449Y-142437391D01*
X105386531Y-142443507D01*
X105341179Y-142448049D01*
X105272623Y-142451599D01*
X105176095Y-142454739D01*
X105046825Y-142458051D01*
X104662260Y-142467430D01*
X104778644Y-142544720D01*
X104847459Y-142586833D01*
X104902331Y-142610213D01*
X104942787Y-142612881D01*
X104966217Y-142609605D01*
X104982887Y-142616472D01*
X104989420Y-142643648D01*
X104990547Y-142699734D01*
X104990547Y-142795717D01*
X105762167Y-142795717D01*
X105756232Y-142845668D01*
X105750296Y-142895619D01*
X105375111Y-142897256D01*
X104999927Y-142898893D01*
X104994602Y-143100554D01*
X104993836Y-143127359D01*
X104991670Y-143209934D01*
X104994508Y-143262856D01*
X105007290Y-143292364D01*
X105034955Y-143304699D01*
X105082442Y-143306101D01*
X105154690Y-143302810D01*
X105167225Y-143302294D01*
X105221376Y-143301371D01*
X105246136Y-143308024D01*
X105248442Y-143327673D01*
X105235230Y-143365736D01*
X105223786Y-143389014D01*
X105203087Y-143405393D01*
X105164906Y-143413940D01*
X105099225Y-143418545D01*
X105042606Y-143419512D01*
X104995396Y-143416561D01*
X104974914Y-143410082D01*
X104970433Y-143404612D01*
X104942746Y-143396012D01*
X104920073Y-143388929D01*
X104900369Y-143360268D01*
X104887362Y-143305946D01*
X104880191Y-143222085D01*
X104877992Y-143104810D01*
X104877992Y-142886178D01*
X104493413Y-142892535D01*
X104391762Y-142893776D01*
X104270071Y-142893640D01*
X104180003Y-142891280D01*
X104123504Y-142886757D01*
X104102522Y-142880133D01*
X104100529Y-142866702D01*
X104104724Y-142828545D01*
X104105009Y-142827504D01*
X104111200Y-142816631D01*
X104125858Y-142808546D01*
X104153825Y-142802843D01*
X104199942Y-142799116D01*
X104269052Y-142796956D01*
X104365996Y-142795959D01*
X104495615Y-142795717D01*
X104877992Y-142795717D01*
X104877664Y-142753509D01*
X104876644Y-142744006D01*
X104860653Y-142714785D01*
X104821080Y-142680552D01*
X104752543Y-142636263D01*
X104740340Y-142628943D01*
X104680169Y-142593380D01*
X104633589Y-142566693D01*
X104609832Y-142554192D01*
X104589231Y-142540730D01*
X104556055Y-142511299D01*
X104527077Y-142490039D01*
X104502123Y-142486612D01*
X104489374Y-142486419D01*
X104484505Y-142464202D01*
X104490798Y-142429700D01*
X104507501Y-142395628D01*
X104513114Y-142389279D01*
X104527250Y-142380674D01*
X104551295Y-142374391D01*
X104589850Y-142370166D01*
X104647515Y-142367736D01*
X104728890Y-142366839D01*
X104838576Y-142367212D01*
G37*
G36*
X101866340Y-142607681D02*
G01*
X101876514Y-142646750D01*
X101880084Y-142667510D01*
X101896381Y-142683161D01*
X101902431Y-142684107D01*
X101906113Y-142699558D01*
X101905708Y-142700422D01*
X101911792Y-142725474D01*
X101934671Y-142770548D01*
X101968638Y-142826699D01*
X102007986Y-142884979D01*
X102047009Y-142936444D01*
X102079999Y-142972147D01*
X102085757Y-142977301D01*
X102114984Y-143009975D01*
X102112526Y-143032542D01*
X102078176Y-143054210D01*
X102047270Y-143067228D01*
X102015658Y-143075836D01*
X101996136Y-143066790D01*
X101960338Y-143031691D01*
X101917361Y-142977255D01*
X101873098Y-142911087D01*
X101833444Y-142840789D01*
X101812831Y-142802714D01*
X101780885Y-142751956D01*
X101756043Y-142721894D01*
X101729593Y-142686977D01*
X101737691Y-142651290D01*
X101783269Y-142617219D01*
X101834922Y-142598387D01*
X101866340Y-142607681D01*
G37*
G36*
X101154284Y-139628153D02*
G01*
X101403988Y-139233560D01*
X101458188Y-139147504D01*
X101521061Y-139046543D01*
X101574454Y-138959520D01*
X101615685Y-138890854D01*
X101642076Y-138844964D01*
X101650946Y-138826271D01*
X101650826Y-138822581D01*
X101665439Y-138802098D01*
X101683171Y-138783758D01*
X101714425Y-138742107D01*
X101750543Y-138688676D01*
X101784739Y-138633958D01*
X101810232Y-138588446D01*
X101820237Y-138562634D01*
X101820987Y-138555773D01*
X101836785Y-138534245D01*
X101837115Y-138534078D01*
X101852552Y-138515270D01*
X101884387Y-138469628D01*
X101929552Y-138401999D01*
X101984978Y-138317229D01*
X102047598Y-138220164D01*
X102114342Y-138115651D01*
X102182142Y-138008537D01*
X102247930Y-137903667D01*
X102308638Y-137805889D01*
X102361196Y-137720049D01*
X102402537Y-137650993D01*
X102429591Y-137603567D01*
X102439291Y-137582619D01*
X102439947Y-137576512D01*
X102454006Y-137561891D01*
X102463733Y-137555300D01*
X102486674Y-137527144D01*
X102512105Y-137488821D01*
X102531479Y-137453562D01*
X102536248Y-137434596D01*
X102538604Y-137426527D01*
X102558393Y-137402591D01*
X102573027Y-137383573D01*
X102604777Y-137337280D01*
X102649695Y-137269352D01*
X102704730Y-137184621D01*
X102766833Y-137087917D01*
X102832952Y-136984068D01*
X102900037Y-136877905D01*
X102965037Y-136774257D01*
X103024901Y-136677956D01*
X103076579Y-136593829D01*
X103117020Y-136526708D01*
X103143174Y-136481422D01*
X103151989Y-136462801D01*
X103151839Y-136458800D01*
X103166702Y-136438435D01*
X103182677Y-136419576D01*
X103213681Y-136375896D01*
X103255085Y-136314468D01*
X103302409Y-136242272D01*
X103351174Y-136166291D01*
X103396900Y-136093504D01*
X103435108Y-136030894D01*
X103461317Y-135985441D01*
X103471049Y-135964127D01*
X103471135Y-135963882D01*
X103491592Y-135960381D01*
X103545159Y-135957166D01*
X103627708Y-135954327D01*
X103735109Y-135951959D01*
X103863234Y-135950153D01*
X104007954Y-135949002D01*
X104165141Y-135948597D01*
X104179804Y-135948598D01*
X104358825Y-135948778D01*
X104503996Y-135949372D01*
X104618732Y-135950518D01*
X104706447Y-135952354D01*
X104770556Y-135955019D01*
X104814474Y-135958652D01*
X104841616Y-135963390D01*
X104855397Y-135969372D01*
X104859232Y-135976736D01*
X104861480Y-135989698D01*
X104879099Y-136004875D01*
X104885884Y-136006348D01*
X104887371Y-136023634D01*
X104884240Y-136030715D01*
X104892517Y-136042393D01*
X104898664Y-136044012D01*
X104909996Y-136065842D01*
X104915690Y-136082008D01*
X104935439Y-136128206D01*
X104967068Y-136198990D01*
X105008229Y-136289345D01*
X105056574Y-136394256D01*
X105109755Y-136508708D01*
X105165425Y-136627688D01*
X105221237Y-136746180D01*
X105274843Y-136859170D01*
X105323896Y-136961644D01*
X105366048Y-137048586D01*
X105398951Y-137114983D01*
X105420258Y-137155819D01*
X105430354Y-137174956D01*
X105459598Y-137237439D01*
X105487053Y-137303952D01*
X105500230Y-137336280D01*
X105520476Y-137377100D01*
X105533987Y-137393058D01*
X105538763Y-137394664D01*
X105547508Y-137416507D01*
X105550838Y-137428378D01*
X105567865Y-137470708D01*
X105596864Y-137536485D01*
X105635050Y-137619454D01*
X105679641Y-137713363D01*
X105707503Y-137771517D01*
X105750432Y-137862399D01*
X105786286Y-137939889D01*
X105811944Y-137997209D01*
X105824288Y-138027580D01*
X105835425Y-138052868D01*
X105851609Y-138068390D01*
X105856862Y-138070003D01*
X105866415Y-138091839D01*
X105869744Y-138103710D01*
X105886772Y-138146040D01*
X105915771Y-138211817D01*
X105953957Y-138294787D01*
X105998548Y-138388696D01*
X106026410Y-138446849D01*
X106069339Y-138537731D01*
X106105192Y-138615221D01*
X106130851Y-138672541D01*
X106143195Y-138702913D01*
X106155613Y-138728098D01*
X106176769Y-138743723D01*
X106183336Y-138744411D01*
X106186676Y-138754438D01*
X106186432Y-138757049D01*
X106195402Y-138785289D01*
X106216994Y-138838876D01*
X106248268Y-138911428D01*
X106286280Y-138996565D01*
X106328086Y-139087907D01*
X106370746Y-139179073D01*
X106411314Y-139263682D01*
X106446849Y-139335354D01*
X106474408Y-139387709D01*
X106491048Y-139414365D01*
X106500385Y-139426566D01*
X106502563Y-139437814D01*
X106502942Y-139441252D01*
X106514273Y-139470469D01*
X106537614Y-139524306D01*
X106570030Y-139596467D01*
X106608585Y-139680656D01*
X106650347Y-139770575D01*
X106692379Y-139859928D01*
X106731747Y-139942418D01*
X106765518Y-140011748D01*
X106790756Y-140061621D01*
X106804526Y-140085741D01*
X106809155Y-140092364D01*
X106822862Y-140123259D01*
X106828118Y-140136436D01*
X106847746Y-140180512D01*
X106880114Y-140251334D01*
X106923350Y-140344857D01*
X106975585Y-140457038D01*
X107034945Y-140583833D01*
X107099561Y-140721198D01*
X107150554Y-140829469D01*
X107210858Y-140957816D01*
X107264318Y-141071940D01*
X107309097Y-141167903D01*
X107343357Y-141241765D01*
X107365260Y-141289585D01*
X107372969Y-141307424D01*
X107372914Y-141307504D01*
X107352924Y-141308931D01*
X107299777Y-141310242D01*
X107217610Y-141311400D01*
X107110559Y-141312366D01*
X106982760Y-141313103D01*
X106838351Y-141313573D01*
X106681468Y-141313738D01*
X105989967Y-141313738D01*
X105637945Y-140568058D01*
X105590517Y-140467633D01*
X105518045Y-140314343D01*
X105450678Y-140172042D01*
X105390231Y-140044555D01*
X105338520Y-139935707D01*
X105297360Y-139849322D01*
X105268568Y-139789225D01*
X105253959Y-139759239D01*
X105221994Y-139696100D01*
X105189012Y-139765604D01*
X105184106Y-139775561D01*
X105151996Y-139830052D01*
X105120187Y-139870952D01*
X105096984Y-139902437D01*
X105084343Y-139941406D01*
X105074984Y-139972528D01*
X105046219Y-140010519D01*
X105040352Y-140016149D01*
X105003948Y-140059456D01*
X104968554Y-140111912D01*
X104964606Y-140118580D01*
X104933600Y-140170097D01*
X104897060Y-140229153D01*
X104850009Y-140303716D01*
X104787467Y-140401753D01*
X104763491Y-140442870D01*
X104743612Y-140487589D01*
X104740651Y-140512517D01*
X104743949Y-140519659D01*
X104734155Y-140520325D01*
X104723846Y-140524900D01*
X104698605Y-140553371D01*
X104665737Y-140599220D01*
X104631002Y-140653347D01*
X104600165Y-140706653D01*
X104578987Y-140750040D01*
X104573232Y-140774410D01*
X104573799Y-140777977D01*
X104559466Y-140788479D01*
X104553534Y-140790779D01*
X104529943Y-140815576D01*
X104502007Y-140858826D01*
X104489568Y-140881195D01*
X104439812Y-140969963D01*
X104403748Y-141032531D01*
X104377949Y-141074532D01*
X104358987Y-141101600D01*
X104343434Y-141119364D01*
X104327222Y-141138988D01*
X104315215Y-141166255D01*
X104313696Y-141172847D01*
X104296425Y-141205549D01*
X104266090Y-141249332D01*
X104216965Y-141313738D01*
X103618896Y-141313738D01*
X103536025Y-141313596D01*
X103397137Y-141312682D01*
X103273526Y-141311015D01*
X103169643Y-141308704D01*
X103089933Y-141305859D01*
X103038845Y-141302590D01*
X103020828Y-141299006D01*
X103021230Y-141297207D01*
X103034249Y-141271028D01*
X103062886Y-141220821D01*
X103103423Y-141152962D01*
X103152142Y-141073826D01*
X103162126Y-141057771D01*
X103209606Y-140979837D01*
X103248144Y-140914000D01*
X103274006Y-140866777D01*
X103283457Y-140844687D01*
X103284220Y-140839567D01*
X103303323Y-140825997D01*
X103310108Y-140824525D01*
X103311596Y-140807238D01*
X103308654Y-140799980D01*
X103319721Y-140788479D01*
X103323814Y-140787424D01*
X103346567Y-140765489D01*
X103372416Y-140724090D01*
X103377702Y-140714195D01*
X103405288Y-140666323D01*
X103446857Y-140597113D01*
X103497744Y-140514271D01*
X103553280Y-140425499D01*
X103577413Y-140387057D01*
X103625878Y-140308348D01*
X103664428Y-140243645D01*
X103689616Y-140198807D01*
X103697994Y-140179691D01*
X103700895Y-140168422D01*
X103721375Y-140141529D01*
X103731748Y-140129528D01*
X103761937Y-140088067D01*
X103801221Y-140029366D01*
X103844591Y-139961486D01*
X103887041Y-139892486D01*
X103923563Y-139830428D01*
X103949148Y-139783372D01*
X103958789Y-139759379D01*
X103959597Y-139752634D01*
X103974594Y-139737962D01*
X103979523Y-139735839D01*
X104000635Y-139711135D01*
X104026182Y-139667615D01*
X104030521Y-139659280D01*
X104066819Y-139597691D01*
X104104173Y-139544241D01*
X104108584Y-139538561D01*
X104135419Y-139496631D01*
X104146381Y-139465854D01*
X104150912Y-139447376D01*
X104173688Y-139413188D01*
X104174790Y-139412067D01*
X104203657Y-139375908D01*
X104234655Y-139328401D01*
X104251447Y-139300627D01*
X104286313Y-139244171D01*
X104333874Y-139167837D01*
X104390165Y-139077984D01*
X104451219Y-138980975D01*
X104506660Y-138892497D01*
X104557674Y-138809865D01*
X104598033Y-138743166D01*
X104624572Y-138697638D01*
X104634121Y-138678518D01*
X104638836Y-138666747D01*
X104661003Y-138639124D01*
X104675714Y-138613502D01*
X104679857Y-138567974D01*
X104675931Y-138554211D01*
X104658482Y-138508591D01*
X104630797Y-138443146D01*
X104596448Y-138365637D01*
X104559010Y-138283820D01*
X104522057Y-138205454D01*
X104489163Y-138138298D01*
X104463900Y-138090110D01*
X104449844Y-138068648D01*
X104443950Y-138061996D01*
X104431000Y-138030872D01*
X104422199Y-138007069D01*
X104399901Y-137955891D01*
X104367830Y-137886155D01*
X104329547Y-137805761D01*
X104294322Y-137731961D01*
X104261929Y-137661965D01*
X104239106Y-137610191D01*
X104229347Y-137584361D01*
X104229341Y-137584330D01*
X104216000Y-137552211D01*
X104190840Y-137509325D01*
X104190191Y-137508345D01*
X104165915Y-137467631D01*
X104153985Y-137439956D01*
X104146762Y-137417715D01*
X104126863Y-137371350D01*
X104100038Y-137314833D01*
X104071793Y-137259288D01*
X104047633Y-137215841D01*
X104033065Y-137195616D01*
X104027190Y-137195904D01*
X104004626Y-137216284D01*
X103976259Y-137256937D01*
X103955566Y-137291019D01*
X103914050Y-137357640D01*
X103871481Y-137424376D01*
X103843152Y-137470342D01*
X103818288Y-137516106D01*
X103808715Y-137541621D01*
X103808031Y-137547365D01*
X103792094Y-137561891D01*
X103787296Y-137563841D01*
X103766635Y-137588443D01*
X103742422Y-137632238D01*
X103734847Y-137647955D01*
X103712203Y-137690386D01*
X103697173Y-137711965D01*
X103682560Y-137727109D01*
X103657291Y-137760581D01*
X103632062Y-137798812D01*
X103614394Y-137830235D01*
X103611806Y-137843280D01*
X103613023Y-137849531D01*
X103595241Y-137871841D01*
X103592784Y-137874433D01*
X103567717Y-137907029D01*
X103531523Y-137960225D01*
X103488745Y-138026606D01*
X103443923Y-138098755D01*
X103401600Y-138169256D01*
X103366319Y-138230693D01*
X103342619Y-138275649D01*
X103335045Y-138296708D01*
X103335650Y-138300293D01*
X103322125Y-138312260D01*
X103316904Y-138314778D01*
X103293962Y-138340088D01*
X103261901Y-138384706D01*
X103226909Y-138438807D01*
X103195171Y-138492569D01*
X103172876Y-138536169D01*
X103166212Y-138559784D01*
X103166782Y-138562414D01*
X103154809Y-138574890D01*
X103153586Y-138575149D01*
X103135139Y-138593302D01*
X103105639Y-138632977D01*
X103071501Y-138684192D01*
X103039141Y-138736968D01*
X103014974Y-138781325D01*
X103005416Y-138807283D01*
X103004706Y-138812140D01*
X102986753Y-138835422D01*
X102975323Y-138849215D01*
X102946078Y-138891033D01*
X102902537Y-138956161D01*
X102847596Y-139040034D01*
X102784148Y-139138088D01*
X102715088Y-139245760D01*
X102643312Y-139358484D01*
X102571715Y-139471696D01*
X102503190Y-139580834D01*
X102440632Y-139681331D01*
X102386938Y-139768625D01*
X102345000Y-139838150D01*
X102317715Y-139885343D01*
X102307977Y-139905640D01*
X102307389Y-139911045D01*
X102292387Y-139925554D01*
X102292201Y-139925558D01*
X102273507Y-139940911D01*
X102250560Y-139977142D01*
X102249908Y-139978418D01*
X102219343Y-140031015D01*
X102182990Y-140085131D01*
X102181391Y-140087321D01*
X102145580Y-140140008D01*
X102116536Y-140188306D01*
X102097926Y-140220518D01*
X102063467Y-140276477D01*
X102023854Y-140338257D01*
X102018522Y-140346402D01*
X101917495Y-140501524D01*
X101823664Y-140647079D01*
X101738963Y-140779967D01*
X101665325Y-140897087D01*
X101604685Y-140995339D01*
X101558977Y-141071624D01*
X101530133Y-141122839D01*
X101520089Y-141145885D01*
X101519333Y-141150734D01*
X101500223Y-141163664D01*
X101493437Y-141165137D01*
X101491950Y-141182423D01*
X101495135Y-141189449D01*
X101487722Y-141201182D01*
X101485845Y-141201502D01*
X101465021Y-141219767D01*
X101438657Y-141257460D01*
X101405412Y-141313738D01*
X100000591Y-141313738D01*
X100000591Y-135948597D01*
X101144720Y-135948597D01*
X101154284Y-139628153D01*
G37*
G36*
X100947428Y-141869086D02*
G01*
X100968053Y-141887403D01*
X100974702Y-141903064D01*
X100970965Y-141907019D01*
X100946725Y-141933123D01*
X100906001Y-141977188D01*
X100855094Y-142032401D01*
X100834934Y-142054138D01*
X100785958Y-142104201D01*
X100752883Y-142131107D01*
X100729527Y-142139109D01*
X100709710Y-142132460D01*
X100694241Y-142121811D01*
X100680240Y-142103102D01*
X100684363Y-142077852D01*
X100708777Y-142038806D01*
X100755650Y-141978709D01*
X100763192Y-141969411D01*
X100823626Y-141901769D01*
X100871406Y-141864256D01*
X100911138Y-141854240D01*
X100947428Y-141869086D01*
G37*
G36*
X90554518Y-136276884D02*
G01*
X90577002Y-136309938D01*
X90641968Y-136404075D01*
X90699337Y-136485221D01*
X90745803Y-136548823D01*
X90778060Y-136590324D01*
X90792801Y-136605170D01*
X90796617Y-136605736D01*
X90808568Y-136624154D01*
X90816279Y-136644834D01*
X90840332Y-136687630D01*
X90874910Y-136742448D01*
X90914036Y-136800457D01*
X90951731Y-136852826D01*
X90982016Y-136890723D01*
X90998912Y-136905318D01*
X91005181Y-136907294D01*
X91014919Y-136929920D01*
X91025094Y-136957643D01*
X91052438Y-136994793D01*
X91078531Y-137025588D01*
X91089956Y-137044909D01*
X91089988Y-137045129D01*
X91101164Y-137064497D01*
X91130195Y-137109525D01*
X91173800Y-137175267D01*
X91228701Y-137256775D01*
X91291618Y-137349104D01*
X91335780Y-137413587D01*
X91420487Y-137537364D01*
X91508252Y-137665707D01*
X91590982Y-137786782D01*
X91660585Y-137888751D01*
X91695750Y-137940137D01*
X91749731Y-138018298D01*
X91794280Y-138081901D01*
X91825528Y-138125446D01*
X91839606Y-138143427D01*
X91849098Y-138154857D01*
X91874275Y-138191235D01*
X91906792Y-138241880D01*
X91930888Y-138278561D01*
X91959512Y-138316331D01*
X91976330Y-138330986D01*
X91981468Y-138332608D01*
X91990816Y-138354469D01*
X92001866Y-138384766D01*
X92027918Y-138424816D01*
X92028700Y-138425819D01*
X92054209Y-138462499D01*
X92065019Y-138485783D01*
X92061346Y-138487379D01*
X92028057Y-138490731D01*
X91963803Y-138493721D01*
X91873103Y-138496239D01*
X91760479Y-138498173D01*
X91630451Y-138499414D01*
X91487539Y-138499853D01*
X90909642Y-138499853D01*
X90737252Y-138248025D01*
X90699683Y-138193461D01*
X90642160Y-138111164D01*
X90592714Y-138041922D01*
X90555657Y-137991743D01*
X90535301Y-137966637D01*
X90518953Y-137947968D01*
X90516006Y-137937076D01*
X90513994Y-137929655D01*
X90495423Y-137898168D01*
X90462866Y-137848268D01*
X90421122Y-137786814D01*
X90374988Y-137720664D01*
X90329263Y-137656675D01*
X90288747Y-137601706D01*
X90258238Y-137562615D01*
X90242535Y-137546258D01*
X90240010Y-137544997D01*
X90227031Y-137521780D01*
X90225994Y-137516308D01*
X90210240Y-137483753D01*
X90180674Y-137435861D01*
X90143957Y-137382110D01*
X90106748Y-137331981D01*
X90075709Y-137294952D01*
X90057499Y-137280503D01*
X90053289Y-137280091D01*
X90043611Y-137266433D01*
X90043849Y-137264305D01*
X90034515Y-137237056D01*
X90011405Y-137196086D01*
X90008495Y-137191602D01*
X89977221Y-137144370D01*
X89932049Y-137077225D01*
X89876477Y-136995262D01*
X89814003Y-136903577D01*
X89748122Y-136807265D01*
X89682331Y-136711422D01*
X89620129Y-136621143D01*
X89565011Y-136541523D01*
X89520474Y-136477659D01*
X89490016Y-136434645D01*
X89477133Y-136417578D01*
X89467736Y-136406141D01*
X89442667Y-136369763D01*
X89410196Y-136319126D01*
X89386099Y-136282444D01*
X89357476Y-136244674D01*
X89340658Y-136230019D01*
X89336743Y-136229209D01*
X89326588Y-136209785D01*
X89326588Y-136209758D01*
X89316274Y-136185192D01*
X89289321Y-136140305D01*
X89251551Y-136084796D01*
X89251059Y-136084108D01*
X89213490Y-136029459D01*
X89186719Y-135986437D01*
X89176514Y-135964303D01*
X89180213Y-135962526D01*
X89213560Y-135958783D01*
X89277873Y-135955444D01*
X89368624Y-135952633D01*
X89481289Y-135950473D01*
X89611342Y-135949087D01*
X89754257Y-135948597D01*
X90332000Y-135948597D01*
X90554518Y-136276884D01*
G37*
G36*
X100361843Y-142200937D02*
G01*
X100362460Y-142239656D01*
X100352493Y-142263874D01*
X100333885Y-142266337D01*
X100282079Y-142268647D01*
X100202535Y-142270408D01*
X100100417Y-142271539D01*
X99980891Y-142271963D01*
X99849122Y-142271600D01*
X99362777Y-142268803D01*
X99362777Y-142964550D01*
X100378153Y-142964550D01*
X100372275Y-143025517D01*
X100366396Y-143086485D01*
X99864587Y-143079487D01*
X99362777Y-143072490D01*
X99362777Y-143120161D01*
X99360580Y-143155376D01*
X99352590Y-143194380D01*
X99330465Y-143216694D01*
X99290432Y-143218115D01*
X99246700Y-143194698D01*
X99242758Y-143191144D01*
X99225013Y-143160958D01*
X99233489Y-143118674D01*
X99236066Y-143107803D01*
X99241035Y-143059207D01*
X99244985Y-142980754D01*
X99247754Y-142877691D01*
X99249177Y-142755263D01*
X99249091Y-142618715D01*
X99246242Y-142167283D01*
X99337339Y-142162941D01*
X99361980Y-142162057D01*
X99427026Y-142160469D01*
X99518952Y-142158716D01*
X99631287Y-142156907D01*
X99757560Y-142155153D01*
X99891300Y-142153562D01*
X100354166Y-142148523D01*
X100361843Y-142200937D01*
G37*
G36*
X97805761Y-137336780D02*
G01*
X96267504Y-137336780D01*
X96267504Y-141313738D01*
X95123191Y-141313738D01*
X95123191Y-137336780D01*
X92515658Y-137336780D01*
X92515658Y-135948597D01*
X97805761Y-135948597D01*
X97805761Y-137336780D01*
G37*
G36*
X108366827Y-142364571D02*
G01*
X108401025Y-142369109D01*
X108419214Y-142385211D01*
X108421949Y-142418710D01*
X108409784Y-142475438D01*
X108383276Y-142561226D01*
X108377721Y-142578399D01*
X108346181Y-142682105D01*
X108315096Y-142792887D01*
X108290468Y-142889513D01*
X108283600Y-142918546D01*
X108266431Y-142989671D01*
X108252788Y-143044168D01*
X108245146Y-143072077D01*
X108232094Y-143085046D01*
X108194404Y-143078825D01*
X108173769Y-143065974D01*
X108159305Y-143038760D01*
X108156307Y-142994374D01*
X108165079Y-142928284D01*
X108185930Y-142835954D01*
X108219166Y-142712852D01*
X108249577Y-142607362D01*
X108280141Y-142508879D01*
X108305210Y-142439452D01*
X108326496Y-142394984D01*
X108345708Y-142371380D01*
X108364556Y-142364542D01*
X108366827Y-142364571D01*
G37*
G36*
X96784591Y-142122886D02*
G01*
X96805854Y-142142691D01*
X96819001Y-142190732D01*
X96823566Y-142211676D01*
X96844813Y-142278852D01*
X96872986Y-142345495D01*
X96914698Y-142429912D01*
X97191396Y-142435103D01*
X97468095Y-142440294D01*
X97468095Y-142485663D01*
X97467679Y-142497992D01*
X97459432Y-142520191D01*
X97433109Y-142531253D01*
X97378989Y-142536750D01*
X97376210Y-142536915D01*
X97326779Y-142538355D01*
X97247979Y-142539092D01*
X97147274Y-142539121D01*
X97032129Y-142538438D01*
X96910008Y-142537039D01*
X96530133Y-142531611D01*
X96530133Y-142486240D01*
X96530539Y-142473024D01*
X96536697Y-142454831D01*
X96556590Y-142444425D01*
X96598142Y-142438910D01*
X96669277Y-142435391D01*
X96808421Y-142429912D01*
X96741096Y-142292313D01*
X96712408Y-142230577D01*
X96693389Y-142174812D01*
X96695599Y-142141461D01*
X96719841Y-142125192D01*
X96766916Y-142120672D01*
X96784591Y-142122886D01*
G37*
G36*
X110625119Y-142882472D02*
G01*
X110649573Y-142899522D01*
X110650028Y-142926828D01*
X110625048Y-142969177D01*
X110573194Y-143031358D01*
X110533689Y-143079670D01*
X110507311Y-143120268D01*
X110501165Y-143142738D01*
X110504213Y-143149277D01*
X110496980Y-143148170D01*
X110487919Y-143148084D01*
X110455781Y-143163836D01*
X110410807Y-143193632D01*
X110362490Y-143230497D01*
X110320320Y-143267454D01*
X110293788Y-143297526D01*
X110290212Y-143302402D01*
X110254923Y-143319890D01*
X110209921Y-143311518D01*
X110168432Y-143279215D01*
X110164837Y-143274763D01*
X110149555Y-143252077D01*
X110151868Y-143234542D01*
X110176786Y-143214268D01*
X110229323Y-143183366D01*
X110249266Y-143170974D01*
X110312565Y-143124237D01*
X110384369Y-143063551D01*
X110452673Y-142998834D01*
X110514405Y-142938381D01*
X110561163Y-142898891D01*
X110594120Y-142880766D01*
X110618576Y-142880216D01*
X110625119Y-142882472D01*
G37*
G36*
X111856426Y-138601653D02*
G01*
X111856425Y-138623555D01*
X111856311Y-138806152D01*
X111855898Y-138955055D01*
X111855034Y-139073718D01*
X111853567Y-139165593D01*
X111851346Y-139234131D01*
X111848217Y-139282786D01*
X111844030Y-139315010D01*
X111838632Y-139334254D01*
X111831872Y-139343971D01*
X111823597Y-139347614D01*
X111818227Y-139348029D01*
X111779996Y-139349000D01*
X111708317Y-139349921D01*
X111606069Y-139350782D01*
X111476126Y-139351569D01*
X111321366Y-139352272D01*
X111144663Y-139352877D01*
X110948895Y-139353373D01*
X110736938Y-139353748D01*
X110511668Y-139353990D01*
X110275960Y-139354087D01*
X108761153Y-139354213D01*
X108761153Y-137862039D01*
X111856426Y-137862039D01*
X111856426Y-138601653D01*
G37*
G36*
X94485377Y-142008984D02*
G01*
X94483436Y-142043096D01*
X94477576Y-142065670D01*
X94461192Y-142067454D01*
X94411788Y-142069008D01*
X94334435Y-142070059D01*
X94234178Y-142070566D01*
X94116066Y-142070484D01*
X93985146Y-142069774D01*
X93500517Y-142066062D01*
X93494989Y-142013496D01*
X93489460Y-141960931D01*
X93987419Y-141960523D01*
X94485377Y-141960114D01*
X94485377Y-142008984D01*
G37*
G36*
X85306678Y-142039944D02*
G01*
X85454949Y-142041532D01*
X85944831Y-142047095D01*
X85933088Y-142104509D01*
X85921346Y-142161922D01*
X85065570Y-142156040D01*
X85116824Y-142246078D01*
X85186486Y-142357213D01*
X85286790Y-142495067D01*
X85397538Y-142629034D01*
X85507919Y-142745315D01*
X85533180Y-142768800D01*
X85603718Y-142828986D01*
X85687551Y-142895281D01*
X85777669Y-142962650D01*
X85867062Y-143026062D01*
X85948720Y-143080483D01*
X86015634Y-143120882D01*
X86060792Y-143142226D01*
X86094529Y-143163844D01*
X86093513Y-143192084D01*
X86057792Y-143220427D01*
X86027582Y-143234235D01*
X86000767Y-143243635D01*
X85984706Y-143241624D01*
X85936738Y-143220902D01*
X85867921Y-143180877D01*
X85783303Y-143124592D01*
X85687934Y-143055091D01*
X85640542Y-143019306D01*
X85577637Y-142972271D01*
X85529009Y-142936466D01*
X85502434Y-142917652D01*
X85479445Y-142898677D01*
X85438113Y-142859053D01*
X85390270Y-142809491D01*
X85307049Y-142720089D01*
X85239234Y-142769847D01*
X85228664Y-142777718D01*
X85168713Y-142825282D01*
X85115141Y-142871609D01*
X85108832Y-142877436D01*
X85063672Y-142919067D01*
X85004223Y-142973789D01*
X84941618Y-143031354D01*
X84921926Y-143049780D01*
X84872103Y-143099797D01*
X84837398Y-143139770D01*
X84824373Y-143162370D01*
X84822313Y-143174053D01*
X84800276Y-143191617D01*
X84763163Y-143191931D01*
X84722325Y-143178145D01*
X84689116Y-143153411D01*
X84674888Y-143120880D01*
X84674988Y-143119721D01*
X84690783Y-143095479D01*
X84729844Y-143052787D01*
X84786924Y-142996534D01*
X84856780Y-142931604D01*
X84934166Y-142862885D01*
X85013836Y-142795263D01*
X85090546Y-142733626D01*
X85112389Y-142716521D01*
X85165563Y-142673373D01*
X85202822Y-142640889D01*
X85217171Y-142625064D01*
X85206960Y-142604449D01*
X85180798Y-142570606D01*
X85154339Y-142536764D01*
X85143280Y-142515956D01*
X85143157Y-142514953D01*
X85129793Y-142492681D01*
X85101071Y-142457788D01*
X85087417Y-142441263D01*
X85049690Y-142387151D01*
X85013947Y-142326666D01*
X85001126Y-142303385D01*
X84960688Y-142236122D01*
X84922455Y-142179475D01*
X84875878Y-142116630D01*
X84920472Y-142076299D01*
X84929850Y-142068155D01*
X84945301Y-142057800D01*
X84965820Y-142050057D01*
X84996043Y-142044622D01*
X85040605Y-142041195D01*
X85104141Y-142039474D01*
X85191287Y-142039157D01*
X85306678Y-142039944D01*
G37*
G36*
X92325487Y-141860639D02*
G01*
X92343539Y-141909343D01*
X92350687Y-141930045D01*
X92391971Y-142015460D01*
X92454943Y-142116431D01*
X92534527Y-142225843D01*
X92625647Y-142336582D01*
X92723228Y-142441534D01*
X92731539Y-142449903D01*
X92793710Y-142513202D01*
X92844328Y-142565931D01*
X92878378Y-142602795D01*
X92890842Y-142618496D01*
X92887729Y-142622320D01*
X92862703Y-142626884D01*
X92849775Y-142628873D01*
X92834565Y-142644566D01*
X92833621Y-142648426D01*
X92812790Y-142655711D01*
X92775386Y-142649906D01*
X92735718Y-142632727D01*
X92714765Y-142615261D01*
X92673164Y-142574353D01*
X92619834Y-142518562D01*
X92561597Y-142455317D01*
X92505277Y-142392046D01*
X92457694Y-142336176D01*
X92425671Y-142295136D01*
X92383538Y-142235397D01*
X91837760Y-142232743D01*
X91935711Y-142420047D01*
X91988659Y-142514146D01*
X92072860Y-142644776D01*
X92164755Y-142770111D01*
X92257035Y-142880344D01*
X92342391Y-142965669D01*
X92422750Y-143035327D01*
X92487595Y-143089125D01*
X92543641Y-143131848D01*
X92600439Y-143170765D01*
X92667540Y-143213145D01*
X92686071Y-143224686D01*
X92742502Y-143261360D01*
X92781980Y-143289406D01*
X92796886Y-143303502D01*
X92796310Y-143305279D01*
X92776146Y-143321447D01*
X92736079Y-143343187D01*
X92734894Y-143343747D01*
X92681672Y-143361439D01*
X92643089Y-143360535D01*
X92628213Y-143341202D01*
X92627620Y-143339066D01*
X92607367Y-143321126D01*
X92567246Y-143298388D01*
X92550357Y-143289463D01*
X92479670Y-143242291D01*
X92394064Y-143174046D01*
X92300327Y-143090937D01*
X92205242Y-142999168D01*
X92115595Y-142904946D01*
X92038172Y-142814476D01*
X92003053Y-142767385D01*
X91954926Y-142696787D01*
X91902814Y-142615649D01*
X91850868Y-142530918D01*
X91803240Y-142449542D01*
X91764079Y-142378467D01*
X91737539Y-142324640D01*
X91727770Y-142295010D01*
X91723310Y-142280560D01*
X91699631Y-142251699D01*
X91679038Y-142225676D01*
X91675163Y-142179473D01*
X91704321Y-142135462D01*
X91712155Y-142129762D01*
X91735100Y-142120726D01*
X91771749Y-142115396D01*
X91828035Y-142113457D01*
X91909893Y-142114592D01*
X92023256Y-142118486D01*
X92078002Y-142120545D01*
X92169586Y-142123496D01*
X92242950Y-142125214D01*
X92291673Y-142125564D01*
X92309334Y-142124414D01*
X92309119Y-142122773D01*
X92296043Y-142097161D01*
X92269260Y-142057385D01*
X92237953Y-142016327D01*
X92211304Y-141986869D01*
X92210961Y-141986557D01*
X92181359Y-141943276D01*
X92188926Y-141903043D01*
X92233338Y-141867617D01*
X92268026Y-141850731D01*
X92303912Y-141842463D01*
X92325487Y-141860639D01*
G37*
G36*
X94710484Y-142424290D02*
G01*
X94709372Y-142443446D01*
X94696289Y-142476014D01*
X94663887Y-142493732D01*
X94606444Y-142498637D01*
X94518236Y-142492768D01*
X94493469Y-142490519D01*
X94401908Y-142484486D01*
X94297088Y-142480025D01*
X94197137Y-142477970D01*
X94012073Y-142476810D01*
X94024630Y-142584675D01*
X94046967Y-142716715D01*
X94100471Y-142885386D01*
X94178395Y-143028399D01*
X94279732Y-143144031D01*
X94403472Y-143230562D01*
X94451742Y-143258238D01*
X94479768Y-143283001D01*
X94476270Y-143302269D01*
X94443169Y-143320391D01*
X94412428Y-143330959D01*
X94358697Y-143335601D01*
X94305113Y-143316126D01*
X94240230Y-143269674D01*
X94220866Y-143253340D01*
X94120468Y-143152591D01*
X94036792Y-143041748D01*
X93978980Y-142932608D01*
X93964747Y-142895578D01*
X93938183Y-142818005D01*
X93917025Y-142745458D01*
X93904040Y-142687902D01*
X93901996Y-142655305D01*
X93902815Y-142647596D01*
X93900965Y-142608648D01*
X93894401Y-142554284D01*
X93882022Y-142471739D01*
X93567192Y-142485060D01*
X93511733Y-142487359D01*
X93410452Y-142490995D01*
X93338811Y-142492183D01*
X93291378Y-142490610D01*
X93262721Y-142485963D01*
X93247408Y-142477928D01*
X93240009Y-142466194D01*
X93235305Y-142447298D01*
X93237236Y-142403820D01*
X93239915Y-142398840D01*
X93249881Y-142392056D01*
X93269851Y-142386595D01*
X93303264Y-142382316D01*
X93353560Y-142379080D01*
X93424177Y-142376746D01*
X93518555Y-142375174D01*
X93640133Y-142374225D01*
X93792350Y-142373759D01*
X93978647Y-142373634D01*
X94710480Y-142373634D01*
X94710484Y-142424290D01*
G37*
G36*
X99456573Y-141313738D02*
G01*
X98293501Y-141313738D01*
X98293501Y-135948597D01*
X99456573Y-135948597D01*
X99456573Y-141313738D01*
G37*
G36*
X111457792Y-142759362D02*
G01*
X111439230Y-142759567D01*
X111379586Y-142759595D01*
X111300386Y-142759151D01*
X111213647Y-142758286D01*
X111030470Y-142756046D01*
X111032204Y-143010493D01*
X111033214Y-143097228D01*
X111037206Y-143185867D01*
X111046937Y-143245653D01*
X111065386Y-143281572D01*
X111095533Y-143298609D01*
X111140358Y-143301749D01*
X111202841Y-143295979D01*
X111234316Y-143292726D01*
X111276939Y-143290429D01*
X111293649Y-143292838D01*
X111287769Y-143310934D01*
X111271878Y-143348231D01*
X111257111Y-143373874D01*
X111235250Y-143388481D01*
X111196409Y-143394706D01*
X111130332Y-143396012D01*
X111089076Y-143395461D01*
X111033701Y-143390084D01*
X110996380Y-143376086D01*
X110964510Y-143349967D01*
X110956844Y-143342156D01*
X110941097Y-143322851D01*
X110930377Y-143299438D01*
X110923718Y-143265234D01*
X110920156Y-143213557D01*
X110918726Y-143137727D01*
X110918464Y-143031060D01*
X110918464Y-142758198D01*
X110449483Y-142758198D01*
X110449483Y-142664402D01*
X110543280Y-142664402D01*
X111406204Y-142664402D01*
X111406204Y-142364254D01*
X110543280Y-142364254D01*
X110543280Y-142664402D01*
X110449483Y-142664402D01*
X110449483Y-142270458D01*
X111518760Y-142270458D01*
X111518760Y-142758198D01*
X111457792Y-142759362D01*
G37*
G36*
X84267839Y-142570841D02*
G01*
X84277914Y-142574275D01*
X84285555Y-142585235D01*
X84291098Y-142608004D01*
X84294880Y-142646869D01*
X84297237Y-142706112D01*
X84298504Y-142790020D01*
X84299018Y-142902876D01*
X84299114Y-143048966D01*
X84299114Y-143527327D01*
X84777475Y-143527327D01*
X84857083Y-143527345D01*
X84985533Y-143527615D01*
X85082954Y-143528474D01*
X85153632Y-143530260D01*
X85201851Y-143533308D01*
X85231896Y-143537955D01*
X85248052Y-143544536D01*
X85254603Y-143553387D01*
X85255835Y-143564845D01*
X85255515Y-143571865D01*
X85251715Y-143581691D01*
X85240148Y-143589144D01*
X85216564Y-143594550D01*
X85176713Y-143598237D01*
X85116344Y-143600535D01*
X85031207Y-143601769D01*
X84917052Y-143602270D01*
X84769629Y-143602364D01*
X84653091Y-143602036D01*
X84530242Y-143600928D01*
X84423541Y-143599150D01*
X84338330Y-143596820D01*
X84279953Y-143594056D01*
X84253750Y-143590977D01*
X84246490Y-143585946D01*
X84239115Y-143571688D01*
X84233528Y-143544758D01*
X84229490Y-143501015D01*
X84226765Y-143436318D01*
X84225113Y-143346527D01*
X84224296Y-143227501D01*
X84224077Y-143075098D01*
X84224120Y-142958000D01*
X84224470Y-142833126D01*
X84225437Y-142738441D01*
X84227333Y-142669772D01*
X84230467Y-142622945D01*
X84235150Y-142593787D01*
X84241692Y-142578127D01*
X84250404Y-142571791D01*
X84261596Y-142570606D01*
X84267839Y-142570841D01*
G37*
G36*
X97043937Y-141859348D02*
G01*
X97038269Y-141973497D01*
X97421197Y-141960931D01*
X97421197Y-142007829D01*
X97419670Y-142029071D01*
X97408085Y-142047214D01*
X97377237Y-142057237D01*
X97318021Y-142064107D01*
X97282138Y-142066253D01*
X97206863Y-142068332D01*
X97109092Y-142069362D01*
X96997485Y-142069266D01*
X96880703Y-142067969D01*
X96546560Y-142062452D01*
X96552416Y-142011692D01*
X96558272Y-141960931D01*
X96753416Y-141967428D01*
X96948559Y-141973925D01*
X96936606Y-141859563D01*
X96924652Y-141745200D01*
X97049606Y-141745200D01*
X97043937Y-141859348D01*
G37*
G36*
X98798518Y-142044969D02*
G01*
X98831815Y-142080704D01*
X98840165Y-142098868D01*
X98835598Y-142119327D01*
X98809586Y-142144477D01*
X98756732Y-142181570D01*
X98717290Y-142209212D01*
X98641256Y-142267363D01*
X98574890Y-142323394D01*
X98534715Y-142357478D01*
X98494500Y-142385906D01*
X98471714Y-142394757D01*
X98451256Y-142377704D01*
X98425792Y-142341215D01*
X98417827Y-142326513D01*
X98410019Y-142299402D01*
X98422805Y-142275160D01*
X98460687Y-142240827D01*
X98474779Y-142228929D01*
X98516988Y-142192833D01*
X98544583Y-142168566D01*
X98561481Y-142154919D01*
X98603561Y-142123972D01*
X98656686Y-142086804D01*
X98701202Y-142058976D01*
X98756961Y-142037657D01*
X98798518Y-142044969D01*
G37*
%TO.C,R40*%
X118662500Y-93945276D02*
X118662500Y-94454724D01*
X117617500Y-93945276D02*
X117617500Y-94454724D01*
%TO.C,R38*%
X89217500Y-94454724D02*
X89217500Y-93945276D01*
X90262500Y-94454724D02*
X90262500Y-93945276D01*
%TO.C,R37*%
X75617500Y-94454724D02*
X75617500Y-93945276D01*
X76662500Y-94454724D02*
X76662500Y-93945276D01*
%TO.C,R42*%
X144662500Y-94592224D02*
X144662500Y-94082776D01*
X143617500Y-94592224D02*
X143617500Y-94082776D01*
%TO.C,Q10*%
X121540000Y-75100000D02*
X120490000Y-75100000D01*
X118240000Y-76900000D02*
X118240000Y-75100000D01*
X118240000Y-75100000D02*
X119290000Y-75100000D01*
X121540000Y-77500000D02*
X121540000Y-75100000D01*
%TO.C,R49*%
X71017500Y-94454724D02*
X71017500Y-93945276D01*
X72062500Y-94454724D02*
X72062500Y-93945276D01*
%TO.C,R46*%
X116062500Y-94454724D02*
X116062500Y-93945276D01*
X115017500Y-94454724D02*
X115017500Y-93945276D01*
%TO.C,R52*%
X113462500Y-94454724D02*
X113462500Y-93945276D01*
X112417500Y-94454724D02*
X112417500Y-93945276D01*
%TO.C,R51*%
X99862500Y-94454724D02*
X99862500Y-93945276D01*
X98817500Y-94454724D02*
X98817500Y-93945276D01*
%TO.C,R39*%
X103217500Y-93945276D02*
X103217500Y-94454724D01*
X104262500Y-93945276D02*
X104262500Y-94454724D01*
%TO.C,Q11*%
X131740000Y-75100000D02*
X132790000Y-75100000D01*
X135040000Y-75100000D02*
X133990000Y-75100000D01*
X131740000Y-76900000D02*
X131740000Y-75100000D01*
X135040000Y-77500000D02*
X135040000Y-75100000D01*
%TO.C,R43*%
X73217500Y-93945276D02*
X73217500Y-94454724D01*
X74262500Y-93945276D02*
X74262500Y-94454724D01*
%TO.C,Q5*%
X127040000Y-77500000D02*
X127040000Y-75100000D01*
X123740000Y-76900000D02*
X123740000Y-75100000D01*
X123740000Y-75100000D02*
X124790000Y-75100000D01*
X127040000Y-75100000D02*
X125990000Y-75100000D01*
%TD*%
D13*
%TO.C,CAN_LAN1*%
X98100000Y-153625000D03*
X85400000Y-153625000D03*
%TD*%
M02*
