%TF.GenerationSoftware,KiCad,Pcbnew,6.0.11-2627ca5db0~126~ubuntu20.04.1*%
%TF.CreationDate,2023-12-31T19:32:31+09:00*%
%TF.ProjectId,wheel,77686565-6c2e-46b6-9963-61645f706362,rev?*%
%TF.SameCoordinates,Original*%
%TF.FileFunction,Soldermask,Bot*%
%TF.FilePolarity,Negative*%
%FSLAX46Y46*%
G04 Gerber Fmt 4.6, Leading zero omitted, Abs format (unit mm)*
G04 Created by KiCad (PCBNEW 6.0.11-2627ca5db0~126~ubuntu20.04.1) date 2023-12-31 19:32:31*
%MOMM*%
%LPD*%
G01*
G04 APERTURE LIST*
G04 Aperture macros list*
%AMRoundRect*
0 Rectangle with rounded corners*
0 $1 Rounding radius*
0 $2 $3 $4 $5 $6 $7 $8 $9 X,Y pos of 4 corners*
0 Add a 4 corners polygon primitive as box body*
4,1,4,$2,$3,$4,$5,$6,$7,$8,$9,$2,$3,0*
0 Add four circle primitives for the rounded corners*
1,1,$1+$1,$2,$3*
1,1,$1+$1,$4,$5*
1,1,$1+$1,$6,$7*
1,1,$1+$1,$8,$9*
0 Add four rect primitives between the rounded corners*
20,1,$1+$1,$2,$3,$4,$5,0*
20,1,$1+$1,$4,$5,$6,$7,0*
20,1,$1+$1,$6,$7,$8,$9,0*
20,1,$1+$1,$8,$9,$2,$3,0*%
G04 Aperture macros list end*
%ADD10C,3.200000*%
%ADD11R,1.700000X1.700000*%
%ADD12O,1.700000X1.700000*%
%ADD13C,3.300000*%
%ADD14C,2.500000*%
%ADD15R,1.600000X1.600000*%
%ADD16C,1.600000*%
%ADD17RoundRect,0.250000X-0.725000X0.600000X-0.725000X-0.600000X0.725000X-0.600000X0.725000X0.600000X0*%
%ADD18O,1.950000X1.700000*%
%ADD19RoundRect,0.250000X0.600000X0.725000X-0.600000X0.725000X-0.600000X-0.725000X0.600000X-0.725000X0*%
%ADD20O,1.700000X1.950000*%
%ADD21C,2.100000*%
%ADD22C,1.750000*%
%ADD23RoundRect,1.500000X-1.500000X-1.500000X1.500000X-1.500000X1.500000X1.500000X-1.500000X1.500000X0*%
%ADD24C,6.000000*%
%ADD25O,1.600000X1.600000*%
%ADD26C,4.700000*%
%ADD27C,2.000000*%
%ADD28C,1.700000*%
%ADD29R,1.524000X1.524000*%
%ADD30C,1.524000*%
%ADD31R,1.530000X1.530000*%
%ADD32C,1.530000*%
%ADD33RoundRect,0.237500X0.237500X-0.250000X0.237500X0.250000X-0.237500X0.250000X-0.237500X-0.250000X0*%
%ADD34R,0.800000X1.800000*%
%ADD35RoundRect,0.237500X-0.237500X0.250000X-0.237500X-0.250000X0.237500X-0.250000X0.237500X0.250000X0*%
G04 APERTURE END LIST*
D10*
%TO.C,REF\u002A\u002A*%
X68000000Y-100500000D03*
%TD*%
D11*
%TO.C,Reminder1*%
X148000000Y-153250000D03*
D12*
X148000000Y-155790000D03*
%TD*%
D13*
%TO.C,CAN_LAN1*%
X98100000Y-153625000D03*
D14*
X99850000Y-150195000D03*
X83650000Y-150195000D03*
D13*
X85400000Y-153625000D03*
D15*
X88200000Y-149305000D03*
D16*
X89210000Y-151085000D03*
X90220000Y-149305000D03*
X91240000Y-151085000D03*
X92260000Y-149305000D03*
X93270000Y-151085000D03*
X94290000Y-149305000D03*
X95310000Y-151085000D03*
%TD*%
D17*
%TO.C,ENC_conn_5*%
X60000000Y-67000000D03*
D18*
X60000000Y-69500000D03*
X60000000Y-72000000D03*
X60000000Y-74500000D03*
X60000000Y-77000000D03*
%TD*%
D11*
%TO.C,Diso_Debug1*%
X66500000Y-90800000D03*
D12*
X66500000Y-88260000D03*
X66500000Y-85720000D03*
X66500000Y-83180000D03*
%TD*%
D19*
%TO.C,MD_conn_3*%
X119640000Y-70000000D03*
D20*
X117140000Y-70000000D03*
X114640000Y-70000000D03*
X112140000Y-70000000D03*
%TD*%
D21*
%TO.C,SW2*%
X144797500Y-149485000D03*
X144797500Y-142475000D03*
D22*
X147287500Y-143725000D03*
X147287500Y-148225000D03*
%TD*%
D11*
%TO.C,RN42_Debug1*%
X109425000Y-111775000D03*
D12*
X109425000Y-114315000D03*
%TD*%
D19*
%TO.C,MD_conn_1*%
X92640000Y-70000000D03*
D20*
X90140000Y-70000000D03*
X87640000Y-70000000D03*
X85140000Y-70000000D03*
%TD*%
D19*
%TO.C,MD_conn_2*%
X106140000Y-70000000D03*
D20*
X103640000Y-70000000D03*
X101140000Y-70000000D03*
X98640000Y-70000000D03*
%TD*%
D11*
%TO.C,SBDBT_Debug1*%
X109525000Y-119515000D03*
D12*
X109525000Y-122055000D03*
%TD*%
D23*
%TO.C,Load1*%
X137650000Y-100750000D03*
D24*
X144850000Y-100750000D03*
%TD*%
D19*
%TO.C,MD_conn_5*%
X146640000Y-70000000D03*
D20*
X144140000Y-70000000D03*
X141640000Y-70000000D03*
X139140000Y-70000000D03*
%TD*%
D17*
%TO.C,ENC_conn_4*%
X60000000Y-83000000D03*
D18*
X60000000Y-85500000D03*
X60000000Y-88000000D03*
X60000000Y-90500000D03*
X60000000Y-93000000D03*
%TD*%
D15*
%TO.C,CAN_Recieber1*%
X100250000Y-129025000D03*
D25*
X100250000Y-126485000D03*
X100250000Y-123945000D03*
X100250000Y-121405000D03*
X92630000Y-121405000D03*
X92630000Y-123945000D03*
X92630000Y-126485000D03*
X92630000Y-129025000D03*
%TD*%
D17*
%TO.C,ENC_conn_0*%
X59950000Y-147000000D03*
D18*
X59950000Y-149500000D03*
X59950000Y-152000000D03*
X59950000Y-154500000D03*
X59950000Y-157000000D03*
%TD*%
D26*
%TO.C,REF\u002A\u002A*%
X65800000Y-62900000D03*
%TD*%
D27*
%TO.C,SW1*%
X133792500Y-156625000D03*
X121792500Y-150625000D03*
X121792500Y-156625000D03*
X133792500Y-150625000D03*
D28*
X123792500Y-152375000D03*
X127792500Y-152375000D03*
X131792500Y-152375000D03*
X123792500Y-154875000D03*
X127792500Y-154875000D03*
X131792500Y-154875000D03*
%TD*%
D19*
%TO.C,MD_conn_4*%
X133140000Y-70000000D03*
D20*
X130640000Y-70000000D03*
X128140000Y-70000000D03*
X125640000Y-70000000D03*
%TD*%
D17*
%TO.C,ENC_conn_2*%
X59950000Y-115000000D03*
D18*
X59950000Y-117500000D03*
X59950000Y-120000000D03*
X59950000Y-122500000D03*
X59950000Y-125000000D03*
%TD*%
D17*
%TO.C,ENC_conn_3*%
X59950000Y-99000000D03*
D18*
X59950000Y-101500000D03*
X59950000Y-104000000D03*
X59950000Y-106500000D03*
X59950000Y-109000000D03*
%TD*%
D29*
%TO.C,SBDBT1*%
X112990000Y-124785000D03*
D30*
X112990000Y-122245000D03*
X112990000Y-119705000D03*
X112990000Y-117165000D03*
X112990000Y-114625000D03*
X133310000Y-124785000D03*
X133310000Y-122245000D03*
X133310000Y-119705000D03*
X133310000Y-117165000D03*
X133310000Y-114625000D03*
%TD*%
D17*
%TO.C,ENC_conn_1*%
X59950000Y-131000000D03*
D18*
X59950000Y-133500000D03*
X59950000Y-136000000D03*
X59950000Y-138500000D03*
X59950000Y-141000000D03*
%TD*%
D19*
%TO.C,MD_conn_0*%
X79140000Y-70000000D03*
D20*
X76640000Y-70000000D03*
X74140000Y-70000000D03*
X71640000Y-70000000D03*
%TD*%
D10*
%TO.C,REF\u002A\u002A*%
X146000000Y-110000000D03*
%TD*%
D23*
%TO.C,Power1*%
X122900000Y-134625000D03*
D24*
X130100000Y-134625000D03*
%TD*%
D10*
%TO.C,REF\u002A\u002A*%
X69500000Y-154000000D03*
%TD*%
D31*
%TO.C,Nucleo-F446RE_1*%
X140000000Y-157135000D03*
D32*
X137460000Y-157135000D03*
X140000000Y-154595000D03*
X137460000Y-154595000D03*
X140000000Y-152055000D03*
X137460000Y-152055000D03*
X140000000Y-149515000D03*
X137460000Y-149515000D03*
X140000000Y-146975000D03*
X137460000Y-146975000D03*
X140000000Y-144435000D03*
X137460000Y-144435000D03*
X140000000Y-141895000D03*
X137460000Y-141895000D03*
X140000000Y-139355000D03*
X137460000Y-139355000D03*
X140000000Y-136815000D03*
X137460000Y-136815000D03*
X140000000Y-134275000D03*
X137460000Y-134275000D03*
X140000000Y-131735000D03*
X137460000Y-131735000D03*
X140000000Y-129195000D03*
X137460000Y-129195000D03*
X140000000Y-126655000D03*
X137460000Y-126655000D03*
X140000000Y-124115000D03*
X137460000Y-124115000D03*
X140000000Y-121575000D03*
X137460000Y-121575000D03*
X140000000Y-119035000D03*
X137460000Y-119035000D03*
X140000000Y-116495000D03*
X137460000Y-116495000D03*
X140000000Y-113955000D03*
X137460000Y-113955000D03*
X140000000Y-111415000D03*
X137460000Y-111415000D03*
D31*
X79040000Y-157135000D03*
D32*
X76500000Y-157135000D03*
X79040000Y-154595000D03*
X76500000Y-154595000D03*
X79040000Y-152055000D03*
X76500000Y-152055000D03*
X79040000Y-149515000D03*
X76500000Y-149515000D03*
X79040000Y-146975000D03*
X76500000Y-146975000D03*
X79040000Y-144435000D03*
X76500000Y-144435000D03*
X79040000Y-141895000D03*
X76500000Y-141895000D03*
X79040000Y-139355000D03*
X76500000Y-139355000D03*
X79040000Y-136815000D03*
X76500000Y-136815000D03*
X79040000Y-134275000D03*
X76500000Y-134275000D03*
X79040000Y-131735000D03*
X76500000Y-131735000D03*
X79040000Y-129195000D03*
X76500000Y-129195000D03*
X79040000Y-126655000D03*
X76500000Y-126655000D03*
X79040000Y-124115000D03*
X76500000Y-124115000D03*
X79040000Y-121575000D03*
X76500000Y-121575000D03*
X79040000Y-119035000D03*
X76500000Y-119035000D03*
X79040000Y-116495000D03*
X76500000Y-116495000D03*
X79040000Y-113955000D03*
X76500000Y-113955000D03*
X79040000Y-111415000D03*
X76500000Y-111415000D03*
%TD*%
D33*
%TO.C,R48*%
X141540000Y-95250000D03*
X141540000Y-93425000D03*
%TD*%
%TO.C,R47*%
X129540000Y-95112500D03*
X129540000Y-93287500D03*
%TD*%
D34*
%TO.C,Q9*%
X107340000Y-77700000D03*
X105440000Y-77700000D03*
X106390000Y-74400000D03*
%TD*%
D33*
%TO.C,R50*%
X85140000Y-95112500D03*
X85140000Y-93287500D03*
%TD*%
%TO.C,R53*%
X127140000Y-95112500D03*
X127140000Y-93287500D03*
%TD*%
%TO.C,R44*%
X87540000Y-95112500D03*
X87540000Y-93287500D03*
%TD*%
D34*
%TO.C,Q8*%
X93840000Y-77700000D03*
X91940000Y-77700000D03*
X92890000Y-74400000D03*
%TD*%
%TO.C,Q4*%
X112840000Y-77700000D03*
X110940000Y-77700000D03*
X111890000Y-74400000D03*
%TD*%
D35*
%TO.C,R41*%
X132140000Y-93287500D03*
X132140000Y-95112500D03*
%TD*%
D34*
%TO.C,Q12*%
X147890000Y-77550000D03*
X145990000Y-77550000D03*
X146940000Y-74250000D03*
%TD*%
%TO.C,Q1*%
X72340000Y-77700000D03*
X70440000Y-77700000D03*
X71390000Y-74400000D03*
%TD*%
D33*
%TO.C,R54*%
X139140000Y-95337500D03*
X139140000Y-93512500D03*
%TD*%
D34*
%TO.C,Q7*%
X80340000Y-77700000D03*
X78440000Y-77700000D03*
X79390000Y-74400000D03*
%TD*%
%TO.C,Q6*%
X139840000Y-77700000D03*
X137940000Y-77700000D03*
X138890000Y-74400000D03*
%TD*%
%TO.C,Q3*%
X99340000Y-77700000D03*
X97440000Y-77700000D03*
X98390000Y-74400000D03*
%TD*%
%TO.C,Q2*%
X85840000Y-77700000D03*
X83940000Y-77700000D03*
X84890000Y-74400000D03*
%TD*%
D35*
%TO.C,R45*%
X101540000Y-93287500D03*
X101540000Y-95112500D03*
%TD*%
%TO.C,R40*%
X118140000Y-93287500D03*
X118140000Y-95112500D03*
%TD*%
D33*
%TO.C,R38*%
X89740000Y-95112500D03*
X89740000Y-93287500D03*
%TD*%
%TO.C,R37*%
X76140000Y-95112500D03*
X76140000Y-93287500D03*
%TD*%
%TO.C,R42*%
X144140000Y-95250000D03*
X144140000Y-93425000D03*
%TD*%
D34*
%TO.C,Q10*%
X120840000Y-77700000D03*
X118940000Y-77700000D03*
X119890000Y-74400000D03*
%TD*%
D33*
%TO.C,R49*%
X71540000Y-95112500D03*
X71540000Y-93287500D03*
%TD*%
%TO.C,R46*%
X115540000Y-95112500D03*
X115540000Y-93287500D03*
%TD*%
%TO.C,R52*%
X112940000Y-95112500D03*
X112940000Y-93287500D03*
%TD*%
%TO.C,R51*%
X99340000Y-95112500D03*
X99340000Y-93287500D03*
%TD*%
D35*
%TO.C,R39*%
X103740000Y-93287500D03*
X103740000Y-95112500D03*
%TD*%
D34*
%TO.C,Q11*%
X134340000Y-77700000D03*
X132440000Y-77700000D03*
X133390000Y-74400000D03*
%TD*%
D35*
%TO.C,R43*%
X73740000Y-93287500D03*
X73740000Y-95112500D03*
%TD*%
D34*
%TO.C,Q5*%
X126340000Y-77700000D03*
X124440000Y-77700000D03*
X125390000Y-74400000D03*
%TD*%
M02*
